G04 #@! TF.GenerationSoftware,KiCad,Pcbnew,(6.0.6)*
G04 #@! TF.CreationDate,2023-01-29T14:58:56+01:00*
G04 #@! TF.ProjectId,RTO_cart,52544f5f-6361-4727-942e-6b696361645f,rev?*
G04 #@! TF.SameCoordinates,Original*
G04 #@! TF.FileFunction,Soldermask,Top*
G04 #@! TF.FilePolarity,Negative*
%FSLAX46Y46*%
G04 Gerber Fmt 4.6, Leading zero omitted, Abs format (unit mm)*
G04 Created by KiCad (PCBNEW (6.0.6)) date 2023-01-29 14:58:56*
%MOMM*%
%LPD*%
G01*
G04 APERTURE LIST*
%ADD10C,1.400000*%
%ADD11O,1.400000X1.400000*%
%ADD12R,1.600000X1.600000*%
%ADD13C,1.600000*%
%ADD14R,1.300000X1.300000*%
%ADD15C,1.300000*%
%ADD16R,1.800000X1.800000*%
%ADD17C,1.800000*%
%ADD18C,2.000000*%
%ADD19R,1.700000X1.700000*%
%ADD20O,1.700000X1.700000*%
%ADD21O,1.600000X1.600000*%
%ADD22R,1.270000X8.840000*%
G04 APERTURE END LIST*
D10*
X117094000Y-106172000D03*
D11*
X109474000Y-106172000D03*
D10*
X100330000Y-98044000D03*
D11*
X100330000Y-105664000D03*
D12*
X147066000Y-110490000D03*
D13*
X144526000Y-110490000D03*
X141986000Y-110490000D03*
X139446000Y-110490000D03*
X136906000Y-110490000D03*
X134366000Y-110490000D03*
X131826000Y-110490000D03*
X129286000Y-110490000D03*
X126746000Y-110490000D03*
X124206000Y-110490000D03*
X121666000Y-110490000D03*
X119126000Y-110490000D03*
X116586000Y-110490000D03*
X114046000Y-110490000D03*
X111506000Y-110490000D03*
X108966000Y-110490000D03*
X106426000Y-110490000D03*
X103886000Y-110490000D03*
X101346000Y-110490000D03*
X98806000Y-110490000D03*
X96266000Y-110490000D03*
X93726000Y-110490000D03*
X91186000Y-110490000D03*
X88646000Y-110490000D03*
X88646000Y-125730000D03*
X91186000Y-125730000D03*
X93726000Y-125730000D03*
X96266000Y-125730000D03*
X98806000Y-125730000D03*
X101346000Y-125730000D03*
X103886000Y-125730000D03*
X106426000Y-125730000D03*
X108966000Y-125730000D03*
X111506000Y-125730000D03*
X114046000Y-125730000D03*
X116586000Y-125730000D03*
X119126000Y-125730000D03*
X121666000Y-125730000D03*
X124206000Y-125730000D03*
X126746000Y-125730000D03*
X129286000Y-125730000D03*
X131826000Y-125730000D03*
X134366000Y-125730000D03*
X136906000Y-125730000D03*
X139446000Y-125730000D03*
X141986000Y-125730000D03*
X144526000Y-125730000D03*
X147066000Y-125730000D03*
X144526000Y-123190000D03*
X101346000Y-113030000D03*
X101346000Y-115570000D03*
X101346000Y-118110000D03*
X101346000Y-120650000D03*
X101346000Y-123190000D03*
D12*
X140766800Y-113540800D03*
D13*
X138226800Y-113540800D03*
X135686800Y-113540800D03*
X133146800Y-113540800D03*
X130606800Y-113540800D03*
D14*
X134096000Y-123291600D03*
D15*
X134096000Y-121291600D03*
X134096000Y-119291600D03*
X132096000Y-119291600D03*
X132096000Y-121291600D03*
X132096000Y-123291600D03*
X146336000Y-119380000D03*
X146336000Y-116840000D03*
D16*
X88138000Y-104902000D03*
D17*
X90678000Y-104902000D03*
D18*
X129758000Y-102310000D03*
X129758000Y-95810000D03*
X125258000Y-95810000D03*
X125258000Y-102310000D03*
D10*
X117094000Y-98298000D03*
D11*
X109474000Y-98298000D03*
D18*
X150078000Y-95810000D03*
X150078000Y-102310000D03*
X145578000Y-95810000D03*
X145578000Y-102310000D03*
X139918000Y-102310000D03*
X139918000Y-95810000D03*
X135418000Y-102310000D03*
X135418000Y-95810000D03*
D19*
X102118000Y-134366000D03*
D20*
X104658000Y-134366000D03*
X107198000Y-134366000D03*
X109738000Y-134366000D03*
D10*
X96012000Y-98044000D03*
D11*
X96012000Y-105664000D03*
D13*
X138196000Y-141224000D03*
X140696000Y-141224000D03*
X112756000Y-141224000D03*
X110256000Y-141224000D03*
X97282000Y-140716000D03*
X94782000Y-140716000D03*
D12*
X122184000Y-146055000D03*
D21*
X122184000Y-148595000D03*
X122184000Y-151135000D03*
X122184000Y-153675000D03*
X122184000Y-156215000D03*
X122184000Y-158755000D03*
X122184000Y-161295000D03*
X122184000Y-163835000D03*
X122184000Y-166375000D03*
X122184000Y-168915000D03*
X129804000Y-168915000D03*
X129804000Y-166375000D03*
X129804000Y-163835000D03*
X129804000Y-161295000D03*
X129804000Y-158755000D03*
X129804000Y-156215000D03*
X129804000Y-153675000D03*
X129804000Y-151135000D03*
X129804000Y-148595000D03*
X129804000Y-146055000D03*
D12*
X92085000Y-146182000D03*
D21*
X92085000Y-148722000D03*
X92085000Y-151262000D03*
X92085000Y-153802000D03*
X92085000Y-156342000D03*
X92085000Y-158882000D03*
X92085000Y-161422000D03*
X92085000Y-163962000D03*
X92085000Y-166502000D03*
X92085000Y-169042000D03*
X99705000Y-169042000D03*
X99705000Y-166502000D03*
X99705000Y-163962000D03*
X99705000Y-161422000D03*
X99705000Y-158882000D03*
X99705000Y-156342000D03*
X99705000Y-153802000D03*
X99705000Y-151262000D03*
X99705000Y-148722000D03*
X99705000Y-146182000D03*
D12*
X135382000Y-146050000D03*
D21*
X135382000Y-148590000D03*
X135382000Y-151130000D03*
X135382000Y-153670000D03*
X135382000Y-156210000D03*
X135382000Y-158750000D03*
X135382000Y-161290000D03*
X135382000Y-163830000D03*
X135382000Y-166370000D03*
X135382000Y-168910000D03*
X143002000Y-168910000D03*
X143002000Y-166370000D03*
X143002000Y-163830000D03*
X143002000Y-161290000D03*
X143002000Y-158750000D03*
X143002000Y-156210000D03*
X143002000Y-153670000D03*
X143002000Y-151130000D03*
X143002000Y-148590000D03*
X143002000Y-146050000D03*
D12*
X107452000Y-146050000D03*
D21*
X107452000Y-148590000D03*
X107452000Y-151130000D03*
X107452000Y-153670000D03*
X107452000Y-156210000D03*
X107452000Y-158750000D03*
X107452000Y-161290000D03*
X107452000Y-163830000D03*
X107452000Y-166370000D03*
X107452000Y-168910000D03*
X115072000Y-168910000D03*
X115072000Y-166370000D03*
X115072000Y-163830000D03*
X115072000Y-161290000D03*
X115072000Y-158750000D03*
X115072000Y-156210000D03*
X115072000Y-153670000D03*
X115072000Y-151130000D03*
X115072000Y-148590000D03*
X115072000Y-146050000D03*
D10*
X117094000Y-102362000D03*
D11*
X109474000Y-102362000D03*
D13*
X124734000Y-141224000D03*
X127234000Y-141224000D03*
D22*
X144665700Y-187960000D03*
X142125700Y-187960000D03*
X139585700Y-187960000D03*
X137045700Y-187960000D03*
X134505700Y-187960000D03*
X131965700Y-187960000D03*
X129425700Y-187960000D03*
X126885700Y-187960000D03*
X124345700Y-187960000D03*
X121805700Y-187960000D03*
X119265700Y-187960000D03*
X116725700Y-187960000D03*
X114185700Y-187960000D03*
X111645700Y-187960000D03*
X109105700Y-187960000D03*
X106565700Y-187960000D03*
X104025700Y-187960000D03*
X101485700Y-187960000D03*
X98945700Y-187960000D03*
X96405700Y-187960000D03*
X93865700Y-187960000D03*
X91325700Y-187960000D03*
D10*
X135382000Y-177546000D03*
D11*
X143002000Y-177546000D03*
D16*
X88138000Y-99060000D03*
D17*
X90678000Y-99060000D03*
M02*
