G04 #@! TF.GenerationSoftware,KiCad,Pcbnew,(6.0.6)*
G04 #@! TF.CreationDate,2023-01-25T21:08:39+01:00*
G04 #@! TF.ProjectId,RTO_cart,52544f5f-6361-4727-942e-6b696361645f,rev?*
G04 #@! TF.SameCoordinates,Original*
G04 #@! TF.FileFunction,Copper,L1,Top*
G04 #@! TF.FilePolarity,Positive*
%FSLAX46Y46*%
G04 Gerber Fmt 4.6, Leading zero omitted, Abs format (unit mm)*
G04 Created by KiCad (PCBNEW (6.0.6)) date 2023-01-25 21:08:39*
%MOMM*%
%LPD*%
G01*
G04 APERTURE LIST*
G04 #@! TA.AperFunction,ComponentPad*
%ADD10C,1.600000*%
G04 #@! TD*
G04 #@! TA.AperFunction,ComponentPad*
%ADD11R,1.600000X1.600000*%
G04 #@! TD*
G04 #@! TA.AperFunction,ComponentPad*
%ADD12O,1.600000X1.600000*%
G04 #@! TD*
G04 #@! TA.AperFunction,ComponentPad*
%ADD13C,1.400000*%
G04 #@! TD*
G04 #@! TA.AperFunction,ComponentPad*
%ADD14O,1.400000X1.400000*%
G04 #@! TD*
G04 #@! TA.AperFunction,ComponentPad*
%ADD15R,1.300000X1.300000*%
G04 #@! TD*
G04 #@! TA.AperFunction,ComponentPad*
%ADD16C,1.300000*%
G04 #@! TD*
G04 #@! TA.AperFunction,ComponentPad*
%ADD17R,1.800000X1.800000*%
G04 #@! TD*
G04 #@! TA.AperFunction,ComponentPad*
%ADD18C,1.800000*%
G04 #@! TD*
G04 #@! TA.AperFunction,ComponentPad*
%ADD19C,2.000000*%
G04 #@! TD*
G04 #@! TA.AperFunction,ComponentPad*
%ADD20R,1.700000X1.700000*%
G04 #@! TD*
G04 #@! TA.AperFunction,ComponentPad*
%ADD21O,1.700000X1.700000*%
G04 #@! TD*
G04 #@! TA.AperFunction,ConnectorPad*
%ADD22R,1.270000X8.840000*%
G04 #@! TD*
G04 #@! TA.AperFunction,ViaPad*
%ADD23C,0.800000*%
G04 #@! TD*
G04 #@! TA.AperFunction,Conductor*
%ADD24C,0.250000*%
G04 #@! TD*
G04 APERTURE END LIST*
D10*
X138196000Y-141224000D03*
X140696000Y-141224000D03*
D11*
X135382000Y-146050000D03*
D12*
X135382000Y-148590000D03*
X135382000Y-151130000D03*
X135382000Y-153670000D03*
X135382000Y-156210000D03*
X135382000Y-158750000D03*
X135382000Y-161290000D03*
X135382000Y-163830000D03*
X135382000Y-166370000D03*
X135382000Y-168910000D03*
X143002000Y-168910000D03*
X143002000Y-166370000D03*
X143002000Y-163830000D03*
X143002000Y-161290000D03*
X143002000Y-158750000D03*
X143002000Y-156210000D03*
X143002000Y-153670000D03*
X143002000Y-151130000D03*
X143002000Y-148590000D03*
X143002000Y-146050000D03*
D13*
X135382000Y-177546000D03*
D14*
X143002000Y-177546000D03*
D13*
X117094000Y-106172000D03*
D14*
X109474000Y-106172000D03*
D13*
X100330000Y-98044000D03*
D14*
X100330000Y-105664000D03*
D11*
X147066000Y-110490000D03*
D10*
X144526000Y-110490000D03*
X141986000Y-110490000D03*
X139446000Y-110490000D03*
X136906000Y-110490000D03*
X134366000Y-110490000D03*
X131826000Y-110490000D03*
X129286000Y-110490000D03*
X126746000Y-110490000D03*
X124206000Y-110490000D03*
X121666000Y-110490000D03*
X119126000Y-110490000D03*
X116586000Y-110490000D03*
X114046000Y-110490000D03*
X111506000Y-110490000D03*
X108966000Y-110490000D03*
X106426000Y-110490000D03*
X103886000Y-110490000D03*
X101346000Y-110490000D03*
X98806000Y-110490000D03*
X96266000Y-110490000D03*
X93726000Y-110490000D03*
X91186000Y-110490000D03*
X88646000Y-110490000D03*
X88646000Y-125730000D03*
X91186000Y-125730000D03*
X93726000Y-125730000D03*
X96266000Y-125730000D03*
X98806000Y-125730000D03*
X101346000Y-125730000D03*
X103886000Y-125730000D03*
X106426000Y-125730000D03*
X108966000Y-125730000D03*
X111506000Y-125730000D03*
X114046000Y-125730000D03*
X116586000Y-125730000D03*
X119126000Y-125730000D03*
X121666000Y-125730000D03*
X124206000Y-125730000D03*
X126746000Y-125730000D03*
X129286000Y-125730000D03*
X131826000Y-125730000D03*
X134366000Y-125730000D03*
X136906000Y-125730000D03*
X139446000Y-125730000D03*
X141986000Y-125730000D03*
X144526000Y-125730000D03*
X147066000Y-125730000D03*
X144526000Y-123190000D03*
X101346000Y-113030000D03*
X101346000Y-115570000D03*
X101346000Y-118110000D03*
X101346000Y-120650000D03*
X101346000Y-123190000D03*
D11*
X140766800Y-113540800D03*
D10*
X138226800Y-113540800D03*
X135686800Y-113540800D03*
X133146800Y-113540800D03*
X130606800Y-113540800D03*
D15*
X134096000Y-123291600D03*
D16*
X134096000Y-121291600D03*
X134096000Y-119291600D03*
X132096000Y-119291600D03*
X132096000Y-121291600D03*
X132096000Y-123291600D03*
X146336000Y-119380000D03*
X146336000Y-116840000D03*
D17*
X88138000Y-104902000D03*
D18*
X90678000Y-104902000D03*
D19*
X129758000Y-102310000D03*
X129758000Y-95810000D03*
X125258000Y-95810000D03*
X125258000Y-102310000D03*
D13*
X117094000Y-98298000D03*
D14*
X109474000Y-98298000D03*
D19*
X150078000Y-95810000D03*
X150078000Y-102310000D03*
X145578000Y-95810000D03*
X145578000Y-102310000D03*
X139918000Y-102310000D03*
X139918000Y-95810000D03*
X135418000Y-102310000D03*
X135418000Y-95810000D03*
D20*
X102118000Y-134366000D03*
D21*
X104658000Y-134366000D03*
X107198000Y-134366000D03*
X109738000Y-134366000D03*
D13*
X96012000Y-98044000D03*
D14*
X96012000Y-105664000D03*
D10*
X112756000Y-141224000D03*
X110256000Y-141224000D03*
X97282000Y-140716000D03*
X94782000Y-140716000D03*
D11*
X122184000Y-146055000D03*
D12*
X122184000Y-148595000D03*
X122184000Y-151135000D03*
X122184000Y-153675000D03*
X122184000Y-156215000D03*
X122184000Y-158755000D03*
X122184000Y-161295000D03*
X122184000Y-163835000D03*
X122184000Y-166375000D03*
X122184000Y-168915000D03*
X129804000Y-168915000D03*
X129804000Y-166375000D03*
X129804000Y-163835000D03*
X129804000Y-161295000D03*
X129804000Y-158755000D03*
X129804000Y-156215000D03*
X129804000Y-153675000D03*
X129804000Y-151135000D03*
X129804000Y-148595000D03*
X129804000Y-146055000D03*
D11*
X92085000Y-146182000D03*
D12*
X92085000Y-148722000D03*
X92085000Y-151262000D03*
X92085000Y-153802000D03*
X92085000Y-156342000D03*
X92085000Y-158882000D03*
X92085000Y-161422000D03*
X92085000Y-163962000D03*
X92085000Y-166502000D03*
X92085000Y-169042000D03*
X99705000Y-169042000D03*
X99705000Y-166502000D03*
X99705000Y-163962000D03*
X99705000Y-161422000D03*
X99705000Y-158882000D03*
X99705000Y-156342000D03*
X99705000Y-153802000D03*
X99705000Y-151262000D03*
X99705000Y-148722000D03*
X99705000Y-146182000D03*
D11*
X107452000Y-146050000D03*
D12*
X107452000Y-148590000D03*
X107452000Y-151130000D03*
X107452000Y-153670000D03*
X107452000Y-156210000D03*
X107452000Y-158750000D03*
X107452000Y-161290000D03*
X107452000Y-163830000D03*
X107452000Y-166370000D03*
X107452000Y-168910000D03*
X115072000Y-168910000D03*
X115072000Y-166370000D03*
X115072000Y-163830000D03*
X115072000Y-161290000D03*
X115072000Y-158750000D03*
X115072000Y-156210000D03*
X115072000Y-153670000D03*
X115072000Y-151130000D03*
X115072000Y-148590000D03*
X115072000Y-146050000D03*
D13*
X117094000Y-102362000D03*
D14*
X109474000Y-102362000D03*
D10*
X124734000Y-141224000D03*
X127234000Y-141224000D03*
D22*
X144665700Y-187960000D03*
X142125700Y-187960000D03*
X139585700Y-187960000D03*
X137045700Y-187960000D03*
X134505700Y-187960000D03*
X131965700Y-187960000D03*
X129425700Y-187960000D03*
X126885700Y-187960000D03*
X124345700Y-187960000D03*
X121805700Y-187960000D03*
X119265700Y-187960000D03*
X116725700Y-187960000D03*
X114185700Y-187960000D03*
X111645700Y-187960000D03*
X109105700Y-187960000D03*
X106565700Y-187960000D03*
X104025700Y-187960000D03*
X101485700Y-187960000D03*
X98945700Y-187960000D03*
X96405700Y-187960000D03*
X93865700Y-187960000D03*
X91325700Y-187960000D03*
D17*
X88138000Y-99060000D03*
D18*
X90678000Y-99060000D03*
D23*
X101753100Y-158682700D03*
X102231800Y-138898600D03*
X95099600Y-120157800D03*
X110475300Y-159470000D03*
X107603500Y-177950500D03*
X107536800Y-178950700D03*
X108129000Y-177061500D03*
X105871000Y-182447000D03*
X109861700Y-182522800D03*
X107214800Y-172113200D03*
X106616100Y-170489100D03*
X108910500Y-165764200D03*
X111941000Y-163910200D03*
X92141300Y-182063400D03*
X104390000Y-159563900D03*
D24*
X139918000Y-95810000D02*
X139918000Y-102310000D01*
X129758000Y-95810000D02*
X129758000Y-102310000D01*
X97536000Y-124460000D02*
X98806000Y-125730000D01*
X97536000Y-108213100D02*
X97536000Y-124460000D01*
X96012000Y-106689100D02*
X97536000Y-108213100D01*
X96012000Y-105664000D02*
X96012000Y-106689100D01*
X96012000Y-99568000D02*
X90678000Y-104902000D01*
X96012000Y-98044000D02*
X96012000Y-99568000D01*
X134668600Y-147464900D02*
X135382000Y-147464900D01*
X130556000Y-143352300D02*
X134668600Y-147464900D01*
X130556000Y-120037700D02*
X130556000Y-143352300D01*
X128391300Y-117873000D02*
X130556000Y-120037700D01*
X128391300Y-112135300D02*
X128391300Y-117873000D01*
X126746000Y-110490000D02*
X128391300Y-112135300D01*
X135382000Y-148590000D02*
X135382000Y-147464900D01*
X133096000Y-142638900D02*
X135382000Y-144924900D01*
X133096000Y-117642400D02*
X133096000Y-142638900D01*
X129286000Y-113832400D02*
X133096000Y-117642400D01*
X129286000Y-110490000D02*
X129286000Y-113832400D01*
X135382000Y-146050000D02*
X135382000Y-144924900D01*
X150078000Y-102310000D02*
X150078000Y-95810000D01*
X117094000Y-98298000D02*
X125258000Y-98298000D01*
X125258000Y-102310000D02*
X125258000Y-98298000D01*
X125258000Y-98298000D02*
X125258000Y-95810000D01*
X105145100Y-114310900D02*
X108966000Y-110490000D01*
X105145100Y-132703800D02*
X105145100Y-114310900D01*
X104658000Y-133190900D02*
X105145100Y-132703800D01*
X104658000Y-134366000D02*
X104658000Y-133190900D01*
X102616000Y-114300000D02*
X106426000Y-110490000D01*
X102616000Y-132692900D02*
X102616000Y-114300000D01*
X102118000Y-133190900D02*
X102616000Y-132692900D01*
X102118000Y-134366000D02*
X102118000Y-133190900D01*
X131965700Y-180962300D02*
X135382000Y-177546000D01*
X131965700Y-187960000D02*
X131965700Y-180962300D01*
X142768800Y-152255100D02*
X143002000Y-152255100D01*
X141587200Y-153436700D02*
X142768800Y-152255100D01*
X141587200Y-171340800D02*
X141587200Y-153436700D01*
X135382000Y-177546000D02*
X141587200Y-171340800D01*
X143002000Y-151130000D02*
X143002000Y-152255100D01*
X115072000Y-143540000D02*
X112756000Y-141224000D01*
X115072000Y-146050000D02*
X115072000Y-143540000D01*
X97282000Y-142633900D02*
X97282000Y-140716000D01*
X99705000Y-145056900D02*
X97282000Y-142633900D01*
X99705000Y-146182000D02*
X99705000Y-145056900D01*
X109474000Y-98298000D02*
X109474000Y-102362000D01*
X138011200Y-141039200D02*
X138196000Y-141224000D01*
X138011200Y-129704800D02*
X138011200Y-141039200D01*
X141986000Y-125730000D02*
X138011200Y-129704800D01*
X109474000Y-106172000D02*
X109474000Y-107197100D01*
X111506000Y-109229100D02*
X111506000Y-110490000D01*
X109474000Y-107197100D02*
X111506000Y-109229100D01*
X107685100Y-114310900D02*
X111506000Y-110490000D01*
X107685100Y-132703800D02*
X107685100Y-114310900D01*
X107198000Y-133190900D02*
X107685100Y-132703800D01*
X107198000Y-134366000D02*
X107198000Y-133190900D01*
X100330000Y-105664000D02*
X101355100Y-105664000D01*
X109474000Y-105664000D02*
X101355100Y-105664000D01*
X109474000Y-102362000D02*
X109474000Y-105664000D01*
X109474000Y-105664000D02*
X109474000Y-106172000D01*
X129804000Y-142172900D02*
X129804000Y-146055000D01*
X127692700Y-140061600D02*
X129804000Y-142172900D01*
X125896400Y-140061600D02*
X127692700Y-140061600D01*
X124734000Y-141224000D02*
X125896400Y-140061600D01*
X122184000Y-153675000D02*
X122184000Y-152549900D01*
X121902700Y-152549900D02*
X122184000Y-152549900D01*
X121058800Y-151706000D02*
X121902700Y-152549900D01*
X121058800Y-135034600D02*
X121058800Y-151706000D01*
X127941100Y-128152300D02*
X121058800Y-135034600D01*
X127941100Y-114121600D02*
X127941100Y-128152300D01*
X125611700Y-111792200D02*
X127941100Y-114121600D01*
X125611700Y-110019400D02*
X125611700Y-111792200D01*
X126325700Y-109305400D02*
X125611700Y-110019400D01*
X133181400Y-109305400D02*
X126325700Y-109305400D01*
X134366000Y-110490000D02*
X133181400Y-109305400D01*
X136906000Y-117364000D02*
X136906000Y-110490000D01*
X135745000Y-118525000D02*
X136906000Y-117364000D01*
X135745000Y-134557400D02*
X135745000Y-118525000D01*
X136507200Y-135319600D02*
X135745000Y-134557400D01*
X136507200Y-149088900D02*
X136507200Y-135319600D01*
X135736100Y-149860000D02*
X136507200Y-149088900D01*
X124584100Y-149860000D02*
X135736100Y-149860000D01*
X123309100Y-151135000D02*
X124584100Y-149860000D01*
X122184000Y-151135000D02*
X123309100Y-151135000D01*
X102231800Y-158204000D02*
X102231800Y-138898600D01*
X101753100Y-158682700D02*
X102231800Y-158204000D01*
X99705000Y-161422000D02*
X99705000Y-160296900D01*
X99986400Y-160296900D02*
X99705000Y-160296900D01*
X100998000Y-159285300D02*
X99986400Y-160296900D01*
X100998000Y-157569100D02*
X100998000Y-159285300D01*
X101730300Y-156836800D02*
X100998000Y-157569100D01*
X101730300Y-144759400D02*
X101730300Y-156836800D01*
X100942600Y-143971700D02*
X101730300Y-144759400D01*
X100942600Y-126133400D02*
X100942600Y-143971700D01*
X101346000Y-125730000D02*
X100942600Y-126133400D01*
X103293200Y-126322800D02*
X103886000Y-125730000D01*
X103293200Y-159530000D02*
X103293200Y-126322800D01*
X99986300Y-162836900D02*
X103293200Y-159530000D01*
X99705000Y-162836900D02*
X99986300Y-162836900D01*
X99705000Y-163962000D02*
X99705000Y-162836900D01*
X95099600Y-127252300D02*
X95099600Y-120157800D01*
X99103300Y-131256000D02*
X95099600Y-127252300D01*
X99103300Y-143818500D02*
X99103300Y-131256000D01*
X100830100Y-145545300D02*
X99103300Y-143818500D01*
X100830100Y-151763100D02*
X100830100Y-145545300D01*
X100061200Y-152532000D02*
X100830100Y-151763100D01*
X99375000Y-152532000D02*
X100061200Y-152532000D01*
X98052500Y-153854500D02*
X99375000Y-152532000D01*
X98052500Y-169037500D02*
X98052500Y-153854500D01*
X99197400Y-170182400D02*
X98052500Y-169037500D01*
X100186400Y-170182400D02*
X99197400Y-170182400D01*
X100850000Y-169518800D02*
X100186400Y-170182400D01*
X100850000Y-167647000D02*
X100850000Y-169518800D01*
X99705000Y-166502000D02*
X100850000Y-167647000D01*
X99705000Y-169042000D02*
X99705000Y-167916900D01*
X100212100Y-111623900D02*
X101346000Y-110490000D01*
X100212100Y-143877900D02*
X100212100Y-111623900D01*
X101280200Y-144946000D02*
X100212100Y-143877900D01*
X101280200Y-156415000D02*
X101280200Y-144946000D01*
X100083200Y-157612000D02*
X101280200Y-156415000D01*
X99380200Y-157612000D02*
X100083200Y-157612000D01*
X98565400Y-158426800D02*
X99380200Y-157612000D01*
X98565400Y-167058600D02*
X98565400Y-158426800D01*
X99423700Y-167916900D02*
X98565400Y-167058600D01*
X99705000Y-167916900D02*
X99423700Y-167916900D01*
X125135500Y-124119500D02*
X126746000Y-125730000D01*
X119138400Y-124119500D02*
X125135500Y-124119500D01*
X117856600Y-125401300D02*
X119138400Y-124119500D01*
X117856600Y-150041600D02*
X117856600Y-125401300D01*
X115353300Y-152544900D02*
X117856600Y-150041600D01*
X115072000Y-152544900D02*
X115353300Y-152544900D01*
X115072000Y-153670000D02*
X115072000Y-152544900D01*
X116586000Y-148677700D02*
X116586000Y-125730000D01*
X115403700Y-149860000D02*
X116586000Y-148677700D01*
X114747200Y-149860000D02*
X115403700Y-149860000D01*
X113933100Y-150674100D02*
X114747200Y-149860000D01*
X113933100Y-154227300D02*
X113933100Y-150674100D01*
X114790700Y-155084900D02*
X113933100Y-154227300D01*
X115072000Y-155084900D02*
X114790700Y-155084900D01*
X115072000Y-156210000D02*
X115072000Y-155084900D01*
X115072000Y-158750000D02*
X115072000Y-157624900D01*
X115276300Y-157624900D02*
X115072000Y-157624900D01*
X119126000Y-153775200D02*
X115276300Y-157624900D01*
X119126000Y-125730000D02*
X119126000Y-153775200D01*
X106004700Y-126151300D02*
X106426000Y-125730000D01*
X106004700Y-142486600D02*
X106004700Y-126151300D01*
X108629000Y-145110900D02*
X106004700Y-142486600D01*
X108629000Y-157623700D02*
X108629000Y-145110900D01*
X110475300Y-159470000D02*
X108629000Y-157623700D01*
X115072000Y-163830000D02*
X115072000Y-162704900D01*
X108548000Y-126148000D02*
X108966000Y-125730000D01*
X108548000Y-144273200D02*
X108548000Y-126148000D01*
X109238100Y-144963300D02*
X108548000Y-144273200D01*
X109238100Y-157152300D02*
X109238100Y-144963300D01*
X114790700Y-162704900D02*
X109238100Y-157152300D01*
X115072000Y-162704900D02*
X114790700Y-162704900D01*
X115072000Y-166370000D02*
X115072000Y-165244900D01*
X115305100Y-165244900D02*
X115072000Y-165244900D01*
X119801000Y-160749000D02*
X115305100Y-165244900D01*
X119801000Y-126646300D02*
X119801000Y-160749000D01*
X120540800Y-125906500D02*
X119801000Y-126646300D01*
X120540800Y-125213800D02*
X120540800Y-125906500D01*
X121172900Y-124581700D02*
X120540800Y-125213800D01*
X123057700Y-124581700D02*
X121172900Y-124581700D01*
X124206000Y-125730000D02*
X123057700Y-124581700D01*
X115072000Y-168910000D02*
X115072000Y-167784900D01*
X115353300Y-167784900D02*
X115072000Y-167784900D01*
X120251200Y-162887000D02*
X115353300Y-167784900D01*
X120251200Y-127144800D02*
X120251200Y-162887000D01*
X121666000Y-125730000D02*
X120251200Y-127144800D01*
X129804000Y-153675000D02*
X129804000Y-154800100D01*
X129570800Y-154800100D02*
X129804000Y-154800100D01*
X127869100Y-156501800D02*
X129570800Y-154800100D01*
X127869100Y-159745100D02*
X127869100Y-156501800D01*
X122509200Y-165105000D02*
X127869100Y-159745100D01*
X121367600Y-165105000D02*
X122509200Y-165105000D01*
X108522100Y-177950500D02*
X121367600Y-165105000D01*
X107603500Y-177950500D02*
X108522100Y-177950500D01*
X129804000Y-156215000D02*
X129804000Y-157340100D01*
X129570800Y-157340100D02*
X129804000Y-157340100D01*
X128389200Y-158521700D02*
X129570800Y-157340100D01*
X128389200Y-161825700D02*
X128389200Y-158521700D01*
X122425100Y-167789800D02*
X128389200Y-161825700D01*
X119462000Y-167789800D02*
X122425100Y-167789800D01*
X108301100Y-178950700D02*
X119462000Y-167789800D01*
X107536800Y-178950700D02*
X108301100Y-178950700D01*
X129804000Y-151135000D02*
X129804000Y-152260100D01*
X108516000Y-177061500D02*
X108129000Y-177061500D01*
X120746600Y-164830900D02*
X108516000Y-177061500D01*
X120746600Y-163673000D02*
X120746600Y-164830900D01*
X121709800Y-162709800D02*
X120746600Y-163673000D01*
X122409600Y-162709800D02*
X121709800Y-162709800D01*
X126974700Y-158144700D02*
X122409600Y-162709800D01*
X126974700Y-154856200D02*
X126974700Y-158144700D01*
X129570800Y-152260100D02*
X126974700Y-154856200D01*
X129804000Y-152260100D02*
X129570800Y-152260100D01*
X98945700Y-187960000D02*
X101485700Y-187960000D01*
X104025700Y-183214900D02*
X96405700Y-183214900D01*
X104025700Y-187960000D02*
X104025700Y-183214900D01*
X96405700Y-187960000D02*
X96405700Y-183214900D01*
X106565700Y-187960000D02*
X106565700Y-183214900D01*
X93865700Y-187960000D02*
X93865700Y-183214900D01*
X105613500Y-183214900D02*
X106565700Y-183214900D01*
X105160200Y-182761600D02*
X105613500Y-183214900D01*
X94319000Y-182761600D02*
X105160200Y-182761600D01*
X93865700Y-183214900D02*
X94319000Y-182761600D01*
X107452000Y-151130000D02*
X107452000Y-152255100D01*
X104928700Y-181504700D02*
X105871000Y-182447000D01*
X104928700Y-160050700D02*
X104928700Y-181504700D01*
X105115100Y-159864300D02*
X104928700Y-160050700D01*
X105115100Y-154358800D02*
X105115100Y-159864300D01*
X107218800Y-152255100D02*
X105115100Y-154358800D01*
X107452000Y-152255100D02*
X107218800Y-152255100D01*
X107452000Y-153670000D02*
X107452000Y-154795100D01*
X109446900Y-182522800D02*
X109861700Y-182522800D01*
X105420100Y-178496000D02*
X109446900Y-182522800D01*
X105420100Y-160195900D02*
X105420100Y-178496000D01*
X105565200Y-160050800D02*
X105420100Y-160195900D01*
X105565200Y-156428200D02*
X105565200Y-160050800D01*
X107198300Y-154795100D02*
X105565200Y-156428200D01*
X107452000Y-154795100D02*
X107198300Y-154795100D01*
X107452000Y-156210000D02*
X107452000Y-157335100D01*
X107170700Y-157335100D02*
X107452000Y-157335100D01*
X106015300Y-158490500D02*
X107170700Y-157335100D01*
X106015300Y-160237300D02*
X106015300Y-158490500D01*
X105870200Y-160382400D02*
X106015300Y-160237300D01*
X105870200Y-170768600D02*
X105870200Y-160382400D01*
X107214800Y-172113200D02*
X105870200Y-170768600D01*
X107452000Y-158750000D02*
X107452000Y-159875100D01*
X107256100Y-159875100D02*
X107452000Y-159875100D01*
X106320300Y-160810900D02*
X107256100Y-159875100D01*
X106320300Y-170193300D02*
X106320300Y-160810900D01*
X106616100Y-170489100D02*
X106320300Y-170193300D01*
X107685100Y-162415100D02*
X107452000Y-162415100D01*
X108910500Y-163640500D02*
X107685100Y-162415100D01*
X108910500Y-165764200D02*
X108910500Y-163640500D01*
X107452000Y-161290000D02*
X107452000Y-162415100D01*
X145578000Y-102310000D02*
X145578000Y-95810000D01*
X109361900Y-166489300D02*
X111941000Y-163910200D01*
X107571300Y-166489300D02*
X109361900Y-166489300D01*
X107452000Y-166370000D02*
X107571300Y-166489300D01*
X116725700Y-187960000D02*
X116725700Y-185587400D01*
X118425600Y-183214900D02*
X119265700Y-183214900D01*
X116725700Y-184914800D02*
X118425600Y-183214900D01*
X116725700Y-185587400D02*
X116725700Y-184914800D01*
X119265700Y-187960000D02*
X119265700Y-185587400D01*
X119265700Y-185587400D02*
X119265700Y-183214900D01*
X121805700Y-187960000D02*
X121805700Y-183327400D01*
X121805700Y-170418400D02*
X122184000Y-170040100D01*
X121805700Y-183327400D02*
X121805700Y-170418400D01*
X122184000Y-168915000D02*
X122184000Y-170040100D01*
X121525700Y-183327400D02*
X121805700Y-183327400D01*
X119265700Y-185587400D02*
X121525700Y-183327400D01*
X88138000Y-99060000D02*
X88138000Y-104902000D01*
X88138000Y-104902000D02*
X88138000Y-106127100D01*
X147066000Y-110490000D02*
X147066000Y-111615100D01*
X147329600Y-122926400D02*
X144526000Y-125730000D01*
X147329600Y-111878700D02*
X147329600Y-122926400D01*
X147066000Y-111615100D02*
X147329600Y-111878700D01*
X144526000Y-137394000D02*
X140696000Y-141224000D01*
X144526000Y-125730000D02*
X144526000Y-137394000D01*
X140696000Y-145440200D02*
X140696000Y-141224000D01*
X142720700Y-147464900D02*
X140696000Y-145440200D01*
X143002000Y-147464900D02*
X142720700Y-147464900D01*
X143002000Y-148590000D02*
X143002000Y-147464900D01*
X109738000Y-134366000D02*
X109738000Y-135541100D01*
X91325700Y-170926400D02*
X92085000Y-170167100D01*
X91325700Y-187960000D02*
X91325700Y-170926400D01*
X92085000Y-169042000D02*
X92085000Y-170167100D01*
X92085000Y-169042000D02*
X92085000Y-167916900D01*
X107452000Y-168910000D02*
X107452000Y-169102000D01*
X111645700Y-187960000D02*
X111645700Y-185587400D01*
X114185700Y-185587400D02*
X116725700Y-185587400D01*
X114185700Y-187960000D02*
X114185700Y-185587400D01*
X114185700Y-185587400D02*
X114185700Y-183214900D01*
X138358200Y-183214900D02*
X137045700Y-183214900D01*
X143002000Y-178571100D02*
X138358200Y-183214900D01*
X143002000Y-177546000D02*
X143002000Y-178571100D01*
X137045700Y-187960000D02*
X137045700Y-183214900D01*
X134505700Y-183214900D02*
X137045700Y-183214900D01*
X134505700Y-187960000D02*
X134505700Y-183214900D01*
X110256000Y-136059100D02*
X110256000Y-141224000D01*
X109738000Y-135541100D02*
X110256000Y-136059100D01*
X114838800Y-147464900D02*
X115072000Y-147464900D01*
X110256000Y-142882100D02*
X114838800Y-147464900D01*
X110256000Y-141224000D02*
X110256000Y-142882100D01*
X115072000Y-148590000D02*
X115072000Y-147464900D01*
X99705000Y-148722000D02*
X98579900Y-148722000D01*
X89916000Y-135850000D02*
X94782000Y-140716000D01*
X89916000Y-107905100D02*
X89916000Y-135850000D01*
X88138000Y-106127100D02*
X89916000Y-107905100D01*
X92318100Y-167916900D02*
X92085000Y-167916900D01*
X93499800Y-166735200D02*
X92318100Y-167916900D01*
X93499800Y-153802100D02*
X93499800Y-166735200D01*
X98579900Y-148722000D02*
X93499800Y-153802100D01*
X94782000Y-144924100D02*
X98579900Y-148722000D01*
X94782000Y-140716000D02*
X94782000Y-144924100D01*
X122184000Y-146055000D02*
X123309100Y-146055000D01*
X129804000Y-148595000D02*
X128678900Y-148595000D01*
X128678900Y-148595000D02*
X124724000Y-144640100D01*
X123309100Y-146055000D02*
X124724000Y-144640100D01*
X127234000Y-142130100D02*
X127234000Y-141224000D01*
X124724000Y-144640100D02*
X127234000Y-142130100D01*
X111675200Y-185557900D02*
X111675200Y-183214900D01*
X111645700Y-185587400D02*
X111675200Y-185557900D01*
X111675200Y-183214900D02*
X114185700Y-183214900D01*
X108136100Y-179675800D02*
X111675200Y-183214900D01*
X107236500Y-179675800D02*
X108136100Y-179675800D01*
X106811700Y-179251000D02*
X107236500Y-179675800D01*
X106811700Y-176826000D02*
X106811700Y-179251000D01*
X107995800Y-175641900D02*
X106811700Y-176826000D01*
X107995800Y-169645800D02*
X107995800Y-175641900D01*
X107452000Y-169102000D02*
X107995800Y-169645800D01*
X104390000Y-169814700D02*
X104390000Y-159563900D01*
X92141300Y-182063400D02*
X104390000Y-169814700D01*
M02*
