G04 #@! TF.GenerationSoftware,KiCad,Pcbnew,(6.0.6)*
G04 #@! TF.CreationDate,2023-01-25T21:08:39+01:00*
G04 #@! TF.ProjectId,RTO_cart,52544f5f-6361-4727-942e-6b696361645f,rev?*
G04 #@! TF.SameCoordinates,Original*
G04 #@! TF.FileFunction,Legend,Top*
G04 #@! TF.FilePolarity,Positive*
%FSLAX46Y46*%
G04 Gerber Fmt 4.6, Leading zero omitted, Abs format (unit mm)*
G04 Created by KiCad (PCBNEW (6.0.6)) date 2023-01-25 21:08:39*
%MOMM*%
%LPD*%
G01*
G04 APERTURE LIST*
%ADD10C,0.150000*%
%ADD11C,0.120000*%
%ADD12C,0.100000*%
%ADD13C,1.600000*%
%ADD14R,1.600000X1.600000*%
%ADD15O,1.600000X1.600000*%
%ADD16C,1.400000*%
%ADD17O,1.400000X1.400000*%
%ADD18R,1.300000X1.300000*%
%ADD19C,1.300000*%
%ADD20R,1.800000X1.800000*%
%ADD21C,1.800000*%
%ADD22C,2.000000*%
%ADD23R,1.700000X1.700000*%
%ADD24O,1.700000X1.700000*%
%ADD25R,1.270000X8.840000*%
G04 APERTURE END LIST*
D10*
X112053714Y-135056476D02*
X112863238Y-135056476D01*
X112958476Y-135104095D01*
X113006095Y-135151714D01*
X113053714Y-135246952D01*
X113053714Y-135389809D01*
X113006095Y-135485047D01*
X112672761Y-135056476D02*
X112720380Y-135151714D01*
X112720380Y-135342190D01*
X112672761Y-135437428D01*
X112625142Y-135485047D01*
X112529904Y-135532666D01*
X112244190Y-135532666D01*
X112148952Y-135485047D01*
X112101333Y-135437428D01*
X112053714Y-135342190D01*
X112053714Y-135151714D01*
X112101333Y-135056476D01*
X112053714Y-134580285D02*
X112720380Y-134580285D01*
X112148952Y-134580285D02*
X112101333Y-134532666D01*
X112053714Y-134437428D01*
X112053714Y-134294571D01*
X112101333Y-134199333D01*
X112196571Y-134151714D01*
X112720380Y-134151714D01*
X112720380Y-133246952D02*
X111720380Y-133246952D01*
X112672761Y-133246952D02*
X112720380Y-133342190D01*
X112720380Y-133532666D01*
X112672761Y-133627904D01*
X112625142Y-133675523D01*
X112529904Y-133723142D01*
X112244190Y-133723142D01*
X112148952Y-133675523D01*
X112101333Y-133627904D01*
X112053714Y-133532666D01*
X112053714Y-133342190D01*
X112101333Y-133246952D01*
X86256761Y-100099714D02*
X86304380Y-99956857D01*
X86304380Y-99718761D01*
X86256761Y-99623523D01*
X86209142Y-99575904D01*
X86113904Y-99528285D01*
X86018666Y-99528285D01*
X85923428Y-99575904D01*
X85875809Y-99623523D01*
X85828190Y-99718761D01*
X85780571Y-99909238D01*
X85732952Y-100004476D01*
X85685333Y-100052095D01*
X85590095Y-100099714D01*
X85494857Y-100099714D01*
X85399619Y-100052095D01*
X85352000Y-100004476D01*
X85304380Y-99909238D01*
X85304380Y-99671142D01*
X85352000Y-99528285D01*
X86304380Y-99099714D02*
X85304380Y-99099714D01*
X85304380Y-98861619D01*
X85352000Y-98718761D01*
X85447238Y-98623523D01*
X85542476Y-98575904D01*
X85732952Y-98528285D01*
X85875809Y-98528285D01*
X86066285Y-98575904D01*
X86161523Y-98623523D01*
X86256761Y-98718761D01*
X86304380Y-98861619D01*
X86304380Y-99099714D01*
X101689333Y-175458380D02*
X101356000Y-174982190D01*
X101117904Y-175458380D02*
X101117904Y-174458380D01*
X101498857Y-174458380D01*
X101594095Y-174506000D01*
X101641714Y-174553619D01*
X101689333Y-174648857D01*
X101689333Y-174791714D01*
X101641714Y-174886952D01*
X101594095Y-174934571D01*
X101498857Y-174982190D01*
X101117904Y-174982190D01*
X101975047Y-174458380D02*
X102546476Y-174458380D01*
X102260761Y-175458380D02*
X102260761Y-174458380D01*
X103070285Y-174458380D02*
X103260761Y-174458380D01*
X103356000Y-174506000D01*
X103451238Y-174601238D01*
X103498857Y-174791714D01*
X103498857Y-175125047D01*
X103451238Y-175315523D01*
X103356000Y-175410761D01*
X103260761Y-175458380D01*
X103070285Y-175458380D01*
X102975047Y-175410761D01*
X102879809Y-175315523D01*
X102832190Y-175125047D01*
X102832190Y-174791714D01*
X102879809Y-174601238D01*
X102975047Y-174506000D01*
X103070285Y-174458380D01*
X105260761Y-175363142D02*
X105213142Y-175410761D01*
X105070285Y-175458380D01*
X104975047Y-175458380D01*
X104832190Y-175410761D01*
X104736952Y-175315523D01*
X104689333Y-175220285D01*
X104641714Y-175029809D01*
X104641714Y-174886952D01*
X104689333Y-174696476D01*
X104736952Y-174601238D01*
X104832190Y-174506000D01*
X104975047Y-174458380D01*
X105070285Y-174458380D01*
X105213142Y-174506000D01*
X105260761Y-174553619D01*
X106117904Y-175458380D02*
X106117904Y-174934571D01*
X106070285Y-174839333D01*
X105975047Y-174791714D01*
X105784571Y-174791714D01*
X105689333Y-174839333D01*
X106117904Y-175410761D02*
X106022666Y-175458380D01*
X105784571Y-175458380D01*
X105689333Y-175410761D01*
X105641714Y-175315523D01*
X105641714Y-175220285D01*
X105689333Y-175125047D01*
X105784571Y-175077428D01*
X106022666Y-175077428D01*
X106117904Y-175029809D01*
X106594095Y-175458380D02*
X106594095Y-174791714D01*
X106594095Y-174982190D02*
X106641714Y-174886952D01*
X106689333Y-174839333D01*
X106784571Y-174791714D01*
X106879809Y-174791714D01*
X107070285Y-174791714D02*
X107451238Y-174791714D01*
X107213142Y-174458380D02*
X107213142Y-175315523D01*
X107260761Y-175410761D01*
X107356000Y-175458380D01*
X107451238Y-175458380D01*
X108546476Y-175458380D02*
X108546476Y-174458380D01*
X108546476Y-174839333D02*
X108641714Y-174791714D01*
X108832190Y-174791714D01*
X108927428Y-174839333D01*
X108975047Y-174886952D01*
X109022666Y-174982190D01*
X109022666Y-175267904D01*
X108975047Y-175363142D01*
X108927428Y-175410761D01*
X108832190Y-175458380D01*
X108641714Y-175458380D01*
X108546476Y-175410761D01*
X109356000Y-174791714D02*
X109594095Y-175458380D01*
X109832190Y-174791714D02*
X109594095Y-175458380D01*
X109498857Y-175696476D01*
X109451238Y-175744095D01*
X109356000Y-175791714D01*
X110927428Y-175172666D02*
X111403619Y-175172666D01*
X110832190Y-175458380D02*
X111165523Y-174458380D01*
X111498857Y-175458380D01*
X111832190Y-175363142D02*
X111879809Y-175410761D01*
X111832190Y-175458380D01*
X111784571Y-175410761D01*
X111832190Y-175363142D01*
X111832190Y-175458380D01*
X112498857Y-174458380D02*
X112689333Y-174458380D01*
X112784571Y-174506000D01*
X112879809Y-174601238D01*
X112927428Y-174791714D01*
X112927428Y-175125047D01*
X112879809Y-175315523D01*
X112784571Y-175410761D01*
X112689333Y-175458380D01*
X112498857Y-175458380D01*
X112403619Y-175410761D01*
X112308380Y-175315523D01*
X112260761Y-175125047D01*
X112260761Y-174791714D01*
X112308380Y-174601238D01*
X112403619Y-174506000D01*
X112498857Y-174458380D01*
X113213142Y-174791714D02*
X113594095Y-174791714D01*
X113356000Y-174458380D02*
X113356000Y-175315523D01*
X113403619Y-175410761D01*
X113498857Y-175458380D01*
X113594095Y-175458380D01*
X113784571Y-174791714D02*
X114165523Y-174791714D01*
X113927428Y-174458380D02*
X113927428Y-175315523D01*
X113975047Y-175410761D01*
X114070285Y-175458380D01*
X114165523Y-175458380D01*
X114927428Y-175458380D02*
X114927428Y-174934571D01*
X114879809Y-174839333D01*
X114784571Y-174791714D01*
X114594095Y-174791714D01*
X114498857Y-174839333D01*
X114927428Y-175410761D02*
X114832190Y-175458380D01*
X114594095Y-175458380D01*
X114498857Y-175410761D01*
X114451238Y-175315523D01*
X114451238Y-175220285D01*
X114498857Y-175125047D01*
X114594095Y-175077428D01*
X114832190Y-175077428D01*
X114927428Y-175029809D01*
X115308380Y-174791714D02*
X115546476Y-175458380D01*
X115784571Y-174791714D01*
X116165523Y-175458380D02*
X116165523Y-174791714D01*
X116165523Y-174458380D02*
X116117904Y-174506000D01*
X116165523Y-174553619D01*
X116213142Y-174506000D01*
X116165523Y-174458380D01*
X116165523Y-174553619D01*
X117070285Y-175458380D02*
X117070285Y-174934571D01*
X117022666Y-174839333D01*
X116927428Y-174791714D01*
X116736952Y-174791714D01*
X116641714Y-174839333D01*
X117070285Y-175410761D02*
X116975047Y-175458380D01*
X116736952Y-175458380D01*
X116641714Y-175410761D01*
X116594095Y-175315523D01*
X116594095Y-175220285D01*
X116641714Y-175125047D01*
X116736952Y-175077428D01*
X116975047Y-175077428D01*
X117070285Y-175029809D01*
X117546476Y-174791714D02*
X117546476Y-175458380D01*
X117546476Y-174886952D02*
X117594095Y-174839333D01*
X117689333Y-174791714D01*
X117832190Y-174791714D01*
X117927428Y-174839333D01*
X117975047Y-174934571D01*
X117975047Y-175458380D01*
X118451238Y-175458380D02*
X118451238Y-174791714D01*
X118451238Y-174458380D02*
X118403619Y-174506000D01*
X118451238Y-174553619D01*
X118498857Y-174506000D01*
X118451238Y-174458380D01*
X118451238Y-174553619D01*
X119594095Y-174791714D02*
X119832190Y-175458380D01*
X120070285Y-174791714D01*
X120451238Y-175363142D02*
X120498857Y-175410761D01*
X120451238Y-175458380D01*
X120403619Y-175410761D01*
X120451238Y-175363142D01*
X120451238Y-175458380D01*
X121451238Y-175458380D02*
X120879809Y-175458380D01*
X121165523Y-175458380D02*
X121165523Y-174458380D01*
X121070285Y-174601238D01*
X120975047Y-174696476D01*
X120879809Y-174744095D01*
X121879809Y-175363142D02*
X121927428Y-175410761D01*
X121879809Y-175458380D01*
X121832190Y-175410761D01*
X121879809Y-175363142D01*
X121879809Y-175458380D01*
X122879809Y-175458380D02*
X122308380Y-175458380D01*
X122594095Y-175458380D02*
X122594095Y-174458380D01*
X122498857Y-174601238D01*
X122403619Y-174696476D01*
X122308380Y-174744095D01*
X123736952Y-175458380D02*
X123736952Y-174934571D01*
X123689333Y-174839333D01*
X123594095Y-174791714D01*
X123403619Y-174791714D01*
X123308380Y-174839333D01*
X123736952Y-175410761D02*
X123641714Y-175458380D01*
X123403619Y-175458380D01*
X123308380Y-175410761D01*
X123260761Y-175315523D01*
X123260761Y-175220285D01*
X123308380Y-175125047D01*
X123403619Y-175077428D01*
X123641714Y-175077428D01*
X123736952Y-175029809D01*
X125260761Y-175839333D02*
X125213142Y-175791714D01*
X125117904Y-175648857D01*
X125070285Y-175553619D01*
X125022666Y-175410761D01*
X124975047Y-175172666D01*
X124975047Y-174982190D01*
X125022666Y-174744095D01*
X125070285Y-174601238D01*
X125117904Y-174506000D01*
X125213142Y-174363142D01*
X125260761Y-174315523D01*
X125594095Y-174553619D02*
X125641714Y-174506000D01*
X125736952Y-174458380D01*
X125975047Y-174458380D01*
X126070285Y-174506000D01*
X126117904Y-174553619D01*
X126165523Y-174648857D01*
X126165523Y-174744095D01*
X126117904Y-174886952D01*
X125546476Y-175458380D01*
X126165523Y-175458380D01*
X127070285Y-174458380D02*
X126594095Y-174458380D01*
X126546476Y-174934571D01*
X126594095Y-174886952D01*
X126689333Y-174839333D01*
X126927428Y-174839333D01*
X127022666Y-174886952D01*
X127070285Y-174934571D01*
X127117904Y-175029809D01*
X127117904Y-175267904D01*
X127070285Y-175363142D01*
X127022666Y-175410761D01*
X126927428Y-175458380D01*
X126689333Y-175458380D01*
X126594095Y-175410761D01*
X126546476Y-175363142D01*
X128260761Y-174410761D02*
X127403619Y-175696476D01*
X129117904Y-175458380D02*
X128546476Y-175458380D01*
X128832190Y-175458380D02*
X128832190Y-174458380D01*
X128736952Y-174601238D01*
X128641714Y-174696476D01*
X128546476Y-174744095D01*
X130260761Y-174410761D02*
X129403619Y-175696476D01*
X130546476Y-174553619D02*
X130594095Y-174506000D01*
X130689333Y-174458380D01*
X130927428Y-174458380D01*
X131022666Y-174506000D01*
X131070285Y-174553619D01*
X131117904Y-174648857D01*
X131117904Y-174744095D01*
X131070285Y-174886952D01*
X130498857Y-175458380D01*
X131117904Y-175458380D01*
X131736952Y-174458380D02*
X131832190Y-174458380D01*
X131927428Y-174506000D01*
X131975047Y-174553619D01*
X132022666Y-174648857D01*
X132070285Y-174839333D01*
X132070285Y-175077428D01*
X132022666Y-175267904D01*
X131975047Y-175363142D01*
X131927428Y-175410761D01*
X131832190Y-175458380D01*
X131736952Y-175458380D01*
X131641714Y-175410761D01*
X131594095Y-175363142D01*
X131546476Y-175267904D01*
X131498857Y-175077428D01*
X131498857Y-174839333D01*
X131546476Y-174648857D01*
X131594095Y-174553619D01*
X131641714Y-174506000D01*
X131736952Y-174458380D01*
X132451238Y-174553619D02*
X132498857Y-174506000D01*
X132594095Y-174458380D01*
X132832190Y-174458380D01*
X132927428Y-174506000D01*
X132975047Y-174553619D01*
X133022666Y-174648857D01*
X133022666Y-174744095D01*
X132975047Y-174886952D01*
X132403619Y-175458380D01*
X133022666Y-175458380D01*
X133355999Y-174458380D02*
X133975047Y-174458380D01*
X133641714Y-174839333D01*
X133784571Y-174839333D01*
X133879809Y-174886952D01*
X133927428Y-174934571D01*
X133975047Y-175029809D01*
X133975047Y-175267904D01*
X133927428Y-175363142D01*
X133879809Y-175410761D01*
X133784571Y-175458380D01*
X133498857Y-175458380D01*
X133403619Y-175410761D01*
X133355999Y-175363142D01*
X134308380Y-175839333D02*
X134356000Y-175791714D01*
X134451238Y-175648857D01*
X134498857Y-175553619D01*
X134546476Y-175410761D01*
X134594095Y-175172666D01*
X134594095Y-174982190D01*
X134546476Y-174744095D01*
X134498857Y-174601238D01*
X134451238Y-174506000D01*
X134356000Y-174363142D01*
X134308380Y-174315523D01*
X86304380Y-105997238D02*
X85304380Y-105997238D01*
X85304380Y-105616285D01*
X85352000Y-105521047D01*
X85399619Y-105473428D01*
X85494857Y-105425809D01*
X85637714Y-105425809D01*
X85732952Y-105473428D01*
X85780571Y-105521047D01*
X85828190Y-105616285D01*
X85828190Y-105997238D01*
X85637714Y-105092476D02*
X86304380Y-104902000D01*
X85828190Y-104711523D01*
X86304380Y-104521047D01*
X85637714Y-104330571D01*
X86304380Y-103949619D02*
X85637714Y-103949619D01*
X85828190Y-103949619D02*
X85732952Y-103902000D01*
X85685333Y-103854380D01*
X85637714Y-103759142D01*
X85637714Y-103663904D01*
X139279333Y-139031142D02*
X139231714Y-139078761D01*
X139088857Y-139126380D01*
X138993619Y-139126380D01*
X138850761Y-139078761D01*
X138755523Y-138983523D01*
X138707904Y-138888285D01*
X138660285Y-138697809D01*
X138660285Y-138554952D01*
X138707904Y-138364476D01*
X138755523Y-138269238D01*
X138850761Y-138174000D01*
X138993619Y-138126380D01*
X139088857Y-138126380D01*
X139231714Y-138174000D01*
X139279333Y-138221619D01*
X140136476Y-138459714D02*
X140136476Y-139126380D01*
X139898380Y-138078761D02*
X139660285Y-138793047D01*
X140279333Y-138793047D01*
X138430095Y-143172380D02*
X138430095Y-143981904D01*
X138477714Y-144077142D01*
X138525333Y-144124761D01*
X138620571Y-144172380D01*
X138811047Y-144172380D01*
X138906285Y-144124761D01*
X138953904Y-144077142D01*
X139001523Y-143981904D01*
X139001523Y-143172380D01*
X139953904Y-143172380D02*
X139477714Y-143172380D01*
X139430095Y-143648571D01*
X139477714Y-143600952D01*
X139572952Y-143553333D01*
X139811047Y-143553333D01*
X139906285Y-143600952D01*
X139953904Y-143648571D01*
X140001523Y-143743809D01*
X140001523Y-143981904D01*
X139953904Y-144077142D01*
X139906285Y-144124761D01*
X139811047Y-144172380D01*
X139572952Y-144172380D01*
X139477714Y-144124761D01*
X139430095Y-144077142D01*
X138634380Y-166888428D02*
X138634380Y-166221761D01*
X139634380Y-166650333D01*
X138967714Y-165412238D02*
X139634380Y-165412238D01*
X138586761Y-165650333D02*
X139301047Y-165888428D01*
X139301047Y-165269380D01*
X139634380Y-164412238D02*
X139634380Y-164888428D01*
X138634380Y-164888428D01*
X138634380Y-164221761D02*
X139634380Y-163888428D01*
X138634380Y-163555095D01*
X139539142Y-162650333D02*
X139586761Y-162697952D01*
X139634380Y-162840809D01*
X139634380Y-162936047D01*
X139586761Y-163078904D01*
X139491523Y-163174142D01*
X139396285Y-163221761D01*
X139205809Y-163269380D01*
X139062952Y-163269380D01*
X138872476Y-163221761D01*
X138777238Y-163174142D01*
X138682000Y-163078904D01*
X138634380Y-162936047D01*
X138634380Y-162840809D01*
X138682000Y-162697952D01*
X138729619Y-162650333D01*
X138729619Y-162269380D02*
X138682000Y-162221761D01*
X138634380Y-162126523D01*
X138634380Y-161888428D01*
X138682000Y-161793190D01*
X138729619Y-161745571D01*
X138824857Y-161697952D01*
X138920095Y-161697952D01*
X139062952Y-161745571D01*
X139634380Y-162317000D01*
X139634380Y-161697952D01*
X138967714Y-160840809D02*
X139634380Y-160840809D01*
X138586761Y-161078904D02*
X139301047Y-161317000D01*
X139301047Y-160697952D01*
X138634380Y-159840809D02*
X138634380Y-160317000D01*
X139110571Y-160364619D01*
X139062952Y-160317000D01*
X139015333Y-160221761D01*
X139015333Y-159983666D01*
X139062952Y-159888428D01*
X139110571Y-159840809D01*
X139205809Y-159793190D01*
X139443904Y-159793190D01*
X139539142Y-159840809D01*
X139586761Y-159888428D01*
X139634380Y-159983666D01*
X139634380Y-160221761D01*
X139586761Y-160317000D01*
X139539142Y-160364619D01*
X139025333Y-176078380D02*
X138692000Y-175602190D01*
X138453904Y-176078380D02*
X138453904Y-175078380D01*
X138834857Y-175078380D01*
X138930095Y-175126000D01*
X138977714Y-175173619D01*
X139025333Y-175268857D01*
X139025333Y-175411714D01*
X138977714Y-175506952D01*
X138930095Y-175554571D01*
X138834857Y-175602190D01*
X138453904Y-175602190D01*
X139882476Y-175078380D02*
X139692000Y-175078380D01*
X139596761Y-175126000D01*
X139549142Y-175173619D01*
X139453904Y-175316476D01*
X139406285Y-175506952D01*
X139406285Y-175887904D01*
X139453904Y-175983142D01*
X139501523Y-176030761D01*
X139596761Y-176078380D01*
X139787238Y-176078380D01*
X139882476Y-176030761D01*
X139930095Y-175983142D01*
X139977714Y-175887904D01*
X139977714Y-175649809D01*
X139930095Y-175554571D01*
X139882476Y-175506952D01*
X139787238Y-175459333D01*
X139596761Y-175459333D01*
X139501523Y-175506952D01*
X139453904Y-175554571D01*
X139406285Y-175649809D01*
X113117333Y-108544380D02*
X112784000Y-108068190D01*
X112545904Y-108544380D02*
X112545904Y-107544380D01*
X112926857Y-107544380D01*
X113022095Y-107592000D01*
X113069714Y-107639619D01*
X113117333Y-107734857D01*
X113117333Y-107877714D01*
X113069714Y-107972952D01*
X113022095Y-108020571D01*
X112926857Y-108068190D01*
X112545904Y-108068190D01*
X114022095Y-107544380D02*
X113545904Y-107544380D01*
X113498285Y-108020571D01*
X113545904Y-107972952D01*
X113641142Y-107925333D01*
X113879238Y-107925333D01*
X113974476Y-107972952D01*
X114022095Y-108020571D01*
X114069714Y-108115809D01*
X114069714Y-108353904D01*
X114022095Y-108449142D01*
X113974476Y-108496761D01*
X113879238Y-108544380D01*
X113641142Y-108544380D01*
X113545904Y-108496761D01*
X113498285Y-108449142D01*
X102702380Y-102020666D02*
X102226190Y-102354000D01*
X102702380Y-102592095D02*
X101702380Y-102592095D01*
X101702380Y-102211142D01*
X101750000Y-102115904D01*
X101797619Y-102068285D01*
X101892857Y-102020666D01*
X102035714Y-102020666D01*
X102130952Y-102068285D01*
X102178571Y-102115904D01*
X102226190Y-102211142D01*
X102226190Y-102592095D01*
X102702380Y-101068285D02*
X102702380Y-101639714D01*
X102702380Y-101354000D02*
X101702380Y-101354000D01*
X101845238Y-101449238D01*
X101940476Y-101544476D01*
X101988095Y-101639714D01*
X117094095Y-127722380D02*
X117094095Y-128531904D01*
X117141714Y-128627142D01*
X117189333Y-128674761D01*
X117284571Y-128722380D01*
X117475047Y-128722380D01*
X117570285Y-128674761D01*
X117617904Y-128627142D01*
X117665523Y-128531904D01*
X117665523Y-127722380D01*
X118570285Y-128055714D02*
X118570285Y-128722380D01*
X118332190Y-127674761D02*
X118094095Y-128389047D01*
X118713142Y-128389047D01*
X119442666Y-121193333D02*
X118742666Y-121193333D01*
X119242666Y-120960000D01*
X118742666Y-120726666D01*
X119442666Y-120726666D01*
X119442666Y-120393333D02*
X118742666Y-120393333D01*
X119442666Y-120060000D02*
X118742666Y-120060000D01*
X119242666Y-119826666D01*
X118742666Y-119593333D01*
X119442666Y-119593333D01*
X118742666Y-119326666D02*
X119442666Y-118860000D01*
X118742666Y-118860000D02*
X119442666Y-119326666D01*
X119442666Y-118193333D02*
X119109333Y-118426666D01*
X119442666Y-118593333D02*
X118742666Y-118593333D01*
X118742666Y-118326666D01*
X118776000Y-118260000D01*
X118809333Y-118226666D01*
X118876000Y-118193333D01*
X118976000Y-118193333D01*
X119042666Y-118226666D01*
X119076000Y-118260000D01*
X119109333Y-118326666D01*
X119109333Y-118593333D01*
X118742666Y-117993333D02*
X118742666Y-117593333D01*
X119442666Y-117793333D02*
X118742666Y-117793333D01*
X119442666Y-116993333D02*
X119442666Y-117393333D01*
X119442666Y-117193333D02*
X118742666Y-117193333D01*
X118842666Y-117260000D01*
X118909333Y-117326666D01*
X118942666Y-117393333D01*
X118742666Y-116560000D02*
X118742666Y-116493333D01*
X118776000Y-116426666D01*
X118809333Y-116393333D01*
X118876000Y-116360000D01*
X119009333Y-116326666D01*
X119176000Y-116326666D01*
X119309333Y-116360000D01*
X119376000Y-116393333D01*
X119409333Y-116426666D01*
X119442666Y-116493333D01*
X119442666Y-116560000D01*
X119409333Y-116626666D01*
X119376000Y-116660000D01*
X119309333Y-116693333D01*
X119176000Y-116726666D01*
X119009333Y-116726666D01*
X118876000Y-116693333D01*
X118809333Y-116660000D01*
X118776000Y-116626666D01*
X118742666Y-116560000D01*
X118742666Y-115726666D02*
X118742666Y-115860000D01*
X118776000Y-115926666D01*
X118809333Y-115960000D01*
X118909333Y-116026666D01*
X119042666Y-116060000D01*
X119309333Y-116060000D01*
X119376000Y-116026666D01*
X119409333Y-115993333D01*
X119442666Y-115926666D01*
X119442666Y-115793333D01*
X119409333Y-115726666D01*
X119376000Y-115693333D01*
X119309333Y-115660000D01*
X119142666Y-115660000D01*
X119076000Y-115693333D01*
X119042666Y-115726666D01*
X119009333Y-115793333D01*
X119009333Y-115926666D01*
X119042666Y-115993333D01*
X119076000Y-116026666D01*
X119142666Y-116060000D01*
X118809333Y-115393333D02*
X118776000Y-115360000D01*
X118742666Y-115293333D01*
X118742666Y-115126666D01*
X118776000Y-115060000D01*
X118809333Y-115026666D01*
X118876000Y-114993333D01*
X118942666Y-114993333D01*
X119042666Y-115026666D01*
X119442666Y-115426666D01*
X119442666Y-114993333D01*
X90606952Y-118562380D02*
X90606952Y-117562380D01*
X90940285Y-118276666D01*
X91273619Y-117562380D01*
X91273619Y-118562380D01*
X91749809Y-118562380D02*
X91749809Y-117895714D01*
X91749809Y-117562380D02*
X91702190Y-117610000D01*
X91749809Y-117657619D01*
X91797428Y-117610000D01*
X91749809Y-117562380D01*
X91749809Y-117657619D01*
X92654571Y-118514761D02*
X92559333Y-118562380D01*
X92368857Y-118562380D01*
X92273619Y-118514761D01*
X92226000Y-118467142D01*
X92178380Y-118371904D01*
X92178380Y-118086190D01*
X92226000Y-117990952D01*
X92273619Y-117943333D01*
X92368857Y-117895714D01*
X92559333Y-117895714D01*
X92654571Y-117943333D01*
X93083142Y-118562380D02*
X93083142Y-117895714D01*
X93083142Y-118086190D02*
X93130761Y-117990952D01*
X93178380Y-117943333D01*
X93273619Y-117895714D01*
X93368857Y-117895714D01*
X93845047Y-118562380D02*
X93749809Y-118514761D01*
X93702190Y-118467142D01*
X93654571Y-118371904D01*
X93654571Y-118086190D01*
X93702190Y-117990952D01*
X93749809Y-117943333D01*
X93845047Y-117895714D01*
X93987904Y-117895714D01*
X94083142Y-117943333D01*
X94130761Y-117990952D01*
X94178380Y-118086190D01*
X94178380Y-118371904D01*
X94130761Y-118467142D01*
X94083142Y-118514761D01*
X93987904Y-118562380D01*
X93845047Y-118562380D01*
X95321238Y-118514761D02*
X95464095Y-118562380D01*
X95702190Y-118562380D01*
X95797428Y-118514761D01*
X95845047Y-118467142D01*
X95892666Y-118371904D01*
X95892666Y-118276666D01*
X95845047Y-118181428D01*
X95797428Y-118133809D01*
X95702190Y-118086190D01*
X95511714Y-118038571D01*
X95416476Y-117990952D01*
X95368857Y-117943333D01*
X95321238Y-117848095D01*
X95321238Y-117752857D01*
X95368857Y-117657619D01*
X95416476Y-117610000D01*
X95511714Y-117562380D01*
X95749809Y-117562380D01*
X95892666Y-117610000D01*
X96321238Y-118562380D02*
X96321238Y-117562380D01*
X96559333Y-117562380D01*
X96702190Y-117610000D01*
X96797428Y-117705238D01*
X96845047Y-117800476D01*
X96892666Y-117990952D01*
X96892666Y-118133809D01*
X96845047Y-118324285D01*
X96797428Y-118419523D01*
X96702190Y-118514761D01*
X96559333Y-118562380D01*
X96321238Y-118562380D01*
X143978380Y-119371904D02*
X144787904Y-119371904D01*
X144883142Y-119324285D01*
X144930761Y-119276666D01*
X144978380Y-119181428D01*
X144978380Y-118990952D01*
X144930761Y-118895714D01*
X144883142Y-118848095D01*
X144787904Y-118800476D01*
X143978380Y-118800476D01*
X144930761Y-118371904D02*
X144978380Y-118229047D01*
X144978380Y-117990952D01*
X144930761Y-117895714D01*
X144883142Y-117848095D01*
X144787904Y-117800476D01*
X144692666Y-117800476D01*
X144597428Y-117848095D01*
X144549809Y-117895714D01*
X144502190Y-117990952D01*
X144454571Y-118181428D01*
X144406952Y-118276666D01*
X144359333Y-118324285D01*
X144264095Y-118371904D01*
X144168857Y-118371904D01*
X144073619Y-118324285D01*
X144026000Y-118276666D01*
X143978380Y-118181428D01*
X143978380Y-117943333D01*
X144026000Y-117800476D01*
X144454571Y-117038571D02*
X144502190Y-116895714D01*
X144549809Y-116848095D01*
X144645047Y-116800476D01*
X144787904Y-116800476D01*
X144883142Y-116848095D01*
X144930761Y-116895714D01*
X144978380Y-116990952D01*
X144978380Y-117371904D01*
X143978380Y-117371904D01*
X143978380Y-117038571D01*
X144026000Y-116943333D01*
X144073619Y-116895714D01*
X144168857Y-116848095D01*
X144264095Y-116848095D01*
X144359333Y-116895714D01*
X144406952Y-116943333D01*
X144454571Y-117038571D01*
X144454571Y-117371904D01*
X129849571Y-124243742D02*
X129849571Y-123910409D01*
X130373380Y-123767552D02*
X130373380Y-124243742D01*
X129373380Y-124243742D01*
X129373380Y-123767552D01*
X129706714Y-123481838D02*
X129706714Y-123100885D01*
X129373380Y-123338980D02*
X130230523Y-123338980D01*
X130325761Y-123291361D01*
X130373380Y-123196123D01*
X130373380Y-123100885D01*
X130373380Y-122767552D02*
X129373380Y-122767552D01*
X130373380Y-122338980D02*
X129849571Y-122338980D01*
X129754333Y-122386600D01*
X129706714Y-122481838D01*
X129706714Y-122624695D01*
X129754333Y-122719933D01*
X129801952Y-122767552D01*
X130325761Y-121481838D02*
X130373380Y-121577076D01*
X130373380Y-121767552D01*
X130325761Y-121862790D01*
X130230523Y-121910409D01*
X129849571Y-121910409D01*
X129754333Y-121862790D01*
X129706714Y-121767552D01*
X129706714Y-121577076D01*
X129754333Y-121481838D01*
X129849571Y-121434219D01*
X129944809Y-121434219D01*
X130040047Y-121910409D01*
X130373380Y-121005647D02*
X129706714Y-121005647D01*
X129897190Y-121005647D02*
X129801952Y-120958028D01*
X129754333Y-120910409D01*
X129706714Y-120815171D01*
X129706714Y-120719933D01*
X129706714Y-120386600D02*
X130373380Y-120386600D01*
X129801952Y-120386600D02*
X129754333Y-120338980D01*
X129706714Y-120243742D01*
X129706714Y-120100885D01*
X129754333Y-120005647D01*
X129849571Y-119958028D01*
X130373380Y-119958028D01*
X130325761Y-119100885D02*
X130373380Y-119196123D01*
X130373380Y-119386600D01*
X130325761Y-119481838D01*
X130230523Y-119529457D01*
X129849571Y-119529457D01*
X129754333Y-119481838D01*
X129706714Y-119386600D01*
X129706714Y-119196123D01*
X129754333Y-119100885D01*
X129849571Y-119053266D01*
X129944809Y-119053266D01*
X130040047Y-119529457D01*
X129706714Y-118767552D02*
X129706714Y-118386600D01*
X129373380Y-118624695D02*
X130230523Y-118624695D01*
X130325761Y-118577076D01*
X130373380Y-118481838D01*
X130373380Y-118386600D01*
X133012276Y-115073180D02*
X133012276Y-115882704D01*
X133059895Y-115977942D01*
X133107514Y-116025561D01*
X133202752Y-116073180D01*
X133393228Y-116073180D01*
X133488466Y-116025561D01*
X133536085Y-115977942D01*
X133583704Y-115882704D01*
X133583704Y-115073180D01*
X134012276Y-116025561D02*
X134155133Y-116073180D01*
X134393228Y-116073180D01*
X134488466Y-116025561D01*
X134536085Y-115977942D01*
X134583704Y-115882704D01*
X134583704Y-115787466D01*
X134536085Y-115692228D01*
X134488466Y-115644609D01*
X134393228Y-115596990D01*
X134202752Y-115549371D01*
X134107514Y-115501752D01*
X134059895Y-115454133D01*
X134012276Y-115358895D01*
X134012276Y-115263657D01*
X134059895Y-115168419D01*
X134107514Y-115120800D01*
X134202752Y-115073180D01*
X134440847Y-115073180D01*
X134583704Y-115120800D01*
X135345609Y-115549371D02*
X135488466Y-115596990D01*
X135536085Y-115644609D01*
X135583704Y-115739847D01*
X135583704Y-115882704D01*
X135536085Y-115977942D01*
X135488466Y-116025561D01*
X135393228Y-116073180D01*
X135012276Y-116073180D01*
X135012276Y-115073180D01*
X135345609Y-115073180D01*
X135440847Y-115120800D01*
X135488466Y-115168419D01*
X135536085Y-115263657D01*
X135536085Y-115358895D01*
X135488466Y-115454133D01*
X135440847Y-115501752D01*
X135345609Y-115549371D01*
X135012276Y-115549371D01*
X136774180Y-116073180D02*
X136774180Y-115073180D01*
X136774180Y-115549371D02*
X137345609Y-115549371D01*
X137345609Y-116073180D02*
X137345609Y-115073180D01*
X137964657Y-116073180D02*
X137869419Y-116025561D01*
X137821800Y-115977942D01*
X137774180Y-115882704D01*
X137774180Y-115596990D01*
X137821800Y-115501752D01*
X137869419Y-115454133D01*
X137964657Y-115406514D01*
X138107514Y-115406514D01*
X138202752Y-115454133D01*
X138250371Y-115501752D01*
X138297990Y-115596990D01*
X138297990Y-115882704D01*
X138250371Y-115977942D01*
X138202752Y-116025561D01*
X138107514Y-116073180D01*
X137964657Y-116073180D01*
X138678942Y-116025561D02*
X138774180Y-116073180D01*
X138964657Y-116073180D01*
X139059895Y-116025561D01*
X139107514Y-115930323D01*
X139107514Y-115882704D01*
X139059895Y-115787466D01*
X138964657Y-115739847D01*
X138821800Y-115739847D01*
X138726561Y-115692228D01*
X138678942Y-115596990D01*
X138678942Y-115549371D01*
X138726561Y-115454133D01*
X138821800Y-115406514D01*
X138964657Y-115406514D01*
X139059895Y-115454133D01*
X139393228Y-115406514D02*
X139774180Y-115406514D01*
X139536085Y-115073180D02*
X139536085Y-115930323D01*
X139583704Y-116025561D01*
X139678942Y-116073180D01*
X139774180Y-116073180D01*
X120712666Y-119673333D02*
X120012666Y-119673333D01*
X120012666Y-119506666D01*
X120046000Y-119406666D01*
X120112666Y-119340000D01*
X120179333Y-119306666D01*
X120312666Y-119273333D01*
X120412666Y-119273333D01*
X120546000Y-119306666D01*
X120612666Y-119340000D01*
X120679333Y-119406666D01*
X120712666Y-119506666D01*
X120712666Y-119673333D01*
X120012666Y-119073333D02*
X120712666Y-118840000D01*
X120012666Y-118606666D01*
X120012666Y-118173333D02*
X120512666Y-118173333D01*
X120612666Y-118206666D01*
X120679333Y-118273333D01*
X120712666Y-118373333D01*
X120712666Y-118440000D01*
X120012666Y-117540000D02*
X120012666Y-117673333D01*
X120046000Y-117740000D01*
X120079333Y-117773333D01*
X120179333Y-117840000D01*
X120312666Y-117873333D01*
X120579333Y-117873333D01*
X120646000Y-117840000D01*
X120679333Y-117806666D01*
X120712666Y-117740000D01*
X120712666Y-117606666D01*
X120679333Y-117540000D01*
X120646000Y-117506666D01*
X120579333Y-117473333D01*
X120412666Y-117473333D01*
X120346000Y-117506666D01*
X120312666Y-117540000D01*
X120279333Y-117606666D01*
X120279333Y-117740000D01*
X120312666Y-117806666D01*
X120346000Y-117840000D01*
X120412666Y-117873333D01*
X120512666Y-117206666D02*
X120512666Y-116873333D01*
X120712666Y-117273333D02*
X120012666Y-117040000D01*
X120712666Y-116806666D01*
X92484904Y-105989380D02*
X92484904Y-104989380D01*
X92723000Y-104989380D01*
X92865857Y-105037000D01*
X92961095Y-105132238D01*
X93008714Y-105227476D01*
X93056333Y-105417952D01*
X93056333Y-105560809D01*
X93008714Y-105751285D01*
X92961095Y-105846523D01*
X92865857Y-105941761D01*
X92723000Y-105989380D01*
X92484904Y-105989380D01*
X93437285Y-105084619D02*
X93484904Y-105037000D01*
X93580142Y-104989380D01*
X93818238Y-104989380D01*
X93913476Y-105037000D01*
X93961095Y-105084619D01*
X94008714Y-105179857D01*
X94008714Y-105275095D01*
X93961095Y-105417952D01*
X93389666Y-105989380D01*
X94008714Y-105989380D01*
X132162761Y-100393333D02*
X132210380Y-100250476D01*
X132210380Y-100012380D01*
X132162761Y-99917142D01*
X132115142Y-99869523D01*
X132019904Y-99821904D01*
X131924666Y-99821904D01*
X131829428Y-99869523D01*
X131781809Y-99917142D01*
X131734190Y-100012380D01*
X131686571Y-100202857D01*
X131638952Y-100298095D01*
X131591333Y-100345714D01*
X131496095Y-100393333D01*
X131400857Y-100393333D01*
X131305619Y-100345714D01*
X131258000Y-100298095D01*
X131210380Y-100202857D01*
X131210380Y-99964761D01*
X131258000Y-99821904D01*
X131210380Y-99488571D02*
X132210380Y-99250476D01*
X131496095Y-99060000D01*
X132210380Y-98869523D01*
X131210380Y-98631428D01*
X132210380Y-97726666D02*
X132210380Y-98298095D01*
X132210380Y-98012380D02*
X131210380Y-98012380D01*
X131353238Y-98107619D01*
X131448476Y-98202857D01*
X131496095Y-98298095D01*
X113117333Y-100670380D02*
X112784000Y-100194190D01*
X112545904Y-100670380D02*
X112545904Y-99670380D01*
X112926857Y-99670380D01*
X113022095Y-99718000D01*
X113069714Y-99765619D01*
X113117333Y-99860857D01*
X113117333Y-100003714D01*
X113069714Y-100098952D01*
X113022095Y-100146571D01*
X112926857Y-100194190D01*
X112545904Y-100194190D01*
X113450666Y-99670380D02*
X114069714Y-99670380D01*
X113736380Y-100051333D01*
X113879238Y-100051333D01*
X113974476Y-100098952D01*
X114022095Y-100146571D01*
X114069714Y-100241809D01*
X114069714Y-100479904D01*
X114022095Y-100575142D01*
X113974476Y-100622761D01*
X113879238Y-100670380D01*
X113593523Y-100670380D01*
X113498285Y-100622761D01*
X113450666Y-100575142D01*
X152482761Y-100393333D02*
X152530380Y-100250476D01*
X152530380Y-100012380D01*
X152482761Y-99917142D01*
X152435142Y-99869523D01*
X152339904Y-99821904D01*
X152244666Y-99821904D01*
X152149428Y-99869523D01*
X152101809Y-99917142D01*
X152054190Y-100012380D01*
X152006571Y-100202857D01*
X151958952Y-100298095D01*
X151911333Y-100345714D01*
X151816095Y-100393333D01*
X151720857Y-100393333D01*
X151625619Y-100345714D01*
X151578000Y-100298095D01*
X151530380Y-100202857D01*
X151530380Y-99964761D01*
X151578000Y-99821904D01*
X151530380Y-99488571D02*
X152530380Y-99250476D01*
X151816095Y-99060000D01*
X152530380Y-98869523D01*
X151530380Y-98631428D01*
X151530380Y-98345714D02*
X151530380Y-97726666D01*
X151911333Y-98060000D01*
X151911333Y-97917142D01*
X151958952Y-97821904D01*
X152006571Y-97774285D01*
X152101809Y-97726666D01*
X152339904Y-97726666D01*
X152435142Y-97774285D01*
X152482761Y-97821904D01*
X152530380Y-97917142D01*
X152530380Y-98202857D01*
X152482761Y-98298095D01*
X152435142Y-98345714D01*
X142322761Y-100393333D02*
X142370380Y-100250476D01*
X142370380Y-100012380D01*
X142322761Y-99917142D01*
X142275142Y-99869523D01*
X142179904Y-99821904D01*
X142084666Y-99821904D01*
X141989428Y-99869523D01*
X141941809Y-99917142D01*
X141894190Y-100012380D01*
X141846571Y-100202857D01*
X141798952Y-100298095D01*
X141751333Y-100345714D01*
X141656095Y-100393333D01*
X141560857Y-100393333D01*
X141465619Y-100345714D01*
X141418000Y-100298095D01*
X141370380Y-100202857D01*
X141370380Y-99964761D01*
X141418000Y-99821904D01*
X141370380Y-99488571D02*
X142370380Y-99250476D01*
X141656095Y-99060000D01*
X142370380Y-98869523D01*
X141370380Y-98631428D01*
X141465619Y-98298095D02*
X141418000Y-98250476D01*
X141370380Y-98155238D01*
X141370380Y-97917142D01*
X141418000Y-97821904D01*
X141465619Y-97774285D01*
X141560857Y-97726666D01*
X141656095Y-97726666D01*
X141798952Y-97774285D01*
X142370380Y-98345714D01*
X142370380Y-97726666D01*
X99240380Y-134699333D02*
X99954666Y-134699333D01*
X100097523Y-134746952D01*
X100192761Y-134842190D01*
X100240380Y-134985047D01*
X100240380Y-135080285D01*
X99335619Y-134270761D02*
X99288000Y-134223142D01*
X99240380Y-134127904D01*
X99240380Y-133889809D01*
X99288000Y-133794571D01*
X99335619Y-133746952D01*
X99430857Y-133699333D01*
X99526095Y-133699333D01*
X99668952Y-133746952D01*
X100240380Y-134318380D01*
X100240380Y-133699333D01*
X99864571Y-130516380D02*
X100055047Y-130516380D01*
X100150285Y-130564000D01*
X100245523Y-130659238D01*
X100293142Y-130849714D01*
X100293142Y-131183047D01*
X100245523Y-131373523D01*
X100150285Y-131468761D01*
X100055047Y-131516380D01*
X99864571Y-131516380D01*
X99769333Y-131468761D01*
X99674095Y-131373523D01*
X99626476Y-131183047D01*
X99626476Y-130849714D01*
X99674095Y-130659238D01*
X99769333Y-130564000D01*
X99864571Y-130516380D01*
X100864571Y-131516380D02*
X100769333Y-131468761D01*
X100721714Y-131373523D01*
X100721714Y-130516380D01*
X101626476Y-131468761D02*
X101531238Y-131516380D01*
X101340761Y-131516380D01*
X101245523Y-131468761D01*
X101197904Y-131373523D01*
X101197904Y-130992571D01*
X101245523Y-130897333D01*
X101340761Y-130849714D01*
X101531238Y-130849714D01*
X101626476Y-130897333D01*
X101674095Y-130992571D01*
X101674095Y-131087809D01*
X101197904Y-131183047D01*
X102531238Y-131516380D02*
X102531238Y-130516380D01*
X102531238Y-131468761D02*
X102436000Y-131516380D01*
X102245523Y-131516380D01*
X102150285Y-131468761D01*
X102102666Y-131421142D01*
X102055047Y-131325904D01*
X102055047Y-131040190D01*
X102102666Y-130944952D01*
X102150285Y-130897333D01*
X102245523Y-130849714D01*
X102436000Y-130849714D01*
X102531238Y-130897333D01*
X103959809Y-130516380D02*
X104055047Y-130516380D01*
X104150285Y-130564000D01*
X104197904Y-130611619D01*
X104245523Y-130706857D01*
X104293142Y-130897333D01*
X104293142Y-131135428D01*
X104245523Y-131325904D01*
X104197904Y-131421142D01*
X104150285Y-131468761D01*
X104055047Y-131516380D01*
X103959809Y-131516380D01*
X103864571Y-131468761D01*
X103816952Y-131421142D01*
X103769333Y-131325904D01*
X103721714Y-131135428D01*
X103721714Y-130897333D01*
X103769333Y-130706857D01*
X103816952Y-130611619D01*
X103864571Y-130564000D01*
X103959809Y-130516380D01*
X104721714Y-131421142D02*
X104769333Y-131468761D01*
X104721714Y-131516380D01*
X104674095Y-131468761D01*
X104721714Y-131421142D01*
X104721714Y-131516380D01*
X105245523Y-131516380D02*
X105436000Y-131516380D01*
X105531238Y-131468761D01*
X105578857Y-131421142D01*
X105674095Y-131278285D01*
X105721714Y-131087809D01*
X105721714Y-130706857D01*
X105674095Y-130611619D01*
X105626476Y-130564000D01*
X105531238Y-130516380D01*
X105340761Y-130516380D01*
X105245523Y-130564000D01*
X105197904Y-130611619D01*
X105150285Y-130706857D01*
X105150285Y-130944952D01*
X105197904Y-131040190D01*
X105245523Y-131087809D01*
X105340761Y-131135428D01*
X105531238Y-131135428D01*
X105626476Y-131087809D01*
X105674095Y-131040190D01*
X105721714Y-130944952D01*
X106674095Y-131516380D02*
X106102666Y-131516380D01*
X106388380Y-131516380D02*
X106388380Y-130516380D01*
X106293142Y-130659238D01*
X106197904Y-130754476D01*
X106102666Y-130802095D01*
X107055047Y-130516380D02*
X107055047Y-130706857D01*
X107436000Y-130516380D02*
X107436000Y-130706857D01*
X108483619Y-130849714D02*
X108864571Y-130849714D01*
X108626476Y-131516380D02*
X108626476Y-130659238D01*
X108674095Y-130564000D01*
X108769333Y-130516380D01*
X108864571Y-130516380D01*
X109578857Y-131468761D02*
X109483619Y-131516380D01*
X109293142Y-131516380D01*
X109197904Y-131468761D01*
X109150285Y-131373523D01*
X109150285Y-130992571D01*
X109197904Y-130897333D01*
X109293142Y-130849714D01*
X109483619Y-130849714D01*
X109578857Y-130897333D01*
X109626476Y-130992571D01*
X109626476Y-131087809D01*
X109150285Y-131183047D01*
X110055047Y-131516380D02*
X110055047Y-130849714D01*
X110055047Y-130944952D02*
X110102666Y-130897333D01*
X110197904Y-130849714D01*
X110340761Y-130849714D01*
X110436000Y-130897333D01*
X110483619Y-130992571D01*
X110483619Y-131516380D01*
X110483619Y-130992571D02*
X110531238Y-130897333D01*
X110626476Y-130849714D01*
X110769333Y-130849714D01*
X110864571Y-130897333D01*
X110912190Y-130992571D01*
X110912190Y-131516380D01*
X111816952Y-131516380D02*
X111816952Y-130992571D01*
X111769333Y-130897333D01*
X111674095Y-130849714D01*
X111483619Y-130849714D01*
X111388380Y-130897333D01*
X111816952Y-131468761D02*
X111721714Y-131516380D01*
X111483619Y-131516380D01*
X111388380Y-131468761D01*
X111340761Y-131373523D01*
X111340761Y-131278285D01*
X111388380Y-131183047D01*
X111483619Y-131135428D01*
X111721714Y-131135428D01*
X111816952Y-131087809D01*
X112436000Y-131516380D02*
X112340761Y-131468761D01*
X112293142Y-131373523D01*
X112293142Y-130516380D01*
X113197904Y-131468761D02*
X113102666Y-131516380D01*
X112912190Y-131516380D01*
X112816952Y-131468761D01*
X112769333Y-131373523D01*
X112769333Y-130992571D01*
X112816952Y-130897333D01*
X112912190Y-130849714D01*
X113102666Y-130849714D01*
X113197904Y-130897333D01*
X113245523Y-130992571D01*
X113245523Y-131087809D01*
X112769333Y-131183047D01*
X98384380Y-102020666D02*
X97908190Y-102354000D01*
X98384380Y-102592095D02*
X97384380Y-102592095D01*
X97384380Y-102211142D01*
X97432000Y-102115904D01*
X97479619Y-102068285D01*
X97574857Y-102020666D01*
X97717714Y-102020666D01*
X97812952Y-102068285D01*
X97860571Y-102115904D01*
X97908190Y-102211142D01*
X97908190Y-102592095D01*
X97479619Y-101639714D02*
X97432000Y-101592095D01*
X97384380Y-101496857D01*
X97384380Y-101258761D01*
X97432000Y-101163523D01*
X97479619Y-101115904D01*
X97574857Y-101068285D01*
X97670095Y-101068285D01*
X97812952Y-101115904D01*
X98384380Y-101687333D01*
X98384380Y-101068285D01*
X111573333Y-138533142D02*
X111525714Y-138580761D01*
X111382857Y-138628380D01*
X111287619Y-138628380D01*
X111144761Y-138580761D01*
X111049523Y-138485523D01*
X111001904Y-138390285D01*
X110954285Y-138199809D01*
X110954285Y-138056952D01*
X111001904Y-137866476D01*
X111049523Y-137771238D01*
X111144761Y-137676000D01*
X111287619Y-137628380D01*
X111382857Y-137628380D01*
X111525714Y-137676000D01*
X111573333Y-137723619D01*
X111954285Y-137723619D02*
X112001904Y-137676000D01*
X112097142Y-137628380D01*
X112335238Y-137628380D01*
X112430476Y-137676000D01*
X112478095Y-137723619D01*
X112525714Y-137818857D01*
X112525714Y-137914095D01*
X112478095Y-138056952D01*
X111906666Y-138628380D01*
X112525714Y-138628380D01*
X96353333Y-138279142D02*
X96305714Y-138326761D01*
X96162857Y-138374380D01*
X96067619Y-138374380D01*
X95924761Y-138326761D01*
X95829523Y-138231523D01*
X95781904Y-138136285D01*
X95734285Y-137945809D01*
X95734285Y-137802952D01*
X95781904Y-137612476D01*
X95829523Y-137517238D01*
X95924761Y-137422000D01*
X96067619Y-137374380D01*
X96162857Y-137374380D01*
X96305714Y-137422000D01*
X96353333Y-137469619D01*
X96686666Y-137374380D02*
X97305714Y-137374380D01*
X96972380Y-137755333D01*
X97115238Y-137755333D01*
X97210476Y-137802952D01*
X97258095Y-137850571D01*
X97305714Y-137945809D01*
X97305714Y-138183904D01*
X97258095Y-138279142D01*
X97210476Y-138326761D01*
X97115238Y-138374380D01*
X96829523Y-138374380D01*
X96734285Y-138326761D01*
X96686666Y-138279142D01*
X125232095Y-143177380D02*
X125232095Y-143986904D01*
X125279714Y-144082142D01*
X125327333Y-144129761D01*
X125422571Y-144177380D01*
X125613047Y-144177380D01*
X125708285Y-144129761D01*
X125755904Y-144082142D01*
X125803523Y-143986904D01*
X125803523Y-143177380D01*
X126184476Y-143177380D02*
X126803523Y-143177380D01*
X126470190Y-143558333D01*
X126613047Y-143558333D01*
X126708285Y-143605952D01*
X126755904Y-143653571D01*
X126803523Y-143748809D01*
X126803523Y-143986904D01*
X126755904Y-144082142D01*
X126708285Y-144129761D01*
X126613047Y-144177380D01*
X126327333Y-144177380D01*
X126232095Y-144129761D01*
X126184476Y-144082142D01*
X125690380Y-166893428D02*
X125690380Y-166226761D01*
X126690380Y-166655333D01*
X126023714Y-165417238D02*
X126690380Y-165417238D01*
X125642761Y-165655333D02*
X126357047Y-165893428D01*
X126357047Y-165274380D01*
X126690380Y-164417238D02*
X126690380Y-164893428D01*
X125690380Y-164893428D01*
X125690380Y-164226761D02*
X126690380Y-163893428D01*
X125690380Y-163560095D01*
X126595142Y-162655333D02*
X126642761Y-162702952D01*
X126690380Y-162845809D01*
X126690380Y-162941047D01*
X126642761Y-163083904D01*
X126547523Y-163179142D01*
X126452285Y-163226761D01*
X126261809Y-163274380D01*
X126118952Y-163274380D01*
X125928476Y-163226761D01*
X125833238Y-163179142D01*
X125738000Y-163083904D01*
X125690380Y-162941047D01*
X125690380Y-162845809D01*
X125738000Y-162702952D01*
X125785619Y-162655333D01*
X125785619Y-162274380D02*
X125738000Y-162226761D01*
X125690380Y-162131523D01*
X125690380Y-161893428D01*
X125738000Y-161798190D01*
X125785619Y-161750571D01*
X125880857Y-161702952D01*
X125976095Y-161702952D01*
X126118952Y-161750571D01*
X126690380Y-162322000D01*
X126690380Y-161702952D01*
X126023714Y-160845809D02*
X126690380Y-160845809D01*
X125642761Y-161083904D02*
X126357047Y-161322000D01*
X126357047Y-160702952D01*
X125690380Y-159845809D02*
X125690380Y-160322000D01*
X126166571Y-160369619D01*
X126118952Y-160322000D01*
X126071333Y-160226761D01*
X126071333Y-159988666D01*
X126118952Y-159893428D01*
X126166571Y-159845809D01*
X126261809Y-159798190D01*
X126499904Y-159798190D01*
X126595142Y-159845809D01*
X126642761Y-159893428D01*
X126690380Y-159988666D01*
X126690380Y-160226761D01*
X126642761Y-160322000D01*
X126595142Y-160369619D01*
X95133095Y-143304380D02*
X95133095Y-144113904D01*
X95180714Y-144209142D01*
X95228333Y-144256761D01*
X95323571Y-144304380D01*
X95514047Y-144304380D01*
X95609285Y-144256761D01*
X95656904Y-144209142D01*
X95704523Y-144113904D01*
X95704523Y-143304380D01*
X96133095Y-143399619D02*
X96180714Y-143352000D01*
X96275952Y-143304380D01*
X96514047Y-143304380D01*
X96609285Y-143352000D01*
X96656904Y-143399619D01*
X96704523Y-143494857D01*
X96704523Y-143590095D01*
X96656904Y-143732952D01*
X96085476Y-144304380D01*
X96704523Y-144304380D01*
X95347380Y-168163428D02*
X95347380Y-167496761D01*
X96347380Y-167925333D01*
X95680714Y-166687238D02*
X96347380Y-166687238D01*
X95299761Y-166925333D02*
X96014047Y-167163428D01*
X96014047Y-166544380D01*
X96347380Y-165687238D02*
X96347380Y-166163428D01*
X95347380Y-166163428D01*
X95347380Y-165496761D02*
X96347380Y-165163428D01*
X95347380Y-164830095D01*
X96252142Y-163925333D02*
X96299761Y-163972952D01*
X96347380Y-164115809D01*
X96347380Y-164211047D01*
X96299761Y-164353904D01*
X96204523Y-164449142D01*
X96109285Y-164496761D01*
X95918809Y-164544380D01*
X95775952Y-164544380D01*
X95585476Y-164496761D01*
X95490238Y-164449142D01*
X95395000Y-164353904D01*
X95347380Y-164211047D01*
X95347380Y-164115809D01*
X95395000Y-163972952D01*
X95442619Y-163925333D01*
X95442619Y-163544380D02*
X95395000Y-163496761D01*
X95347380Y-163401523D01*
X95347380Y-163163428D01*
X95395000Y-163068190D01*
X95442619Y-163020571D01*
X95537857Y-162972952D01*
X95633095Y-162972952D01*
X95775952Y-163020571D01*
X96347380Y-163592000D01*
X96347380Y-162972952D01*
X95680714Y-162115809D02*
X96347380Y-162115809D01*
X95299761Y-162353904D02*
X96014047Y-162592000D01*
X96014047Y-161972952D01*
X95347380Y-161115809D02*
X95347380Y-161592000D01*
X95823571Y-161639619D01*
X95775952Y-161592000D01*
X95728333Y-161496761D01*
X95728333Y-161258666D01*
X95775952Y-161163428D01*
X95823571Y-161115809D01*
X95918809Y-161068190D01*
X96156904Y-161068190D01*
X96252142Y-161115809D01*
X96299761Y-161163428D01*
X96347380Y-161258666D01*
X96347380Y-161496761D01*
X96299761Y-161592000D01*
X96252142Y-161639619D01*
X110500095Y-143172380D02*
X110500095Y-143981904D01*
X110547714Y-144077142D01*
X110595333Y-144124761D01*
X110690571Y-144172380D01*
X110881047Y-144172380D01*
X110976285Y-144124761D01*
X111023904Y-144077142D01*
X111071523Y-143981904D01*
X111071523Y-143172380D01*
X112071523Y-144172380D02*
X111500095Y-144172380D01*
X111785809Y-144172380D02*
X111785809Y-143172380D01*
X111690571Y-143315238D01*
X111595333Y-143410476D01*
X111500095Y-143458095D01*
X110714380Y-167655428D02*
X110714380Y-166988761D01*
X111714380Y-167417333D01*
X111047714Y-166179238D02*
X111714380Y-166179238D01*
X110666761Y-166417333D02*
X111381047Y-166655428D01*
X111381047Y-166036380D01*
X111714380Y-165179238D02*
X111714380Y-165655428D01*
X110714380Y-165655428D01*
X110714380Y-164988761D02*
X111714380Y-164655428D01*
X110714380Y-164322095D01*
X111619142Y-163417333D02*
X111666761Y-163464952D01*
X111714380Y-163607809D01*
X111714380Y-163703047D01*
X111666761Y-163845904D01*
X111571523Y-163941142D01*
X111476285Y-163988761D01*
X111285809Y-164036380D01*
X111142952Y-164036380D01*
X110952476Y-163988761D01*
X110857238Y-163941142D01*
X110762000Y-163845904D01*
X110714380Y-163703047D01*
X110714380Y-163607809D01*
X110762000Y-163464952D01*
X110809619Y-163417333D01*
X110809619Y-163036380D02*
X110762000Y-162988761D01*
X110714380Y-162893523D01*
X110714380Y-162655428D01*
X110762000Y-162560190D01*
X110809619Y-162512571D01*
X110904857Y-162464952D01*
X111000095Y-162464952D01*
X111142952Y-162512571D01*
X111714380Y-163084000D01*
X111714380Y-162464952D01*
X111047714Y-161607809D02*
X111714380Y-161607809D01*
X110666761Y-161845904D02*
X111381047Y-162084000D01*
X111381047Y-161464952D01*
X110714380Y-160607809D02*
X110714380Y-161084000D01*
X111190571Y-161131619D01*
X111142952Y-161084000D01*
X111095333Y-160988761D01*
X111095333Y-160750666D01*
X111142952Y-160655428D01*
X111190571Y-160607809D01*
X111285809Y-160560190D01*
X111523904Y-160560190D01*
X111619142Y-160607809D01*
X111666761Y-160655428D01*
X111714380Y-160750666D01*
X111714380Y-160988761D01*
X111666761Y-161084000D01*
X111619142Y-161131619D01*
X113117333Y-104734380D02*
X112784000Y-104258190D01*
X112545904Y-104734380D02*
X112545904Y-103734380D01*
X112926857Y-103734380D01*
X113022095Y-103782000D01*
X113069714Y-103829619D01*
X113117333Y-103924857D01*
X113117333Y-104067714D01*
X113069714Y-104162952D01*
X113022095Y-104210571D01*
X112926857Y-104258190D01*
X112545904Y-104258190D01*
X113974476Y-104067714D02*
X113974476Y-104734380D01*
X113736380Y-103686761D02*
X113498285Y-104401047D01*
X114117333Y-104401047D01*
X125817333Y-139031142D02*
X125769714Y-139078761D01*
X125626857Y-139126380D01*
X125531619Y-139126380D01*
X125388761Y-139078761D01*
X125293523Y-138983523D01*
X125245904Y-138888285D01*
X125198285Y-138697809D01*
X125198285Y-138554952D01*
X125245904Y-138364476D01*
X125293523Y-138269238D01*
X125388761Y-138174000D01*
X125531619Y-138126380D01*
X125626857Y-138126380D01*
X125769714Y-138174000D01*
X125817333Y-138221619D01*
X126769714Y-139126380D02*
X126198285Y-139126380D01*
X126484000Y-139126380D02*
X126484000Y-138126380D01*
X126388761Y-138269238D01*
X126293523Y-138364476D01*
X126198285Y-138412095D01*
X112696666Y-181722380D02*
X112696666Y-182436666D01*
X112649047Y-182579523D01*
X112553809Y-182674761D01*
X112410952Y-182722380D01*
X112315714Y-182722380D01*
X113696666Y-182722380D02*
X113125238Y-182722380D01*
X113410952Y-182722380D02*
X113410952Y-181722380D01*
X113315714Y-181865238D01*
X113220476Y-181960476D01*
X113125238Y-182008095D01*
X92484904Y-100147380D02*
X92484904Y-99147380D01*
X92723000Y-99147380D01*
X92865857Y-99195000D01*
X92961095Y-99290238D01*
X93008714Y-99385476D01*
X93056333Y-99575952D01*
X93056333Y-99718809D01*
X93008714Y-99909285D01*
X92961095Y-100004523D01*
X92865857Y-100099761D01*
X92723000Y-100147380D01*
X92484904Y-100147380D01*
X94008714Y-100147380D02*
X93437285Y-100147380D01*
X93723000Y-100147380D02*
X93723000Y-99147380D01*
X93627761Y-99290238D01*
X93532523Y-99385476D01*
X93437285Y-99433095D01*
D11*
X137426000Y-142644000D02*
X141466000Y-142644000D01*
X141466000Y-139804000D02*
X141466000Y-140429000D01*
X141466000Y-142019000D02*
X141466000Y-142644000D01*
X137426000Y-139804000D02*
X137426000Y-140429000D01*
X137426000Y-142019000D02*
X137426000Y-142644000D01*
X137426000Y-139804000D02*
X141466000Y-139804000D01*
X134052000Y-144660000D02*
X134052000Y-170300000D01*
X136542000Y-144720000D02*
X136542000Y-170240000D01*
X136542000Y-170240000D02*
X141842000Y-170240000D01*
X144332000Y-144660000D02*
X134052000Y-144660000D01*
X138192000Y-144720000D02*
X136542000Y-144720000D01*
X134052000Y-170300000D02*
X144332000Y-170300000D01*
X144332000Y-170300000D02*
X144332000Y-144660000D01*
X141842000Y-170240000D02*
X141842000Y-144720000D01*
X141842000Y-144720000D02*
X140192000Y-144720000D01*
X138192000Y-144720000D02*
G75*
G03*
X140192000Y-144720000I1000000J0D01*
G01*
X141112000Y-178466000D02*
X141112000Y-176626000D01*
X141112000Y-176626000D02*
X137272000Y-176626000D01*
X137272000Y-178466000D02*
X141112000Y-178466000D01*
X142062000Y-177546000D02*
X141112000Y-177546000D01*
X137272000Y-176626000D02*
X137272000Y-178466000D01*
X136322000Y-177546000D02*
X137272000Y-177546000D01*
X116154000Y-106172000D02*
X115204000Y-106172000D01*
X111364000Y-107092000D02*
X115204000Y-107092000D01*
X115204000Y-105252000D02*
X111364000Y-105252000D01*
X111364000Y-105252000D02*
X111364000Y-107092000D01*
X110414000Y-106172000D02*
X111364000Y-106172000D01*
X115204000Y-107092000D02*
X115204000Y-105252000D01*
X100330000Y-98984000D02*
X100330000Y-99934000D01*
X99410000Y-99934000D02*
X99410000Y-103774000D01*
X100330000Y-104724000D02*
X100330000Y-103774000D01*
X101250000Y-103774000D02*
X101250000Y-99934000D01*
X101250000Y-99934000D02*
X99410000Y-99934000D01*
X99410000Y-103774000D02*
X101250000Y-103774000D01*
D10*
X149606000Y-121920000D02*
X148336000Y-121920000D01*
X87376000Y-127000000D02*
X87376000Y-109220000D01*
X135106000Y-124211600D02*
X135106000Y-118211600D01*
X112776000Y-124460000D02*
X125476000Y-124460000D01*
X148336000Y-109220000D02*
X148336000Y-127000000D01*
X143256000Y-114300000D02*
X148336000Y-114300000D01*
X87376000Y-124460000D02*
X100076000Y-124460000D01*
X100076000Y-111760000D02*
X87376000Y-111760000D01*
X143256000Y-114300000D02*
X143256000Y-121920000D01*
X125476000Y-111760000D02*
X112776000Y-111760000D01*
X100076000Y-124460000D02*
X100076000Y-111760000D01*
X103886000Y-119380000D02*
X103886000Y-116840000D01*
X143256000Y-121920000D02*
X148336000Y-121920000D01*
X125476000Y-124460000D02*
X125476000Y-111760000D01*
X103886000Y-116840000D02*
X107696000Y-116840000D01*
X148336000Y-127000000D02*
X87376000Y-127000000D01*
X142036800Y-112270800D02*
X142036800Y-114810800D01*
X87376000Y-123190000D02*
X88646000Y-123190000D01*
X131106000Y-124461600D02*
X135106000Y-124461600D01*
X87376000Y-109220000D02*
X148336000Y-109220000D01*
X142036800Y-114810800D02*
X129336800Y-114810800D01*
X88646000Y-123190000D02*
X88646000Y-113030000D01*
X112776000Y-111760000D02*
X112776000Y-124460000D01*
X135106000Y-124461600D02*
X135106000Y-124211600D01*
X139496800Y-114810800D02*
X139496800Y-112270800D01*
X129336800Y-114810800D02*
X129336800Y-112270800D01*
X88646000Y-113030000D02*
X87376000Y-113030000D01*
X131106000Y-118211600D02*
X131106000Y-124461600D01*
X148336000Y-114300000D02*
X149606000Y-114300000D01*
X149606000Y-114300000D02*
X149606000Y-121920000D01*
X135106000Y-118211600D02*
X131106000Y-118211600D01*
X129336800Y-112270800D02*
X142036800Y-112270800D01*
X107696000Y-119380000D02*
X103886000Y-119380000D01*
X142036800Y-114810800D02*
X139496800Y-114810800D01*
X107696000Y-116840000D02*
X107696000Y-119380000D01*
X106689026Y-118110000D02*
G75*
G03*
X106689026Y-118110000I-898026J0D01*
G01*
G36*
X116691000Y-117909000D02*
G01*
X116437000Y-118163000D01*
X116183000Y-117782000D01*
X116437000Y-117528000D01*
X116691000Y-117909000D01*
G37*
D12*
X116691000Y-117909000D02*
X116437000Y-118163000D01*
X116183000Y-117782000D01*
X116437000Y-117528000D01*
X116691000Y-117909000D01*
G36*
X116691000Y-118798000D02*
G01*
X116437000Y-119052000D01*
X116183000Y-118671000D01*
X116437000Y-118417000D01*
X116691000Y-118798000D01*
G37*
X116691000Y-118798000D02*
X116437000Y-119052000D01*
X116183000Y-118671000D01*
X116437000Y-118417000D01*
X116691000Y-118798000D01*
G36*
X115167000Y-118544000D02*
G01*
X114913000Y-118798000D01*
X114659000Y-118417000D01*
X114913000Y-118163000D01*
X115167000Y-118544000D01*
G37*
X115167000Y-118544000D02*
X114913000Y-118798000D01*
X114659000Y-118417000D01*
X114913000Y-118163000D01*
X115167000Y-118544000D01*
G36*
X116310000Y-118290000D02*
G01*
X116056000Y-118544000D01*
X115802000Y-118163000D01*
X116056000Y-117909000D01*
X116310000Y-118290000D01*
G37*
X116310000Y-118290000D02*
X116056000Y-118544000D01*
X115802000Y-118163000D01*
X116056000Y-117909000D01*
X116310000Y-118290000D01*
G36*
X115548000Y-118163000D02*
G01*
X115294000Y-118417000D01*
X115040000Y-118036000D01*
X115294000Y-117782000D01*
X115548000Y-118163000D01*
G37*
X115548000Y-118163000D02*
X115294000Y-118417000D01*
X115040000Y-118036000D01*
X115294000Y-117782000D01*
X115548000Y-118163000D01*
G36*
X117072000Y-118417000D02*
G01*
X116818000Y-118671000D01*
X116564000Y-118290000D01*
X116818000Y-118036000D01*
X117072000Y-118417000D01*
G37*
X117072000Y-118417000D02*
X116818000Y-118671000D01*
X116564000Y-118290000D01*
X116818000Y-118036000D01*
X117072000Y-118417000D01*
G36*
X117453000Y-118925000D02*
G01*
X117199000Y-119179000D01*
X116945000Y-118798000D01*
X117199000Y-118544000D01*
X117453000Y-118925000D01*
G37*
X117453000Y-118925000D02*
X117199000Y-119179000D01*
X116945000Y-118798000D01*
X117199000Y-118544000D01*
X117453000Y-118925000D01*
G36*
X115929000Y-117782000D02*
G01*
X115675000Y-118036000D01*
X115421000Y-117655000D01*
X115675000Y-117401000D01*
X115929000Y-117782000D01*
G37*
X115929000Y-117782000D02*
X115675000Y-118036000D01*
X115421000Y-117655000D01*
X115675000Y-117401000D01*
X115929000Y-117782000D01*
D11*
X87848000Y-105982000D02*
X87848000Y-106138000D01*
X87848000Y-103666000D02*
X87848000Y-103822000D01*
X87848000Y-106137516D02*
G75*
G03*
X91080335Y-105980608I1560000J1235516D01*
G01*
X88367039Y-105982000D02*
G75*
G03*
X90449130Y-105981837I1040961J1080000D01*
G01*
X90449130Y-103822163D02*
G75*
G03*
X88367039Y-103822000I-1041130J-1079837D01*
G01*
X91080335Y-103823392D02*
G75*
G03*
X87848000Y-103666484I-1672335J-1078608D01*
G01*
X128258000Y-95560000D02*
X126758000Y-95560000D01*
X130758000Y-101310000D02*
X130758000Y-96810000D01*
X126758000Y-102560000D02*
X128258000Y-102560000D01*
X124258000Y-96810000D02*
X124258000Y-101310000D01*
X110414000Y-98298000D02*
X111364000Y-98298000D01*
X116154000Y-98298000D02*
X115204000Y-98298000D01*
X111364000Y-99218000D02*
X115204000Y-99218000D01*
X115204000Y-97378000D02*
X111364000Y-97378000D01*
X115204000Y-99218000D02*
X115204000Y-97378000D01*
X111364000Y-97378000D02*
X111364000Y-99218000D01*
X147078000Y-102560000D02*
X148578000Y-102560000D01*
X144578000Y-96810000D02*
X144578000Y-101310000D01*
X151078000Y-101310000D02*
X151078000Y-96810000D01*
X148578000Y-95560000D02*
X147078000Y-95560000D01*
X138418000Y-95560000D02*
X136918000Y-95560000D01*
X134418000Y-96810000D02*
X134418000Y-101310000D01*
X136918000Y-102560000D02*
X138418000Y-102560000D01*
X140918000Y-101310000D02*
X140918000Y-96810000D01*
X111068000Y-135696000D02*
X111068000Y-133036000D01*
X103388000Y-135696000D02*
X111068000Y-135696000D01*
X102118000Y-135696000D02*
X100788000Y-135696000D01*
X103388000Y-135696000D02*
X103388000Y-133036000D01*
X100788000Y-135696000D02*
X100788000Y-134366000D01*
X103388000Y-133036000D02*
X111068000Y-133036000D01*
X95092000Y-99934000D02*
X95092000Y-103774000D01*
X96932000Y-103774000D02*
X96932000Y-99934000D01*
X96012000Y-104724000D02*
X96012000Y-103774000D01*
X95092000Y-103774000D02*
X96932000Y-103774000D01*
X96012000Y-98984000D02*
X96012000Y-99934000D01*
X96932000Y-99934000D02*
X95092000Y-99934000D01*
X113526000Y-142644000D02*
X113526000Y-142019000D01*
X113526000Y-139804000D02*
X109486000Y-139804000D01*
X109486000Y-140429000D02*
X109486000Y-139804000D01*
X113526000Y-140429000D02*
X113526000Y-139804000D01*
X113526000Y-142644000D02*
X109486000Y-142644000D01*
X109486000Y-142644000D02*
X109486000Y-142019000D01*
X94012000Y-139921000D02*
X94012000Y-139296000D01*
X98052000Y-142136000D02*
X94012000Y-142136000D01*
X94012000Y-142136000D02*
X94012000Y-141511000D01*
X98052000Y-139296000D02*
X94012000Y-139296000D01*
X98052000Y-142136000D02*
X98052000Y-141511000D01*
X98052000Y-139921000D02*
X98052000Y-139296000D01*
X128644000Y-144725000D02*
X126994000Y-144725000D01*
X123344000Y-170245000D02*
X128644000Y-170245000D01*
X120854000Y-170305000D02*
X131134000Y-170305000D01*
X131134000Y-170305000D02*
X131134000Y-144665000D01*
X120854000Y-144665000D02*
X120854000Y-170305000D01*
X124994000Y-144725000D02*
X123344000Y-144725000D01*
X128644000Y-170245000D02*
X128644000Y-144725000D01*
X123344000Y-144725000D02*
X123344000Y-170245000D01*
X131134000Y-144665000D02*
X120854000Y-144665000D01*
X124994000Y-144725000D02*
G75*
G03*
X126994000Y-144725000I1000000J0D01*
G01*
X98545000Y-170372000D02*
X98545000Y-144852000D01*
X94895000Y-144852000D02*
X93245000Y-144852000D01*
X93245000Y-144852000D02*
X93245000Y-170372000D01*
X101035000Y-144792000D02*
X90755000Y-144792000D01*
X98545000Y-144852000D02*
X96895000Y-144852000D01*
X90755000Y-144792000D02*
X90755000Y-170432000D01*
X93245000Y-170372000D02*
X98545000Y-170372000D01*
X101035000Y-170432000D02*
X101035000Y-144792000D01*
X90755000Y-170432000D02*
X101035000Y-170432000D01*
X94895000Y-144852000D02*
G75*
G03*
X96895000Y-144852000I1000000J0D01*
G01*
X108612000Y-170240000D02*
X113912000Y-170240000D01*
X113912000Y-170240000D02*
X113912000Y-144720000D01*
X116402000Y-144660000D02*
X106122000Y-144660000D01*
X116402000Y-170300000D02*
X116402000Y-144660000D01*
X106122000Y-170300000D02*
X116402000Y-170300000D01*
X110262000Y-144720000D02*
X108612000Y-144720000D01*
X106122000Y-144660000D02*
X106122000Y-170300000D01*
X113912000Y-144720000D02*
X112262000Y-144720000D01*
X108612000Y-144720000D02*
X108612000Y-170240000D01*
X110262000Y-144720000D02*
G75*
G03*
X112262000Y-144720000I1000000J0D01*
G01*
X115204000Y-101442000D02*
X111364000Y-101442000D01*
X116154000Y-102362000D02*
X115204000Y-102362000D01*
X111364000Y-101442000D02*
X111364000Y-103282000D01*
X111364000Y-103282000D02*
X115204000Y-103282000D01*
X115204000Y-103282000D02*
X115204000Y-101442000D01*
X110414000Y-102362000D02*
X111364000Y-102362000D01*
X123964000Y-142019000D02*
X123964000Y-142644000D01*
X123964000Y-139804000D02*
X128004000Y-139804000D01*
X128004000Y-142019000D02*
X128004000Y-142644000D01*
X123964000Y-139804000D02*
X123964000Y-140429000D01*
X128004000Y-139804000D02*
X128004000Y-140429000D01*
X123964000Y-142644000D02*
X128004000Y-142644000D01*
X87848000Y-97824000D02*
X87848000Y-97980000D01*
X87848000Y-100140000D02*
X87848000Y-100296000D01*
X90449130Y-97980163D02*
G75*
G03*
X88367039Y-97980000I-1041130J-1079837D01*
G01*
X88367039Y-100140000D02*
G75*
G03*
X90449130Y-100139837I1040961J1080000D01*
G01*
X91080335Y-97981392D02*
G75*
G03*
X87848000Y-97824484I-1672335J-1078608D01*
G01*
X87848000Y-100295516D02*
G75*
G03*
X91080335Y-100138608I1560000J1235516D01*
G01*
%LPC*%
D13*
X138196000Y-141224000D03*
X140696000Y-141224000D03*
D14*
X135382000Y-146050000D03*
D15*
X135382000Y-148590000D03*
X135382000Y-151130000D03*
X135382000Y-153670000D03*
X135382000Y-156210000D03*
X135382000Y-158750000D03*
X135382000Y-161290000D03*
X135382000Y-163830000D03*
X135382000Y-166370000D03*
X135382000Y-168910000D03*
X143002000Y-168910000D03*
X143002000Y-166370000D03*
X143002000Y-163830000D03*
X143002000Y-161290000D03*
X143002000Y-158750000D03*
X143002000Y-156210000D03*
X143002000Y-153670000D03*
X143002000Y-151130000D03*
X143002000Y-148590000D03*
X143002000Y-146050000D03*
D16*
X135382000Y-177546000D03*
D17*
X143002000Y-177546000D03*
D16*
X117094000Y-106172000D03*
D17*
X109474000Y-106172000D03*
D16*
X100330000Y-98044000D03*
D17*
X100330000Y-105664000D03*
D14*
X147066000Y-110490000D03*
D13*
X144526000Y-110490000D03*
X141986000Y-110490000D03*
X139446000Y-110490000D03*
X136906000Y-110490000D03*
X134366000Y-110490000D03*
X131826000Y-110490000D03*
X129286000Y-110490000D03*
X126746000Y-110490000D03*
X124206000Y-110490000D03*
X121666000Y-110490000D03*
X119126000Y-110490000D03*
X116586000Y-110490000D03*
X114046000Y-110490000D03*
X111506000Y-110490000D03*
X108966000Y-110490000D03*
X106426000Y-110490000D03*
X103886000Y-110490000D03*
X101346000Y-110490000D03*
X98806000Y-110490000D03*
X96266000Y-110490000D03*
X93726000Y-110490000D03*
X91186000Y-110490000D03*
X88646000Y-110490000D03*
X88646000Y-125730000D03*
X91186000Y-125730000D03*
X93726000Y-125730000D03*
X96266000Y-125730000D03*
X98806000Y-125730000D03*
X101346000Y-125730000D03*
X103886000Y-125730000D03*
X106426000Y-125730000D03*
X108966000Y-125730000D03*
X111506000Y-125730000D03*
X114046000Y-125730000D03*
X116586000Y-125730000D03*
X119126000Y-125730000D03*
X121666000Y-125730000D03*
X124206000Y-125730000D03*
X126746000Y-125730000D03*
X129286000Y-125730000D03*
X131826000Y-125730000D03*
X134366000Y-125730000D03*
X136906000Y-125730000D03*
X139446000Y-125730000D03*
X141986000Y-125730000D03*
X144526000Y-125730000D03*
X147066000Y-125730000D03*
X144526000Y-123190000D03*
X101346000Y-113030000D03*
X101346000Y-115570000D03*
X101346000Y-118110000D03*
X101346000Y-120650000D03*
X101346000Y-123190000D03*
D14*
X140766800Y-113540800D03*
D13*
X138226800Y-113540800D03*
X135686800Y-113540800D03*
X133146800Y-113540800D03*
X130606800Y-113540800D03*
D18*
X134096000Y-123291600D03*
D19*
X134096000Y-121291600D03*
X134096000Y-119291600D03*
X132096000Y-119291600D03*
X132096000Y-121291600D03*
X132096000Y-123291600D03*
X146336000Y-119380000D03*
X146336000Y-116840000D03*
D20*
X88138000Y-104902000D03*
D21*
X90678000Y-104902000D03*
D22*
X129758000Y-102310000D03*
X129758000Y-95810000D03*
X125258000Y-95810000D03*
X125258000Y-102310000D03*
D16*
X117094000Y-98298000D03*
D17*
X109474000Y-98298000D03*
D22*
X150078000Y-95810000D03*
X150078000Y-102310000D03*
X145578000Y-95810000D03*
X145578000Y-102310000D03*
X139918000Y-102310000D03*
X139918000Y-95810000D03*
X135418000Y-102310000D03*
X135418000Y-95810000D03*
D23*
X102118000Y-134366000D03*
D24*
X104658000Y-134366000D03*
X107198000Y-134366000D03*
X109738000Y-134366000D03*
D16*
X96012000Y-98044000D03*
D17*
X96012000Y-105664000D03*
D13*
X112756000Y-141224000D03*
X110256000Y-141224000D03*
X97282000Y-140716000D03*
X94782000Y-140716000D03*
D14*
X122184000Y-146055000D03*
D15*
X122184000Y-148595000D03*
X122184000Y-151135000D03*
X122184000Y-153675000D03*
X122184000Y-156215000D03*
X122184000Y-158755000D03*
X122184000Y-161295000D03*
X122184000Y-163835000D03*
X122184000Y-166375000D03*
X122184000Y-168915000D03*
X129804000Y-168915000D03*
X129804000Y-166375000D03*
X129804000Y-163835000D03*
X129804000Y-161295000D03*
X129804000Y-158755000D03*
X129804000Y-156215000D03*
X129804000Y-153675000D03*
X129804000Y-151135000D03*
X129804000Y-148595000D03*
X129804000Y-146055000D03*
D14*
X92085000Y-146182000D03*
D15*
X92085000Y-148722000D03*
X92085000Y-151262000D03*
X92085000Y-153802000D03*
X92085000Y-156342000D03*
X92085000Y-158882000D03*
X92085000Y-161422000D03*
X92085000Y-163962000D03*
X92085000Y-166502000D03*
X92085000Y-169042000D03*
X99705000Y-169042000D03*
X99705000Y-166502000D03*
X99705000Y-163962000D03*
X99705000Y-161422000D03*
X99705000Y-158882000D03*
X99705000Y-156342000D03*
X99705000Y-153802000D03*
X99705000Y-151262000D03*
X99705000Y-148722000D03*
X99705000Y-146182000D03*
D14*
X107452000Y-146050000D03*
D15*
X107452000Y-148590000D03*
X107452000Y-151130000D03*
X107452000Y-153670000D03*
X107452000Y-156210000D03*
X107452000Y-158750000D03*
X107452000Y-161290000D03*
X107452000Y-163830000D03*
X107452000Y-166370000D03*
X107452000Y-168910000D03*
X115072000Y-168910000D03*
X115072000Y-166370000D03*
X115072000Y-163830000D03*
X115072000Y-161290000D03*
X115072000Y-158750000D03*
X115072000Y-156210000D03*
X115072000Y-153670000D03*
X115072000Y-151130000D03*
X115072000Y-148590000D03*
X115072000Y-146050000D03*
D16*
X117094000Y-102362000D03*
D17*
X109474000Y-102362000D03*
D13*
X124734000Y-141224000D03*
X127234000Y-141224000D03*
D25*
X144665700Y-187960000D03*
X142125700Y-187960000D03*
X139585700Y-187960000D03*
X137045700Y-187960000D03*
X134505700Y-187960000D03*
X131965700Y-187960000D03*
X129425700Y-187960000D03*
X126885700Y-187960000D03*
X124345700Y-187960000D03*
X121805700Y-187960000D03*
X119265700Y-187960000D03*
X116725700Y-187960000D03*
X114185700Y-187960000D03*
X111645700Y-187960000D03*
X109105700Y-187960000D03*
X106565700Y-187960000D03*
X104025700Y-187960000D03*
X101485700Y-187960000D03*
X98945700Y-187960000D03*
X96405700Y-187960000D03*
X93865700Y-187960000D03*
X91325700Y-187960000D03*
D20*
X88138000Y-99060000D03*
D21*
X90678000Y-99060000D03*
M02*
