M48
; DRILL file {KiCad (6.0.6)} date Wed Jan 25 21:08:41 2023
; FORMAT={-:-/ absolute / metric / decimal}
; #@! TF.CreationDate,2023-01-25T21:08:41+01:00
; #@! TF.GenerationSoftware,Kicad,Pcbnew,(6.0.6)
; #@! TF.FileFunction,Plated,1,2,PTH
FMAT,2
METRIC
; #@! TA.AperFunction,Plated,PTH,ViaDrill
T1C0.400
; #@! TA.AperFunction,Plated,PTH,ComponentDrill
T2C0.700
; #@! TA.AperFunction,Plated,PTH,ComponentDrill
T3C0.800
; #@! TA.AperFunction,Plated,PTH,ComponentDrill
T4C0.900
; #@! TA.AperFunction,Plated,PTH,ComponentDrill
T5C1.000
; #@! TA.AperFunction,Plated,PTH,ComponentDrill
T6C1.100
%
G90
G05
T1
X92.141Y-182.063
X95.1Y-120.158
X101.753Y-158.683
X102.232Y-138.899
X104.39Y-159.564
X105.871Y-182.447
X106.616Y-170.489
X107.215Y-172.113
X107.537Y-178.951
X107.603Y-177.951
X108.129Y-177.061
X108.91Y-165.764
X109.862Y-182.523
X110.475Y-159.47
X111.941Y-163.91
T2
X96.012Y-98.044
X96.012Y-105.664
X100.33Y-98.044
X100.33Y-105.664
X109.474Y-98.298
X109.474Y-102.362
X109.474Y-106.172
X117.094Y-98.298
X117.094Y-102.362
X117.094Y-106.172
X135.382Y-177.546
X143.002Y-177.546
T3
X92.085Y-146.182
X92.085Y-148.722
X92.085Y-151.262
X92.085Y-153.802
X92.085Y-156.342
X92.085Y-158.882
X92.085Y-161.422
X92.085Y-163.962
X92.085Y-166.502
X92.085Y-169.042
X94.782Y-140.716
X97.282Y-140.716
X99.705Y-146.182
X99.705Y-148.722
X99.705Y-151.262
X99.705Y-153.802
X99.705Y-156.342
X99.705Y-158.882
X99.705Y-161.422
X99.705Y-163.962
X99.705Y-166.502
X99.705Y-169.042
X107.452Y-146.05
X107.452Y-148.59
X107.452Y-151.13
X107.452Y-153.67
X107.452Y-156.21
X107.452Y-158.75
X107.452Y-161.29
X107.452Y-163.83
X107.452Y-166.37
X107.452Y-168.91
X110.256Y-141.224
X112.756Y-141.224
X115.072Y-146.05
X115.072Y-148.59
X115.072Y-151.13
X115.072Y-153.67
X115.072Y-156.21
X115.072Y-158.75
X115.072Y-161.29
X115.072Y-163.83
X115.072Y-166.37
X115.072Y-168.91
X122.184Y-146.055
X122.184Y-148.595
X122.184Y-151.135
X122.184Y-153.675
X122.184Y-156.215
X122.184Y-158.755
X122.184Y-161.295
X122.184Y-163.835
X122.184Y-166.375
X122.184Y-168.915
X124.734Y-141.224
X127.234Y-141.224
X129.804Y-146.055
X129.804Y-148.595
X129.804Y-151.135
X129.804Y-153.675
X129.804Y-156.215
X129.804Y-158.755
X129.804Y-161.295
X129.804Y-163.835
X129.804Y-166.375
X129.804Y-168.915
X132.096Y-119.292
X132.096Y-121.292
X132.096Y-123.292
X134.096Y-119.292
X134.096Y-121.292
X134.096Y-123.292
X135.382Y-146.05
X135.382Y-148.59
X135.382Y-151.13
X135.382Y-153.67
X135.382Y-156.21
X135.382Y-158.75
X135.382Y-161.29
X135.382Y-163.83
X135.382Y-166.37
X135.382Y-168.91
X138.196Y-141.224
X140.696Y-141.224
X143.002Y-146.05
X143.002Y-148.59
X143.002Y-151.13
X143.002Y-153.67
X143.002Y-156.21
X143.002Y-158.75
X143.002Y-161.29
X143.002Y-163.83
X143.002Y-166.37
X143.002Y-168.91
X146.336Y-116.84
X146.336Y-119.38
T4
X88.138Y-99.06
X88.138Y-104.902
X90.678Y-99.06
X90.678Y-104.902
T5
X102.118Y-134.366
X104.658Y-134.366
X107.198Y-134.366
X109.738Y-134.366
T6
X88.646Y-110.49
X88.646Y-125.73
X91.186Y-110.49
X91.186Y-125.73
X93.726Y-110.49
X93.726Y-125.73
X96.266Y-110.49
X96.266Y-125.73
X98.806Y-110.49
X98.806Y-125.73
X101.346Y-110.49
X101.346Y-113.03
X101.346Y-115.57
X101.346Y-118.11
X101.346Y-120.65
X101.346Y-123.19
X101.346Y-125.73
X103.886Y-110.49
X103.886Y-125.73
X106.426Y-110.49
X106.426Y-125.73
X108.966Y-110.49
X108.966Y-125.73
X111.506Y-110.49
X111.506Y-125.73
X114.046Y-110.49
X114.046Y-125.73
X116.586Y-110.49
X116.586Y-125.73
X119.126Y-110.49
X119.126Y-125.73
X121.666Y-110.49
X121.666Y-125.73
X124.206Y-110.49
X124.206Y-125.73
X125.258Y-95.81
X125.258Y-102.31
X126.746Y-110.49
X126.746Y-125.73
X129.286Y-110.49
X129.286Y-125.73
X129.758Y-95.81
X129.758Y-102.31
X130.607Y-113.541
X131.826Y-110.49
X131.826Y-125.73
X133.147Y-113.541
X134.366Y-110.49
X134.366Y-125.73
X135.418Y-95.81
X135.418Y-102.31
X135.687Y-113.541
X136.906Y-110.49
X136.906Y-125.73
X138.227Y-113.541
X139.446Y-110.49
X139.446Y-125.73
X139.918Y-95.81
X139.918Y-102.31
X140.767Y-113.541
X141.986Y-110.49
X141.986Y-125.73
X144.526Y-110.49
X144.526Y-123.19
X144.526Y-125.73
X145.578Y-95.81
X145.578Y-102.31
X147.066Y-110.49
X147.066Y-125.73
X150.078Y-95.81
X150.078Y-102.31
T0
M30
