%FSLAX45Y45*%
G04 Gerber Fmt 4.5, Leading zero omitted, Abs format (unit mm)*
G04 Created by KiCad (PCBNEW (6.0.6)) date 2023-01-06 14:08:37*
%MOMM*%
%LPD*%
G01*
G04 APERTURE LIST*
%TA.AperFunction,Profile*%
%ADD10C,0.100000*%
%TD*%
%ADD11C,0.200000*%
G04 APERTURE END LIST*
D10*
X14709140Y-18354000D02*
X14709140Y-7800000D01*
X9763696Y-13367000D02*
G75*
G03*
X9763696Y-13367000I-268830J0D01*
G01*
X8890000Y-7800000D02*
X14709140Y-7800000D01*
X14373104Y-13367000D02*
G75*
G03*
X14373104Y-13367000I-268830J0D01*
G01*
X8890000Y-18354000D02*
X8890000Y-7800000D01*
D11*
X9141619Y-19554476D02*
X9141619Y-19354476D01*
X9189238Y-19354476D01*
X9217810Y-19364000D01*
X9236857Y-19383048D01*
X9246381Y-19402095D01*
X9255905Y-19440190D01*
X9255905Y-19468762D01*
X9246381Y-19506857D01*
X9236857Y-19525905D01*
X9217810Y-19544952D01*
X9189238Y-19554476D01*
X9141619Y-19554476D01*
X9341619Y-19554476D02*
X9341619Y-19421143D01*
X9341619Y-19459238D02*
X9351143Y-19440190D01*
X9360667Y-19430667D01*
X9379714Y-19421143D01*
X9398762Y-19421143D01*
X9465429Y-19554476D02*
X9465429Y-19421143D01*
X9465429Y-19354476D02*
X9455905Y-19364000D01*
X9465429Y-19373524D01*
X9474952Y-19364000D01*
X9465429Y-19354476D01*
X9465429Y-19373524D01*
X9589238Y-19554476D02*
X9570190Y-19544952D01*
X9560667Y-19525905D01*
X9560667Y-19354476D01*
X9694000Y-19554476D02*
X9674952Y-19544952D01*
X9665429Y-19525905D01*
X9665429Y-19354476D01*
X9922571Y-19554476D02*
X9922571Y-19354476D01*
X9989238Y-19497333D01*
X10055905Y-19354476D01*
X10055905Y-19554476D01*
X10236857Y-19554476D02*
X10236857Y-19449714D01*
X10227333Y-19430667D01*
X10208286Y-19421143D01*
X10170190Y-19421143D01*
X10151143Y-19430667D01*
X10236857Y-19544952D02*
X10217810Y-19554476D01*
X10170190Y-19554476D01*
X10151143Y-19544952D01*
X10141619Y-19525905D01*
X10141619Y-19506857D01*
X10151143Y-19487810D01*
X10170190Y-19478286D01*
X10217810Y-19478286D01*
X10236857Y-19468762D01*
X10332095Y-19421143D02*
X10332095Y-19621143D01*
X10332095Y-19430667D02*
X10351143Y-19421143D01*
X10389238Y-19421143D01*
X10408286Y-19430667D01*
X10417810Y-19440190D01*
X10427333Y-19459238D01*
X10427333Y-19516381D01*
X10417810Y-19535429D01*
X10408286Y-19544952D01*
X10389238Y-19554476D01*
X10351143Y-19554476D01*
X10332095Y-19544952D01*
X10513048Y-19535429D02*
X10522571Y-19544952D01*
X10513048Y-19554476D01*
X10503524Y-19544952D01*
X10513048Y-19535429D01*
X10513048Y-19554476D01*
X10513048Y-19430667D02*
X10522571Y-19440190D01*
X10513048Y-19449714D01*
X10503524Y-19440190D01*
X10513048Y-19430667D01*
X10513048Y-19449714D01*
M02*
