%FSLAX45Y45*%
G04 Gerber Fmt 4.5, Leading zero omitted, Abs format (unit mm)*
G04 Created by KiCad (PCBNEW (6.0.6)) date 2023-01-29 14:58:59*
%MOMM*%
%LPD*%
G01*
G04 APERTURE LIST*
%TA.AperFunction,Profile*%
%ADD10C,0.100000*%
%TD*%
%ADD11C,0.200000*%
G04 APERTURE END LIST*
D10*
X14709140Y-18313400D02*
X14709140Y-13055600D01*
X9763696Y-13367000D02*
G75*
G03*
X9763696Y-13367000I-268830J0D01*
G01*
X8483600Y-9347200D02*
X8483600Y-12420600D01*
X14373104Y-13367000D02*
G75*
G03*
X14373104Y-13367000I-268830J0D01*
G01*
X8890000Y-18354000D02*
X8890000Y-13030200D01*
X14709140Y-18354000D02*
X14709140Y-18313400D01*
X14709140Y-13055600D02*
X15290800Y-12446000D01*
X15290800Y-9347200D02*
X8483600Y-9347200D01*
X15290800Y-12446000D02*
X15290800Y-9347200D01*
X8483600Y-12420600D02*
X8890000Y-13030200D01*
D11*
X8736219Y-19554476D02*
X8736219Y-19354476D01*
X8783838Y-19354476D01*
X8812410Y-19364000D01*
X8831457Y-19383048D01*
X8840981Y-19402095D01*
X8850505Y-19440190D01*
X8850505Y-19468762D01*
X8840981Y-19506857D01*
X8831457Y-19525905D01*
X8812410Y-19544952D01*
X8783838Y-19554476D01*
X8736219Y-19554476D01*
X8936219Y-19554476D02*
X8936219Y-19421143D01*
X8936219Y-19459238D02*
X8945743Y-19440190D01*
X8955267Y-19430667D01*
X8974314Y-19421143D01*
X8993362Y-19421143D01*
X9060029Y-19554476D02*
X9060029Y-19421143D01*
X9060029Y-19354476D02*
X9050505Y-19364000D01*
X9060029Y-19373524D01*
X9069552Y-19364000D01*
X9060029Y-19354476D01*
X9060029Y-19373524D01*
X9183838Y-19554476D02*
X9164790Y-19544952D01*
X9155267Y-19525905D01*
X9155267Y-19354476D01*
X9288600Y-19554476D02*
X9269552Y-19544952D01*
X9260029Y-19525905D01*
X9260029Y-19354476D01*
X9517171Y-19554476D02*
X9517171Y-19354476D01*
X9583838Y-19497333D01*
X9650505Y-19354476D01*
X9650505Y-19554476D01*
X9831457Y-19554476D02*
X9831457Y-19449714D01*
X9821933Y-19430667D01*
X9802886Y-19421143D01*
X9764790Y-19421143D01*
X9745743Y-19430667D01*
X9831457Y-19544952D02*
X9812410Y-19554476D01*
X9764790Y-19554476D01*
X9745743Y-19544952D01*
X9736219Y-19525905D01*
X9736219Y-19506857D01*
X9745743Y-19487810D01*
X9764790Y-19478286D01*
X9812410Y-19478286D01*
X9831457Y-19468762D01*
X9926695Y-19421143D02*
X9926695Y-19621143D01*
X9926695Y-19430667D02*
X9945743Y-19421143D01*
X9983838Y-19421143D01*
X10002886Y-19430667D01*
X10012410Y-19440190D01*
X10021933Y-19459238D01*
X10021933Y-19516381D01*
X10012410Y-19535429D01*
X10002886Y-19544952D01*
X9983838Y-19554476D01*
X9945743Y-19554476D01*
X9926695Y-19544952D01*
X10107648Y-19535429D02*
X10117171Y-19544952D01*
X10107648Y-19554476D01*
X10098124Y-19544952D01*
X10107648Y-19535429D01*
X10107648Y-19554476D01*
X10107648Y-19430667D02*
X10117171Y-19440190D01*
X10107648Y-19449714D01*
X10098124Y-19440190D01*
X10107648Y-19430667D01*
X10107648Y-19449714D01*
M02*
