G04 #@! TF.GenerationSoftware,KiCad,Pcbnew,(6.0.6)*
G04 #@! TF.CreationDate,2022-11-01T12:00:34+01:00*
G04 #@! TF.ProjectId,RTO_cart,52544f5f-6361-4727-942e-6b696361645f,rev?*
G04 #@! TF.SameCoordinates,Original*
G04 #@! TF.FileFunction,Legend,Top*
G04 #@! TF.FilePolarity,Positive*
%FSLAX46Y46*%
G04 Gerber Fmt 4.6, Leading zero omitted, Abs format (unit mm)*
G04 Created by KiCad (PCBNEW (6.0.6)) date 2022-11-01 12:00:34*
%MOMM*%
%LPD*%
G01*
G04 APERTURE LIST*
%ADD10C,0.150000*%
%ADD11C,0.120000*%
%ADD12C,0.100000*%
%ADD13C,1.400000*%
%ADD14O,1.400000X1.400000*%
%ADD15R,1.600000X1.600000*%
%ADD16C,1.600000*%
%ADD17R,1.300000X1.300000*%
%ADD18C,1.300000*%
%ADD19R,1.800000X1.800000*%
%ADD20C,1.800000*%
%ADD21C,2.000000*%
%ADD22R,1.700000X1.700000*%
%ADD23O,1.700000X1.700000*%
%ADD24O,1.600000X1.600000*%
%ADD25R,1.270000X8.840000*%
G04 APERTURE END LIST*
D10*
X93829285Y-79779761D02*
X93972142Y-79827380D01*
X94210238Y-79827380D01*
X94305476Y-79779761D01*
X94353095Y-79732142D01*
X94400714Y-79636904D01*
X94400714Y-79541666D01*
X94353095Y-79446428D01*
X94305476Y-79398809D01*
X94210238Y-79351190D01*
X94019761Y-79303571D01*
X93924523Y-79255952D01*
X93876904Y-79208333D01*
X93829285Y-79113095D01*
X93829285Y-79017857D01*
X93876904Y-78922619D01*
X93924523Y-78875000D01*
X94019761Y-78827380D01*
X94257857Y-78827380D01*
X94400714Y-78875000D01*
X94829285Y-79827380D02*
X94829285Y-78827380D01*
X95067380Y-78827380D01*
X95210238Y-78875000D01*
X95305476Y-78970238D01*
X95353095Y-79065476D01*
X95400714Y-79255952D01*
X95400714Y-79398809D01*
X95353095Y-79589285D01*
X95305476Y-79684523D01*
X95210238Y-79779761D01*
X95067380Y-79827380D01*
X94829285Y-79827380D01*
X143692619Y-102411190D02*
X144168809Y-102077857D01*
X143692619Y-101839761D02*
X144692619Y-101839761D01*
X144692619Y-102220714D01*
X144645000Y-102315952D01*
X144597380Y-102363571D01*
X144502142Y-102411190D01*
X144359285Y-102411190D01*
X144264047Y-102363571D01*
X144216428Y-102315952D01*
X144168809Y-102220714D01*
X144168809Y-101839761D01*
X144692619Y-102696904D02*
X144692619Y-103268333D01*
X143692619Y-102982619D02*
X144692619Y-102982619D01*
X144692619Y-103792142D02*
X144692619Y-103982619D01*
X144645000Y-104077857D01*
X144549761Y-104173095D01*
X144359285Y-104220714D01*
X144025952Y-104220714D01*
X143835476Y-104173095D01*
X143740238Y-104077857D01*
X143692619Y-103982619D01*
X143692619Y-103792142D01*
X143740238Y-103696904D01*
X143835476Y-103601666D01*
X144025952Y-103554047D01*
X144359285Y-103554047D01*
X144549761Y-103601666D01*
X144645000Y-103696904D01*
X144692619Y-103792142D01*
X143787857Y-105982619D02*
X143740238Y-105935000D01*
X143692619Y-105792142D01*
X143692619Y-105696904D01*
X143740238Y-105554047D01*
X143835476Y-105458809D01*
X143930714Y-105411190D01*
X144121190Y-105363571D01*
X144264047Y-105363571D01*
X144454523Y-105411190D01*
X144549761Y-105458809D01*
X144645000Y-105554047D01*
X144692619Y-105696904D01*
X144692619Y-105792142D01*
X144645000Y-105935000D01*
X144597380Y-105982619D01*
X143692619Y-106839761D02*
X144216428Y-106839761D01*
X144311666Y-106792142D01*
X144359285Y-106696904D01*
X144359285Y-106506428D01*
X144311666Y-106411190D01*
X143740238Y-106839761D02*
X143692619Y-106744523D01*
X143692619Y-106506428D01*
X143740238Y-106411190D01*
X143835476Y-106363571D01*
X143930714Y-106363571D01*
X144025952Y-106411190D01*
X144073571Y-106506428D01*
X144073571Y-106744523D01*
X144121190Y-106839761D01*
X143692619Y-107315952D02*
X144359285Y-107315952D01*
X144168809Y-107315952D02*
X144264047Y-107363571D01*
X144311666Y-107411190D01*
X144359285Y-107506428D01*
X144359285Y-107601666D01*
X144359285Y-107792142D02*
X144359285Y-108173095D01*
X144692619Y-107935000D02*
X143835476Y-107935000D01*
X143740238Y-107982619D01*
X143692619Y-108077857D01*
X143692619Y-108173095D01*
X143692619Y-109268333D02*
X144692619Y-109268333D01*
X144311666Y-109268333D02*
X144359285Y-109363571D01*
X144359285Y-109554047D01*
X144311666Y-109649285D01*
X144264047Y-109696904D01*
X144168809Y-109744523D01*
X143883095Y-109744523D01*
X143787857Y-109696904D01*
X143740238Y-109649285D01*
X143692619Y-109554047D01*
X143692619Y-109363571D01*
X143740238Y-109268333D01*
X144359285Y-110077857D02*
X143692619Y-110315952D01*
X144359285Y-110554047D02*
X143692619Y-110315952D01*
X143454523Y-110220714D01*
X143406904Y-110173095D01*
X143359285Y-110077857D01*
X143978333Y-111649285D02*
X143978333Y-112125476D01*
X143692619Y-111554047D02*
X144692619Y-111887380D01*
X143692619Y-112220714D01*
X143787857Y-112554047D02*
X143740238Y-112601666D01*
X143692619Y-112554047D01*
X143740238Y-112506428D01*
X143787857Y-112554047D01*
X143692619Y-112554047D01*
X144692619Y-113220714D02*
X144692619Y-113411190D01*
X144645000Y-113506428D01*
X144549761Y-113601666D01*
X144359285Y-113649285D01*
X144025952Y-113649285D01*
X143835476Y-113601666D01*
X143740238Y-113506428D01*
X143692619Y-113411190D01*
X143692619Y-113220714D01*
X143740238Y-113125476D01*
X143835476Y-113030238D01*
X144025952Y-112982619D01*
X144359285Y-112982619D01*
X144549761Y-113030238D01*
X144645000Y-113125476D01*
X144692619Y-113220714D01*
X144359285Y-113935000D02*
X144359285Y-114315952D01*
X144692619Y-114077857D02*
X143835476Y-114077857D01*
X143740238Y-114125476D01*
X143692619Y-114220714D01*
X143692619Y-114315952D01*
X144359285Y-114506428D02*
X144359285Y-114887380D01*
X144692619Y-114649285D02*
X143835476Y-114649285D01*
X143740238Y-114696904D01*
X143692619Y-114792142D01*
X143692619Y-114887380D01*
X143692619Y-115649285D02*
X144216428Y-115649285D01*
X144311666Y-115601666D01*
X144359285Y-115506428D01*
X144359285Y-115315952D01*
X144311666Y-115220714D01*
X143740238Y-115649285D02*
X143692619Y-115554047D01*
X143692619Y-115315952D01*
X143740238Y-115220714D01*
X143835476Y-115173095D01*
X143930714Y-115173095D01*
X144025952Y-115220714D01*
X144073571Y-115315952D01*
X144073571Y-115554047D01*
X144121190Y-115649285D01*
X144359285Y-116030238D02*
X143692619Y-116268333D01*
X144359285Y-116506428D01*
X143692619Y-116887380D02*
X144359285Y-116887380D01*
X144692619Y-116887380D02*
X144645000Y-116839761D01*
X144597380Y-116887380D01*
X144645000Y-116935000D01*
X144692619Y-116887380D01*
X144597380Y-116887380D01*
X143692619Y-117792142D02*
X144216428Y-117792142D01*
X144311666Y-117744523D01*
X144359285Y-117649285D01*
X144359285Y-117458809D01*
X144311666Y-117363571D01*
X143740238Y-117792142D02*
X143692619Y-117696904D01*
X143692619Y-117458809D01*
X143740238Y-117363571D01*
X143835476Y-117315952D01*
X143930714Y-117315952D01*
X144025952Y-117363571D01*
X144073571Y-117458809D01*
X144073571Y-117696904D01*
X144121190Y-117792142D01*
X144359285Y-118268333D02*
X143692619Y-118268333D01*
X144264047Y-118268333D02*
X144311666Y-118315952D01*
X144359285Y-118411190D01*
X144359285Y-118554047D01*
X144311666Y-118649285D01*
X144216428Y-118696904D01*
X143692619Y-118696904D01*
X143692619Y-119173095D02*
X144359285Y-119173095D01*
X144692619Y-119173095D02*
X144645000Y-119125476D01*
X144597380Y-119173095D01*
X144645000Y-119220714D01*
X144692619Y-119173095D01*
X144597380Y-119173095D01*
X143311666Y-120696904D02*
X143359285Y-120649285D01*
X143502142Y-120554047D01*
X143597380Y-120506428D01*
X143740238Y-120458809D01*
X143978333Y-120411190D01*
X144168809Y-120411190D01*
X144406904Y-120458809D01*
X144549761Y-120506428D01*
X144645000Y-120554047D01*
X144787857Y-120649285D01*
X144835476Y-120696904D01*
X143692619Y-121601666D02*
X143692619Y-121030238D01*
X143692619Y-121315952D02*
X144692619Y-121315952D01*
X144549761Y-121220714D01*
X144454523Y-121125476D01*
X144406904Y-121030238D01*
X143692619Y-122554047D02*
X143692619Y-121982619D01*
X143692619Y-122268333D02*
X144692619Y-122268333D01*
X144549761Y-122173095D01*
X144454523Y-122077857D01*
X144406904Y-121982619D01*
X144740238Y-123696904D02*
X143454523Y-122839761D01*
X144597380Y-123982619D02*
X144645000Y-124030238D01*
X144692619Y-124125476D01*
X144692619Y-124363571D01*
X144645000Y-124458809D01*
X144597380Y-124506428D01*
X144502142Y-124554047D01*
X144406904Y-124554047D01*
X144264047Y-124506428D01*
X143692619Y-123935000D01*
X143692619Y-124554047D01*
X144692619Y-125173095D02*
X144692619Y-125268333D01*
X144645000Y-125363571D01*
X144597380Y-125411190D01*
X144502142Y-125458809D01*
X144311666Y-125506428D01*
X144073571Y-125506428D01*
X143883095Y-125458809D01*
X143787857Y-125411190D01*
X143740238Y-125363571D01*
X143692619Y-125268333D01*
X143692619Y-125173095D01*
X143740238Y-125077857D01*
X143787857Y-125030238D01*
X143883095Y-124982619D01*
X144073571Y-124935000D01*
X144311666Y-124935000D01*
X144502142Y-124982619D01*
X144597380Y-125030238D01*
X144645000Y-125077857D01*
X144692619Y-125173095D01*
X144597380Y-125887380D02*
X144645000Y-125935000D01*
X144692619Y-126030238D01*
X144692619Y-126268333D01*
X144645000Y-126363571D01*
X144597380Y-126411190D01*
X144502142Y-126458809D01*
X144406904Y-126458809D01*
X144264047Y-126411190D01*
X143692619Y-125839761D01*
X143692619Y-126458809D01*
X144597380Y-126839761D02*
X144645000Y-126887380D01*
X144692619Y-126982619D01*
X144692619Y-127220714D01*
X144645000Y-127315952D01*
X144597380Y-127363571D01*
X144502142Y-127411190D01*
X144406904Y-127411190D01*
X144264047Y-127363571D01*
X143692619Y-126792142D01*
X143692619Y-127411190D01*
X143311666Y-127744523D02*
X143359285Y-127792142D01*
X143502142Y-127887380D01*
X143597380Y-127935000D01*
X143740238Y-127982619D01*
X143978333Y-128030238D01*
X144168809Y-128030238D01*
X144406904Y-127982619D01*
X144549761Y-127935000D01*
X144645000Y-127887380D01*
X144787857Y-127792142D01*
X144835476Y-127744523D01*
X101231248Y-79827380D02*
X101231248Y-78827380D01*
X101612201Y-78827380D01*
X101707439Y-78875000D01*
X101755058Y-78922619D01*
X101802677Y-79017857D01*
X101802677Y-79160714D01*
X101755058Y-79255952D01*
X101707439Y-79303571D01*
X101612201Y-79351190D01*
X101231248Y-79351190D01*
X102136010Y-79160714D02*
X102326487Y-79827380D01*
X102516963Y-79351190D01*
X102707439Y-79827380D01*
X102897915Y-79160714D01*
X103278867Y-79827380D02*
X103278867Y-79160714D01*
X103278867Y-79351190D02*
X103326487Y-79255952D01*
X103374106Y-79208333D01*
X103469344Y-79160714D01*
X103564582Y-79160714D01*
X98893333Y-93812380D02*
X98560000Y-93336190D01*
X98321904Y-93812380D02*
X98321904Y-92812380D01*
X98702857Y-92812380D01*
X98798095Y-92860000D01*
X98845714Y-92907619D01*
X98893333Y-93002857D01*
X98893333Y-93145714D01*
X98845714Y-93240952D01*
X98798095Y-93288571D01*
X98702857Y-93336190D01*
X98321904Y-93336190D01*
X99845714Y-93812380D02*
X99274285Y-93812380D01*
X99560000Y-93812380D02*
X99560000Y-92812380D01*
X99464761Y-92955238D01*
X99369523Y-93050476D01*
X99274285Y-93098095D01*
X107402380Y-109981904D02*
X108211904Y-109981904D01*
X108307142Y-109934285D01*
X108354761Y-109886666D01*
X108402380Y-109791428D01*
X108402380Y-109600952D01*
X108354761Y-109505714D01*
X108307142Y-109458095D01*
X108211904Y-109410476D01*
X107402380Y-109410476D01*
X107735714Y-108505714D02*
X108402380Y-108505714D01*
X107354761Y-108743809D02*
X108069047Y-108981904D01*
X108069047Y-108362857D01*
X115026666Y-110806666D02*
X115026666Y-110106666D01*
X115260000Y-110606666D01*
X115493333Y-110106666D01*
X115493333Y-110806666D01*
X115826666Y-110806666D02*
X115826666Y-110106666D01*
X116160000Y-110806666D02*
X116160000Y-110106666D01*
X116393333Y-110606666D01*
X116626666Y-110106666D01*
X116626666Y-110806666D01*
X116893333Y-110106666D02*
X117360000Y-110806666D01*
X117360000Y-110106666D02*
X116893333Y-110806666D01*
X118026666Y-110806666D02*
X117793333Y-110473333D01*
X117626666Y-110806666D02*
X117626666Y-110106666D01*
X117893333Y-110106666D01*
X117960000Y-110140000D01*
X117993333Y-110173333D01*
X118026666Y-110240000D01*
X118026666Y-110340000D01*
X117993333Y-110406666D01*
X117960000Y-110440000D01*
X117893333Y-110473333D01*
X117626666Y-110473333D01*
X118226666Y-110106666D02*
X118626666Y-110106666D01*
X118426666Y-110806666D02*
X118426666Y-110106666D01*
X119226666Y-110806666D02*
X118826666Y-110806666D01*
X119026666Y-110806666D02*
X119026666Y-110106666D01*
X118960000Y-110206666D01*
X118893333Y-110273333D01*
X118826666Y-110306666D01*
X119660000Y-110106666D02*
X119726666Y-110106666D01*
X119793333Y-110140000D01*
X119826666Y-110173333D01*
X119860000Y-110240000D01*
X119893333Y-110373333D01*
X119893333Y-110540000D01*
X119860000Y-110673333D01*
X119826666Y-110740000D01*
X119793333Y-110773333D01*
X119726666Y-110806666D01*
X119660000Y-110806666D01*
X119593333Y-110773333D01*
X119560000Y-110740000D01*
X119526666Y-110673333D01*
X119493333Y-110540000D01*
X119493333Y-110373333D01*
X119526666Y-110240000D01*
X119560000Y-110173333D01*
X119593333Y-110140000D01*
X119660000Y-110106666D01*
X120493333Y-110106666D02*
X120360000Y-110106666D01*
X120293333Y-110140000D01*
X120260000Y-110173333D01*
X120193333Y-110273333D01*
X120160000Y-110406666D01*
X120160000Y-110673333D01*
X120193333Y-110740000D01*
X120226666Y-110773333D01*
X120293333Y-110806666D01*
X120426666Y-110806666D01*
X120493333Y-110773333D01*
X120526666Y-110740000D01*
X120560000Y-110673333D01*
X120560000Y-110506666D01*
X120526666Y-110440000D01*
X120493333Y-110406666D01*
X120426666Y-110373333D01*
X120293333Y-110373333D01*
X120226666Y-110406666D01*
X120193333Y-110440000D01*
X120160000Y-110506666D01*
X120826666Y-110173333D02*
X120860000Y-110140000D01*
X120926666Y-110106666D01*
X121093333Y-110106666D01*
X121160000Y-110140000D01*
X121193333Y-110173333D01*
X121226666Y-110240000D01*
X121226666Y-110306666D01*
X121193333Y-110406666D01*
X120793333Y-110806666D01*
X121226666Y-110806666D01*
X118562380Y-88209047D02*
X117562380Y-88209047D01*
X118276666Y-87875714D01*
X117562380Y-87542380D01*
X118562380Y-87542380D01*
X118562380Y-87066190D02*
X117895714Y-87066190D01*
X117562380Y-87066190D02*
X117610000Y-87113809D01*
X117657619Y-87066190D01*
X117610000Y-87018571D01*
X117562380Y-87066190D01*
X117657619Y-87066190D01*
X118514761Y-86161428D02*
X118562380Y-86256666D01*
X118562380Y-86447142D01*
X118514761Y-86542380D01*
X118467142Y-86590000D01*
X118371904Y-86637619D01*
X118086190Y-86637619D01*
X117990952Y-86590000D01*
X117943333Y-86542380D01*
X117895714Y-86447142D01*
X117895714Y-86256666D01*
X117943333Y-86161428D01*
X118562380Y-85732857D02*
X117895714Y-85732857D01*
X118086190Y-85732857D02*
X117990952Y-85685238D01*
X117943333Y-85637619D01*
X117895714Y-85542380D01*
X117895714Y-85447142D01*
X118562380Y-84970952D02*
X118514761Y-85066190D01*
X118467142Y-85113809D01*
X118371904Y-85161428D01*
X118086190Y-85161428D01*
X117990952Y-85113809D01*
X117943333Y-85066190D01*
X117895714Y-84970952D01*
X117895714Y-84828095D01*
X117943333Y-84732857D01*
X117990952Y-84685238D01*
X118086190Y-84637619D01*
X118371904Y-84637619D01*
X118467142Y-84685238D01*
X118514761Y-84732857D01*
X118562380Y-84828095D01*
X118562380Y-84970952D01*
X118514761Y-83494761D02*
X118562380Y-83351904D01*
X118562380Y-83113809D01*
X118514761Y-83018571D01*
X118467142Y-82970952D01*
X118371904Y-82923333D01*
X118276666Y-82923333D01*
X118181428Y-82970952D01*
X118133809Y-83018571D01*
X118086190Y-83113809D01*
X118038571Y-83304285D01*
X117990952Y-83399523D01*
X117943333Y-83447142D01*
X117848095Y-83494761D01*
X117752857Y-83494761D01*
X117657619Y-83447142D01*
X117610000Y-83399523D01*
X117562380Y-83304285D01*
X117562380Y-83066190D01*
X117610000Y-82923333D01*
X118562380Y-82494761D02*
X117562380Y-82494761D01*
X117562380Y-82256666D01*
X117610000Y-82113809D01*
X117705238Y-82018571D01*
X117800476Y-81970952D01*
X117990952Y-81923333D01*
X118133809Y-81923333D01*
X118324285Y-81970952D01*
X118419523Y-82018571D01*
X118514761Y-82113809D01*
X118562380Y-82256666D01*
X118562380Y-82494761D01*
X116848095Y-135342380D02*
X116848095Y-136151904D01*
X116895714Y-136247142D01*
X116943333Y-136294761D01*
X117038571Y-136342380D01*
X117229047Y-136342380D01*
X117324285Y-136294761D01*
X117371904Y-136247142D01*
X117419523Y-136151904D01*
X117419523Y-135342380D01*
X117848095Y-136294761D02*
X117990952Y-136342380D01*
X118229047Y-136342380D01*
X118324285Y-136294761D01*
X118371904Y-136247142D01*
X118419523Y-136151904D01*
X118419523Y-136056666D01*
X118371904Y-135961428D01*
X118324285Y-135913809D01*
X118229047Y-135866190D01*
X118038571Y-135818571D01*
X117943333Y-135770952D01*
X117895714Y-135723333D01*
X117848095Y-135628095D01*
X117848095Y-135532857D01*
X117895714Y-135437619D01*
X117943333Y-135390000D01*
X118038571Y-135342380D01*
X118276666Y-135342380D01*
X118419523Y-135390000D01*
X119181428Y-135818571D02*
X119324285Y-135866190D01*
X119371904Y-135913809D01*
X119419523Y-136009047D01*
X119419523Y-136151904D01*
X119371904Y-136247142D01*
X119324285Y-136294761D01*
X119229047Y-136342380D01*
X118848095Y-136342380D01*
X118848095Y-135342380D01*
X119181428Y-135342380D01*
X119276666Y-135390000D01*
X119324285Y-135437619D01*
X119371904Y-135532857D01*
X119371904Y-135628095D01*
X119324285Y-135723333D01*
X119276666Y-135770952D01*
X119181428Y-135818571D01*
X118848095Y-135818571D01*
X111976257Y-121213571D02*
X112309590Y-121213571D01*
X112452447Y-121737380D02*
X111976257Y-121737380D01*
X111976257Y-120737380D01*
X112452447Y-120737380D01*
X112738161Y-121070714D02*
X113119114Y-121070714D01*
X112881019Y-120737380D02*
X112881019Y-121594523D01*
X112928638Y-121689761D01*
X113023876Y-121737380D01*
X113119114Y-121737380D01*
X113452447Y-121737380D02*
X113452447Y-120737380D01*
X113881019Y-121737380D02*
X113881019Y-121213571D01*
X113833400Y-121118333D01*
X113738161Y-121070714D01*
X113595304Y-121070714D01*
X113500066Y-121118333D01*
X113452447Y-121165952D01*
X114738161Y-121689761D02*
X114642923Y-121737380D01*
X114452447Y-121737380D01*
X114357209Y-121689761D01*
X114309590Y-121594523D01*
X114309590Y-121213571D01*
X114357209Y-121118333D01*
X114452447Y-121070714D01*
X114642923Y-121070714D01*
X114738161Y-121118333D01*
X114785780Y-121213571D01*
X114785780Y-121308809D01*
X114309590Y-121404047D01*
X115214352Y-121737380D02*
X115214352Y-121070714D01*
X115214352Y-121261190D02*
X115261971Y-121165952D01*
X115309590Y-121118333D01*
X115404828Y-121070714D01*
X115500066Y-121070714D01*
X115833400Y-121070714D02*
X115833400Y-121737380D01*
X115833400Y-121165952D02*
X115881019Y-121118333D01*
X115976257Y-121070714D01*
X116119114Y-121070714D01*
X116214352Y-121118333D01*
X116261971Y-121213571D01*
X116261971Y-121737380D01*
X117119114Y-121689761D02*
X117023876Y-121737380D01*
X116833400Y-121737380D01*
X116738161Y-121689761D01*
X116690542Y-121594523D01*
X116690542Y-121213571D01*
X116738161Y-121118333D01*
X116833400Y-121070714D01*
X117023876Y-121070714D01*
X117119114Y-121118333D01*
X117166733Y-121213571D01*
X117166733Y-121308809D01*
X116690542Y-121404047D01*
X117452447Y-121070714D02*
X117833400Y-121070714D01*
X117595304Y-120737380D02*
X117595304Y-121594523D01*
X117642923Y-121689761D01*
X117738161Y-121737380D01*
X117833400Y-121737380D01*
X120051580Y-130995323D02*
X120861104Y-130995323D01*
X120956342Y-130947704D01*
X121003961Y-130900085D01*
X121051580Y-130804847D01*
X121051580Y-130614371D01*
X121003961Y-130519133D01*
X120956342Y-130471514D01*
X120861104Y-130423895D01*
X120051580Y-130423895D01*
X121003961Y-129995323D02*
X121051580Y-129852466D01*
X121051580Y-129614371D01*
X121003961Y-129519133D01*
X120956342Y-129471514D01*
X120861104Y-129423895D01*
X120765866Y-129423895D01*
X120670628Y-129471514D01*
X120623009Y-129519133D01*
X120575390Y-129614371D01*
X120527771Y-129804847D01*
X120480152Y-129900085D01*
X120432533Y-129947704D01*
X120337295Y-129995323D01*
X120242057Y-129995323D01*
X120146819Y-129947704D01*
X120099200Y-129900085D01*
X120051580Y-129804847D01*
X120051580Y-129566752D01*
X120099200Y-129423895D01*
X120527771Y-128661990D02*
X120575390Y-128519133D01*
X120623009Y-128471514D01*
X120718247Y-128423895D01*
X120861104Y-128423895D01*
X120956342Y-128471514D01*
X121003961Y-128519133D01*
X121051580Y-128614371D01*
X121051580Y-128995323D01*
X120051580Y-128995323D01*
X120051580Y-128661990D01*
X120099200Y-128566752D01*
X120146819Y-128519133D01*
X120242057Y-128471514D01*
X120337295Y-128471514D01*
X120432533Y-128519133D01*
X120480152Y-128566752D01*
X120527771Y-128661990D01*
X120527771Y-128995323D01*
X121051580Y-127233419D02*
X120051580Y-127233419D01*
X120527771Y-127233419D02*
X120527771Y-126661990D01*
X121051580Y-126661990D02*
X120051580Y-126661990D01*
X121051580Y-126042942D02*
X121003961Y-126138180D01*
X120956342Y-126185800D01*
X120861104Y-126233419D01*
X120575390Y-126233419D01*
X120480152Y-126185800D01*
X120432533Y-126138180D01*
X120384914Y-126042942D01*
X120384914Y-125900085D01*
X120432533Y-125804847D01*
X120480152Y-125757228D01*
X120575390Y-125709609D01*
X120861104Y-125709609D01*
X120956342Y-125757228D01*
X121003961Y-125804847D01*
X121051580Y-125900085D01*
X121051580Y-126042942D01*
X121003961Y-125328657D02*
X121051580Y-125233419D01*
X121051580Y-125042942D01*
X121003961Y-124947704D01*
X120908723Y-124900085D01*
X120861104Y-124900085D01*
X120765866Y-124947704D01*
X120718247Y-125042942D01*
X120718247Y-125185800D01*
X120670628Y-125281038D01*
X120575390Y-125328657D01*
X120527771Y-125328657D01*
X120432533Y-125281038D01*
X120384914Y-125185800D01*
X120384914Y-125042942D01*
X120432533Y-124947704D01*
X120384914Y-124614371D02*
X120384914Y-124233419D01*
X120051580Y-124471514D02*
X120908723Y-124471514D01*
X121003961Y-124423895D01*
X121051580Y-124328657D01*
X121051580Y-124233419D01*
X116546666Y-112076666D02*
X116546666Y-111376666D01*
X116713333Y-111376666D01*
X116813333Y-111410000D01*
X116880000Y-111476666D01*
X116913333Y-111543333D01*
X116946666Y-111676666D01*
X116946666Y-111776666D01*
X116913333Y-111910000D01*
X116880000Y-111976666D01*
X116813333Y-112043333D01*
X116713333Y-112076666D01*
X116546666Y-112076666D01*
X117146666Y-111376666D02*
X117380000Y-112076666D01*
X117613333Y-111376666D01*
X118046666Y-111376666D02*
X118046666Y-111876666D01*
X118013333Y-111976666D01*
X117946666Y-112043333D01*
X117846666Y-112076666D01*
X117780000Y-112076666D01*
X118680000Y-111376666D02*
X118546666Y-111376666D01*
X118480000Y-111410000D01*
X118446666Y-111443333D01*
X118380000Y-111543333D01*
X118346666Y-111676666D01*
X118346666Y-111943333D01*
X118380000Y-112010000D01*
X118413333Y-112043333D01*
X118480000Y-112076666D01*
X118613333Y-112076666D01*
X118680000Y-112043333D01*
X118713333Y-112010000D01*
X118746666Y-111943333D01*
X118746666Y-111776666D01*
X118713333Y-111710000D01*
X118680000Y-111676666D01*
X118613333Y-111643333D01*
X118480000Y-111643333D01*
X118413333Y-111676666D01*
X118380000Y-111710000D01*
X118346666Y-111776666D01*
X119013333Y-111876666D02*
X119346666Y-111876666D01*
X118946666Y-112076666D02*
X119180000Y-111376666D01*
X119413333Y-112076666D01*
X97686904Y-83637380D02*
X97686904Y-82637380D01*
X97925000Y-82637380D01*
X98067857Y-82685000D01*
X98163095Y-82780238D01*
X98210714Y-82875476D01*
X98258333Y-83065952D01*
X98258333Y-83208809D01*
X98210714Y-83399285D01*
X98163095Y-83494523D01*
X98067857Y-83589761D01*
X97925000Y-83637380D01*
X97686904Y-83637380D01*
X98639285Y-82732619D02*
X98686904Y-82685000D01*
X98782142Y-82637380D01*
X99020238Y-82637380D01*
X99115476Y-82685000D01*
X99163095Y-82732619D01*
X99210714Y-82827857D01*
X99210714Y-82923095D01*
X99163095Y-83065952D01*
X98591666Y-83637380D01*
X99210714Y-83637380D01*
X129764761Y-84518333D02*
X129812380Y-84375476D01*
X129812380Y-84137380D01*
X129764761Y-84042142D01*
X129717142Y-83994523D01*
X129621904Y-83946904D01*
X129526666Y-83946904D01*
X129431428Y-83994523D01*
X129383809Y-84042142D01*
X129336190Y-84137380D01*
X129288571Y-84327857D01*
X129240952Y-84423095D01*
X129193333Y-84470714D01*
X129098095Y-84518333D01*
X129002857Y-84518333D01*
X128907619Y-84470714D01*
X128860000Y-84423095D01*
X128812380Y-84327857D01*
X128812380Y-84089761D01*
X128860000Y-83946904D01*
X128812380Y-83613571D02*
X129812380Y-83375476D01*
X129098095Y-83185000D01*
X129812380Y-82994523D01*
X128812380Y-82756428D01*
X129812380Y-81851666D02*
X129812380Y-82423095D01*
X129812380Y-82137380D02*
X128812380Y-82137380D01*
X128955238Y-82232619D01*
X129050476Y-82327857D01*
X129098095Y-82423095D01*
X138263333Y-93177380D02*
X137930000Y-92701190D01*
X137691904Y-93177380D02*
X137691904Y-92177380D01*
X138072857Y-92177380D01*
X138168095Y-92225000D01*
X138215714Y-92272619D01*
X138263333Y-92367857D01*
X138263333Y-92510714D01*
X138215714Y-92605952D01*
X138168095Y-92653571D01*
X138072857Y-92701190D01*
X137691904Y-92701190D01*
X138596666Y-92177380D02*
X139215714Y-92177380D01*
X138882380Y-92558333D01*
X139025238Y-92558333D01*
X139120476Y-92605952D01*
X139168095Y-92653571D01*
X139215714Y-92748809D01*
X139215714Y-92986904D01*
X139168095Y-93082142D01*
X139120476Y-93129761D01*
X139025238Y-93177380D01*
X138739523Y-93177380D01*
X138644285Y-93129761D01*
X138596666Y-93082142D01*
X139029761Y-84518333D02*
X139077380Y-84375476D01*
X139077380Y-84137380D01*
X139029761Y-84042142D01*
X138982142Y-83994523D01*
X138886904Y-83946904D01*
X138791666Y-83946904D01*
X138696428Y-83994523D01*
X138648809Y-84042142D01*
X138601190Y-84137380D01*
X138553571Y-84327857D01*
X138505952Y-84423095D01*
X138458333Y-84470714D01*
X138363095Y-84518333D01*
X138267857Y-84518333D01*
X138172619Y-84470714D01*
X138125000Y-84423095D01*
X138077380Y-84327857D01*
X138077380Y-84089761D01*
X138125000Y-83946904D01*
X138077380Y-83613571D02*
X139077380Y-83375476D01*
X138363095Y-83185000D01*
X139077380Y-82994523D01*
X138077380Y-82756428D01*
X138172619Y-82423095D02*
X138125000Y-82375476D01*
X138077380Y-82280238D01*
X138077380Y-82042142D01*
X138125000Y-81946904D01*
X138172619Y-81899285D01*
X138267857Y-81851666D01*
X138363095Y-81851666D01*
X138505952Y-81899285D01*
X139077380Y-82470714D01*
X139077380Y-81851666D01*
X91106666Y-91112380D02*
X91106666Y-91826666D01*
X91059047Y-91969523D01*
X90963809Y-92064761D01*
X90820952Y-92112380D01*
X90725714Y-92112380D01*
X91535238Y-91207619D02*
X91582857Y-91160000D01*
X91678095Y-91112380D01*
X91916190Y-91112380D01*
X92011428Y-91160000D01*
X92059047Y-91207619D01*
X92106666Y-91302857D01*
X92106666Y-91398095D01*
X92059047Y-91540952D01*
X91487619Y-92112380D01*
X92106666Y-92112380D01*
X90892380Y-117696428D02*
X90892380Y-117505952D01*
X90940000Y-117410714D01*
X91035238Y-117315476D01*
X91225714Y-117267857D01*
X91559047Y-117267857D01*
X91749523Y-117315476D01*
X91844761Y-117410714D01*
X91892380Y-117505952D01*
X91892380Y-117696428D01*
X91844761Y-117791666D01*
X91749523Y-117886904D01*
X91559047Y-117934523D01*
X91225714Y-117934523D01*
X91035238Y-117886904D01*
X90940000Y-117791666D01*
X90892380Y-117696428D01*
X91892380Y-116696428D02*
X91844761Y-116791666D01*
X91749523Y-116839285D01*
X90892380Y-116839285D01*
X91844761Y-115934523D02*
X91892380Y-116029761D01*
X91892380Y-116220238D01*
X91844761Y-116315476D01*
X91749523Y-116363095D01*
X91368571Y-116363095D01*
X91273333Y-116315476D01*
X91225714Y-116220238D01*
X91225714Y-116029761D01*
X91273333Y-115934523D01*
X91368571Y-115886904D01*
X91463809Y-115886904D01*
X91559047Y-116363095D01*
X91892380Y-115029761D02*
X90892380Y-115029761D01*
X91844761Y-115029761D02*
X91892380Y-115125000D01*
X91892380Y-115315476D01*
X91844761Y-115410714D01*
X91797142Y-115458333D01*
X91701904Y-115505952D01*
X91416190Y-115505952D01*
X91320952Y-115458333D01*
X91273333Y-115410714D01*
X91225714Y-115315476D01*
X91225714Y-115125000D01*
X91273333Y-115029761D01*
X90892380Y-113601190D02*
X90892380Y-113505952D01*
X90940000Y-113410714D01*
X90987619Y-113363095D01*
X91082857Y-113315476D01*
X91273333Y-113267857D01*
X91511428Y-113267857D01*
X91701904Y-113315476D01*
X91797142Y-113363095D01*
X91844761Y-113410714D01*
X91892380Y-113505952D01*
X91892380Y-113601190D01*
X91844761Y-113696428D01*
X91797142Y-113744047D01*
X91701904Y-113791666D01*
X91511428Y-113839285D01*
X91273333Y-113839285D01*
X91082857Y-113791666D01*
X90987619Y-113744047D01*
X90940000Y-113696428D01*
X90892380Y-113601190D01*
X91797142Y-112839285D02*
X91844761Y-112791666D01*
X91892380Y-112839285D01*
X91844761Y-112886904D01*
X91797142Y-112839285D01*
X91892380Y-112839285D01*
X91892380Y-112315476D02*
X91892380Y-112125000D01*
X91844761Y-112029761D01*
X91797142Y-111982142D01*
X91654285Y-111886904D01*
X91463809Y-111839285D01*
X91082857Y-111839285D01*
X90987619Y-111886904D01*
X90940000Y-111934523D01*
X90892380Y-112029761D01*
X90892380Y-112220238D01*
X90940000Y-112315476D01*
X90987619Y-112363095D01*
X91082857Y-112410714D01*
X91320952Y-112410714D01*
X91416190Y-112363095D01*
X91463809Y-112315476D01*
X91511428Y-112220238D01*
X91511428Y-112029761D01*
X91463809Y-111934523D01*
X91416190Y-111886904D01*
X91320952Y-111839285D01*
X91892380Y-110886904D02*
X91892380Y-111458333D01*
X91892380Y-111172619D02*
X90892380Y-111172619D01*
X91035238Y-111267857D01*
X91130476Y-111363095D01*
X91178095Y-111458333D01*
X90892380Y-110505952D02*
X91082857Y-110505952D01*
X90892380Y-110125000D02*
X91082857Y-110125000D01*
X91225714Y-109077380D02*
X91225714Y-108696428D01*
X91892380Y-108934523D02*
X91035238Y-108934523D01*
X90940000Y-108886904D01*
X90892380Y-108791666D01*
X90892380Y-108696428D01*
X91844761Y-107982142D02*
X91892380Y-108077380D01*
X91892380Y-108267857D01*
X91844761Y-108363095D01*
X91749523Y-108410714D01*
X91368571Y-108410714D01*
X91273333Y-108363095D01*
X91225714Y-108267857D01*
X91225714Y-108077380D01*
X91273333Y-107982142D01*
X91368571Y-107934523D01*
X91463809Y-107934523D01*
X91559047Y-108410714D01*
X91892380Y-107505952D02*
X91225714Y-107505952D01*
X91320952Y-107505952D02*
X91273333Y-107458333D01*
X91225714Y-107363095D01*
X91225714Y-107220238D01*
X91273333Y-107125000D01*
X91368571Y-107077380D01*
X91892380Y-107077380D01*
X91368571Y-107077380D02*
X91273333Y-107029761D01*
X91225714Y-106934523D01*
X91225714Y-106791666D01*
X91273333Y-106696428D01*
X91368571Y-106648809D01*
X91892380Y-106648809D01*
X91892380Y-105744047D02*
X91368571Y-105744047D01*
X91273333Y-105791666D01*
X91225714Y-105886904D01*
X91225714Y-106077380D01*
X91273333Y-106172619D01*
X91844761Y-105744047D02*
X91892380Y-105839285D01*
X91892380Y-106077380D01*
X91844761Y-106172619D01*
X91749523Y-106220238D01*
X91654285Y-106220238D01*
X91559047Y-106172619D01*
X91511428Y-106077380D01*
X91511428Y-105839285D01*
X91463809Y-105744047D01*
X91892380Y-105125000D02*
X91844761Y-105220238D01*
X91749523Y-105267857D01*
X90892380Y-105267857D01*
X91844761Y-104363095D02*
X91892380Y-104458333D01*
X91892380Y-104648809D01*
X91844761Y-104744047D01*
X91749523Y-104791666D01*
X91368571Y-104791666D01*
X91273333Y-104744047D01*
X91225714Y-104648809D01*
X91225714Y-104458333D01*
X91273333Y-104363095D01*
X91368571Y-104315476D01*
X91463809Y-104315476D01*
X91559047Y-104791666D01*
X98893333Y-90637380D02*
X98560000Y-90161190D01*
X98321904Y-90637380D02*
X98321904Y-89637380D01*
X98702857Y-89637380D01*
X98798095Y-89685000D01*
X98845714Y-89732619D01*
X98893333Y-89827857D01*
X98893333Y-89970714D01*
X98845714Y-90065952D01*
X98798095Y-90113571D01*
X98702857Y-90161190D01*
X98321904Y-90161190D01*
X99274285Y-89732619D02*
X99321904Y-89685000D01*
X99417142Y-89637380D01*
X99655238Y-89637380D01*
X99750476Y-89685000D01*
X99798095Y-89732619D01*
X99845714Y-89827857D01*
X99845714Y-89923095D01*
X99798095Y-90065952D01*
X99226666Y-90637380D01*
X99845714Y-90637380D01*
X100143333Y-101332142D02*
X100095714Y-101379761D01*
X99952857Y-101427380D01*
X99857619Y-101427380D01*
X99714761Y-101379761D01*
X99619523Y-101284523D01*
X99571904Y-101189285D01*
X99524285Y-100998809D01*
X99524285Y-100855952D01*
X99571904Y-100665476D01*
X99619523Y-100570238D01*
X99714761Y-100475000D01*
X99857619Y-100427380D01*
X99952857Y-100427380D01*
X100095714Y-100475000D01*
X100143333Y-100522619D01*
X100524285Y-100522619D02*
X100571904Y-100475000D01*
X100667142Y-100427380D01*
X100905238Y-100427380D01*
X101000476Y-100475000D01*
X101048095Y-100522619D01*
X101095714Y-100617857D01*
X101095714Y-100713095D01*
X101048095Y-100855952D01*
X100476666Y-101427380D01*
X101095714Y-101427380D01*
X102088333Y-138142142D02*
X102040714Y-138189761D01*
X101897857Y-138237380D01*
X101802619Y-138237380D01*
X101659761Y-138189761D01*
X101564523Y-138094523D01*
X101516904Y-137999285D01*
X101469285Y-137808809D01*
X101469285Y-137665952D01*
X101516904Y-137475476D01*
X101564523Y-137380238D01*
X101659761Y-137285000D01*
X101802619Y-137237380D01*
X101897857Y-137237380D01*
X102040714Y-137285000D01*
X102088333Y-137332619D01*
X102421666Y-137237380D02*
X103040714Y-137237380D01*
X102707380Y-137618333D01*
X102850238Y-137618333D01*
X102945476Y-137665952D01*
X102993095Y-137713571D01*
X103040714Y-137808809D01*
X103040714Y-138046904D01*
X102993095Y-138142142D01*
X102945476Y-138189761D01*
X102850238Y-138237380D01*
X102564523Y-138237380D01*
X102469285Y-138189761D01*
X102421666Y-138142142D01*
X135138095Y-143177380D02*
X135138095Y-143986904D01*
X135185714Y-144082142D01*
X135233333Y-144129761D01*
X135328571Y-144177380D01*
X135519047Y-144177380D01*
X135614285Y-144129761D01*
X135661904Y-144082142D01*
X135709523Y-143986904D01*
X135709523Y-143177380D01*
X136090476Y-143177380D02*
X136709523Y-143177380D01*
X136376190Y-143558333D01*
X136519047Y-143558333D01*
X136614285Y-143605952D01*
X136661904Y-143653571D01*
X136709523Y-143748809D01*
X136709523Y-143986904D01*
X136661904Y-144082142D01*
X136614285Y-144129761D01*
X136519047Y-144177380D01*
X136233333Y-144177380D01*
X136138095Y-144129761D01*
X136090476Y-144082142D01*
X101483095Y-142542380D02*
X101483095Y-143351904D01*
X101530714Y-143447142D01*
X101578333Y-143494761D01*
X101673571Y-143542380D01*
X101864047Y-143542380D01*
X101959285Y-143494761D01*
X102006904Y-143447142D01*
X102054523Y-143351904D01*
X102054523Y-142542380D01*
X102483095Y-142637619D02*
X102530714Y-142590000D01*
X102625952Y-142542380D01*
X102864047Y-142542380D01*
X102959285Y-142590000D01*
X103006904Y-142637619D01*
X103054523Y-142732857D01*
X103054523Y-142828095D01*
X103006904Y-142970952D01*
X102435476Y-143542380D01*
X103054523Y-143542380D01*
X99578095Y-99362380D02*
X99578095Y-100171904D01*
X99625714Y-100267142D01*
X99673333Y-100314761D01*
X99768571Y-100362380D01*
X99959047Y-100362380D01*
X100054285Y-100314761D01*
X100101904Y-100267142D01*
X100149523Y-100171904D01*
X100149523Y-99362380D01*
X101149523Y-100362380D02*
X100578095Y-100362380D01*
X100863809Y-100362380D02*
X100863809Y-99362380D01*
X100768571Y-99505238D01*
X100673333Y-99600476D01*
X100578095Y-99648095D01*
X138263333Y-97622380D02*
X137930000Y-97146190D01*
X137691904Y-97622380D02*
X137691904Y-96622380D01*
X138072857Y-96622380D01*
X138168095Y-96670000D01*
X138215714Y-96717619D01*
X138263333Y-96812857D01*
X138263333Y-96955714D01*
X138215714Y-97050952D01*
X138168095Y-97098571D01*
X138072857Y-97146190D01*
X137691904Y-97146190D01*
X139120476Y-96955714D02*
X139120476Y-97622380D01*
X138882380Y-96574761D02*
X138644285Y-97289047D01*
X139263333Y-97289047D01*
X135723333Y-137507142D02*
X135675714Y-137554761D01*
X135532857Y-137602380D01*
X135437619Y-137602380D01*
X135294761Y-137554761D01*
X135199523Y-137459523D01*
X135151904Y-137364285D01*
X135104285Y-137173809D01*
X135104285Y-137030952D01*
X135151904Y-136840476D01*
X135199523Y-136745238D01*
X135294761Y-136650000D01*
X135437619Y-136602380D01*
X135532857Y-136602380D01*
X135675714Y-136650000D01*
X135723333Y-136697619D01*
X136675714Y-137602380D02*
X136104285Y-137602380D01*
X136390000Y-137602380D02*
X136390000Y-136602380D01*
X136294761Y-136745238D01*
X136199523Y-136840476D01*
X136104285Y-136888095D01*
X112696666Y-181722380D02*
X112696666Y-182436666D01*
X112649047Y-182579523D01*
X112553809Y-182674761D01*
X112410952Y-182722380D01*
X112315714Y-182722380D01*
X113696666Y-182722380D02*
X113125238Y-182722380D01*
X113410952Y-182722380D02*
X113410952Y-181722380D01*
X113315714Y-181865238D01*
X113220476Y-181960476D01*
X113125238Y-182008095D01*
X105306904Y-83637380D02*
X105306904Y-82637380D01*
X105545000Y-82637380D01*
X105687857Y-82685000D01*
X105783095Y-82780238D01*
X105830714Y-82875476D01*
X105878333Y-83065952D01*
X105878333Y-83208809D01*
X105830714Y-83399285D01*
X105783095Y-83494523D01*
X105687857Y-83589761D01*
X105545000Y-83637380D01*
X105306904Y-83637380D01*
X106830714Y-83637380D02*
X106259285Y-83637380D01*
X106545000Y-83637380D02*
X106545000Y-82637380D01*
X106449761Y-82780238D01*
X106354523Y-82875476D01*
X106259285Y-82923095D01*
D11*
X101930000Y-91440000D02*
X100980000Y-91440000D01*
X100980000Y-90520000D02*
X97140000Y-90520000D01*
X96190000Y-91440000D02*
X97140000Y-91440000D01*
X97140000Y-92360000D02*
X100980000Y-92360000D01*
X100980000Y-92360000D02*
X100980000Y-90520000D01*
X97140000Y-90520000D02*
X97140000Y-92360000D01*
D10*
X114300000Y-140970000D02*
X114300000Y-139700000D01*
X109220000Y-78740000D02*
X127000000Y-78740000D01*
X112008400Y-126470000D02*
X118008400Y-126470000D01*
X111760000Y-104140000D02*
X111760000Y-116840000D01*
X127000000Y-139700000D02*
X109220000Y-139700000D01*
X121920000Y-134620000D02*
X121920000Y-139700000D01*
X111760000Y-78740000D02*
X111760000Y-91440000D01*
X124460000Y-91440000D02*
X124460000Y-78740000D01*
X121920000Y-134620000D02*
X114300000Y-134620000D01*
X124460000Y-116840000D02*
X124460000Y-104140000D01*
X111760000Y-91440000D02*
X124460000Y-91440000D01*
X116840000Y-95250000D02*
X119380000Y-95250000D01*
X114300000Y-134620000D02*
X114300000Y-139700000D01*
X111760000Y-116840000D02*
X124460000Y-116840000D01*
X119380000Y-95250000D02*
X119380000Y-99060000D01*
X109220000Y-139700000D02*
X109220000Y-78740000D01*
X123949200Y-133400800D02*
X121409200Y-133400800D01*
X113030000Y-78740000D02*
X113030000Y-80010000D01*
X111758400Y-122470000D02*
X111758400Y-126470000D01*
X127000000Y-78740000D02*
X127000000Y-139700000D01*
X121409200Y-133400800D02*
X121409200Y-120700800D01*
X113030000Y-80010000D02*
X123190000Y-80010000D01*
X124460000Y-104140000D02*
X111760000Y-104140000D01*
X111758400Y-126470000D02*
X112008400Y-126470000D01*
X121409200Y-130860800D02*
X123949200Y-130860800D01*
X121409200Y-120700800D02*
X123949200Y-120700800D01*
X123190000Y-80010000D02*
X123190000Y-78740000D01*
X118008400Y-122470000D02*
X111758400Y-122470000D01*
X121920000Y-139700000D02*
X121920000Y-140970000D01*
X121920000Y-140970000D02*
X114300000Y-140970000D01*
X118008400Y-126470000D02*
X118008400Y-122470000D01*
X123949200Y-120700800D02*
X123949200Y-133400800D01*
X116840000Y-99060000D02*
X116840000Y-95250000D01*
X121409200Y-133400800D02*
X121409200Y-130860800D01*
X119380000Y-99060000D02*
X116840000Y-99060000D01*
X119008026Y-97155000D02*
G75*
G03*
X119008026Y-97155000I-898026J0D01*
G01*
G36*
X118692000Y-107801000D02*
G01*
X118311000Y-108055000D01*
X118057000Y-107801000D01*
X118438000Y-107547000D01*
X118692000Y-107801000D01*
G37*
D12*
X118692000Y-107801000D02*
X118311000Y-108055000D01*
X118057000Y-107801000D01*
X118438000Y-107547000D01*
X118692000Y-107801000D01*
G36*
X117803000Y-107801000D02*
G01*
X117422000Y-108055000D01*
X117168000Y-107801000D01*
X117549000Y-107547000D01*
X117803000Y-107801000D01*
G37*
X117803000Y-107801000D02*
X117422000Y-108055000D01*
X117168000Y-107801000D01*
X117549000Y-107547000D01*
X117803000Y-107801000D01*
G36*
X118057000Y-106277000D02*
G01*
X117676000Y-106531000D01*
X117422000Y-106277000D01*
X117803000Y-106023000D01*
X118057000Y-106277000D01*
G37*
X118057000Y-106277000D02*
X117676000Y-106531000D01*
X117422000Y-106277000D01*
X117803000Y-106023000D01*
X118057000Y-106277000D01*
G36*
X118311000Y-107420000D02*
G01*
X117930000Y-107674000D01*
X117676000Y-107420000D01*
X118057000Y-107166000D01*
X118311000Y-107420000D01*
G37*
X118311000Y-107420000D02*
X117930000Y-107674000D01*
X117676000Y-107420000D01*
X118057000Y-107166000D01*
X118311000Y-107420000D01*
G36*
X118438000Y-106658000D02*
G01*
X118057000Y-106912000D01*
X117803000Y-106658000D01*
X118184000Y-106404000D01*
X118438000Y-106658000D01*
G37*
X118438000Y-106658000D02*
X118057000Y-106912000D01*
X117803000Y-106658000D01*
X118184000Y-106404000D01*
X118438000Y-106658000D01*
G36*
X118184000Y-108182000D02*
G01*
X117803000Y-108436000D01*
X117549000Y-108182000D01*
X117930000Y-107928000D01*
X118184000Y-108182000D01*
G37*
X118184000Y-108182000D02*
X117803000Y-108436000D01*
X117549000Y-108182000D01*
X117930000Y-107928000D01*
X118184000Y-108182000D01*
G36*
X117676000Y-108563000D02*
G01*
X117295000Y-108817000D01*
X117041000Y-108563000D01*
X117422000Y-108309000D01*
X117676000Y-108563000D01*
G37*
X117676000Y-108563000D02*
X117295000Y-108817000D01*
X117041000Y-108563000D01*
X117422000Y-108309000D01*
X117676000Y-108563000D01*
G36*
X118819000Y-107039000D02*
G01*
X118438000Y-107293000D01*
X118184000Y-107039000D01*
X118565000Y-106785000D01*
X118819000Y-107039000D01*
G37*
X118819000Y-107039000D02*
X118438000Y-107293000D01*
X118184000Y-107039000D01*
X118565000Y-106785000D01*
X118819000Y-107039000D01*
D11*
X93050000Y-83630000D02*
X93050000Y-83786000D01*
X93050000Y-81314000D02*
X93050000Y-81470000D01*
X93050000Y-83785516D02*
G75*
G03*
X96282335Y-83628608I1560000J1235516D01*
G01*
X93569039Y-83630000D02*
G75*
G03*
X95651130Y-83629837I1040961J1080000D01*
G01*
X95651130Y-81470163D02*
G75*
G03*
X93569039Y-81470000I-1041130J-1079837D01*
G01*
X96282335Y-81471392D02*
G75*
G03*
X93050000Y-81314484I-1672335J-1078608D01*
G01*
X132860000Y-86685000D02*
X134360000Y-86685000D01*
X130360000Y-80935000D02*
X130360000Y-85435000D01*
X134360000Y-79685000D02*
X132860000Y-79685000D01*
X136860000Y-85435000D02*
X136860000Y-80935000D01*
X135560000Y-90805000D02*
X136510000Y-90805000D01*
X141300000Y-90805000D02*
X140350000Y-90805000D01*
X136510000Y-91725000D02*
X140350000Y-91725000D01*
X140350000Y-89885000D02*
X136510000Y-89885000D01*
X140350000Y-91725000D02*
X140350000Y-89885000D01*
X136510000Y-89885000D02*
X136510000Y-91725000D01*
X142125000Y-86685000D02*
X143625000Y-86685000D01*
X146125000Y-85435000D02*
X146125000Y-80935000D01*
X143625000Y-79685000D02*
X142125000Y-79685000D01*
X139625000Y-80935000D02*
X139625000Y-85435000D01*
X90110000Y-102940000D02*
X92770000Y-102940000D01*
X90110000Y-95260000D02*
X90110000Y-102940000D01*
X90110000Y-93990000D02*
X90110000Y-92660000D01*
X90110000Y-95260000D02*
X92770000Y-95260000D01*
X90110000Y-92660000D02*
X91440000Y-92660000D01*
X92770000Y-95260000D02*
X92770000Y-102940000D01*
X100980000Y-87345000D02*
X97140000Y-87345000D01*
X97140000Y-89185000D02*
X100980000Y-89185000D01*
X96190000Y-88265000D02*
X97140000Y-88265000D01*
X97140000Y-87345000D02*
X97140000Y-89185000D01*
X101930000Y-88265000D02*
X100980000Y-88265000D01*
X100980000Y-89185000D02*
X100980000Y-87345000D01*
X102330000Y-99845000D02*
X102330000Y-99220000D01*
X102330000Y-97005000D02*
X98290000Y-97005000D01*
X98290000Y-97630000D02*
X98290000Y-97005000D01*
X102330000Y-97630000D02*
X102330000Y-97005000D01*
X102330000Y-99845000D02*
X98290000Y-99845000D01*
X98290000Y-99845000D02*
X98290000Y-99220000D01*
X104275000Y-141130000D02*
X104275000Y-141755000D01*
X100235000Y-138915000D02*
X104275000Y-138915000D01*
X104275000Y-138915000D02*
X104275000Y-139540000D01*
X100235000Y-141755000D02*
X104275000Y-141755000D01*
X100235000Y-138915000D02*
X100235000Y-139540000D01*
X100235000Y-141130000D02*
X100235000Y-141755000D01*
X138550000Y-144725000D02*
X136900000Y-144725000D01*
X133250000Y-170245000D02*
X138550000Y-170245000D01*
X130760000Y-170305000D02*
X141040000Y-170305000D01*
X141040000Y-170305000D02*
X141040000Y-144665000D01*
X130760000Y-144665000D02*
X130760000Y-170305000D01*
X134900000Y-144725000D02*
X133250000Y-144725000D01*
X138550000Y-170245000D02*
X138550000Y-144725000D01*
X133250000Y-144725000D02*
X133250000Y-170245000D01*
X141040000Y-144665000D02*
X130760000Y-144665000D01*
X134900000Y-144725000D02*
G75*
G03*
X136900000Y-144725000I1000000J0D01*
G01*
X104895000Y-169610000D02*
X104895000Y-144090000D01*
X101245000Y-144090000D02*
X99595000Y-144090000D01*
X99595000Y-144090000D02*
X99595000Y-169610000D01*
X107385000Y-144030000D02*
X97105000Y-144030000D01*
X104895000Y-144090000D02*
X103245000Y-144090000D01*
X97105000Y-144030000D02*
X97105000Y-169670000D01*
X99595000Y-169610000D02*
X104895000Y-169610000D01*
X107385000Y-169670000D02*
X107385000Y-144030000D01*
X97105000Y-169670000D02*
X107385000Y-169670000D01*
X101245000Y-144090000D02*
G75*
G03*
X103245000Y-144090000I1000000J0D01*
G01*
X97690000Y-126430000D02*
X102990000Y-126430000D01*
X102990000Y-126430000D02*
X102990000Y-100910000D01*
X105480000Y-100850000D02*
X95200000Y-100850000D01*
X105480000Y-126490000D02*
X105480000Y-100850000D01*
X95200000Y-126490000D02*
X105480000Y-126490000D01*
X99340000Y-100910000D02*
X97690000Y-100910000D01*
X95200000Y-100850000D02*
X95200000Y-126490000D01*
X102990000Y-100910000D02*
X101340000Y-100910000D01*
X97690000Y-100910000D02*
X97690000Y-126430000D01*
X99340000Y-100910000D02*
G75*
G03*
X101340000Y-100910000I1000000J0D01*
G01*
X140350000Y-94330000D02*
X136510000Y-94330000D01*
X141300000Y-95250000D02*
X140350000Y-95250000D01*
X136510000Y-94330000D02*
X136510000Y-96170000D01*
X136510000Y-96170000D02*
X140350000Y-96170000D01*
X140350000Y-96170000D02*
X140350000Y-94330000D01*
X135560000Y-95250000D02*
X136510000Y-95250000D01*
X133870000Y-140495000D02*
X133870000Y-141120000D01*
X133870000Y-138280000D02*
X137910000Y-138280000D01*
X137910000Y-140495000D02*
X137910000Y-141120000D01*
X133870000Y-138280000D02*
X133870000Y-138905000D01*
X137910000Y-138280000D02*
X137910000Y-138905000D01*
X133870000Y-141120000D02*
X137910000Y-141120000D01*
X100670000Y-81314000D02*
X100670000Y-81470000D01*
X100670000Y-83630000D02*
X100670000Y-83786000D01*
X103271130Y-81470163D02*
G75*
G03*
X101189039Y-81470000I-1041130J-1079837D01*
G01*
X101189039Y-83630000D02*
G75*
G03*
X103271130Y-83629837I1040961J1080000D01*
G01*
X103902335Y-81471392D02*
G75*
G03*
X100670000Y-81314484I-1672335J-1078608D01*
G01*
X100670000Y-83785516D02*
G75*
G03*
X103902335Y-83628608I1560000J1235516D01*
G01*
%LPC*%
D13*
X102870000Y-91440000D03*
D14*
X95250000Y-91440000D03*
D15*
X125730000Y-138430000D03*
D16*
X125730000Y-135890000D03*
X125730000Y-133350000D03*
X125730000Y-130810000D03*
X125730000Y-128270000D03*
X125730000Y-125730000D03*
X125730000Y-123190000D03*
X125730000Y-120650000D03*
X125730000Y-118110000D03*
X125730000Y-115570000D03*
X125730000Y-113030000D03*
X125730000Y-110490000D03*
X125730000Y-107950000D03*
X125730000Y-105410000D03*
X125730000Y-102870000D03*
X125730000Y-100330000D03*
X125730000Y-97790000D03*
X125730000Y-95250000D03*
X125730000Y-92710000D03*
X125730000Y-90170000D03*
X125730000Y-87630000D03*
X125730000Y-85090000D03*
X125730000Y-82550000D03*
X125730000Y-80010000D03*
X110490000Y-80010000D03*
X110490000Y-82550000D03*
X110490000Y-85090000D03*
X110490000Y-87630000D03*
X110490000Y-90170000D03*
X110490000Y-92710000D03*
X110490000Y-95250000D03*
X110490000Y-97790000D03*
X110490000Y-100330000D03*
X110490000Y-102870000D03*
X110490000Y-105410000D03*
X110490000Y-107950000D03*
X110490000Y-110490000D03*
X110490000Y-113030000D03*
X110490000Y-115570000D03*
X110490000Y-118110000D03*
X110490000Y-120650000D03*
X110490000Y-123190000D03*
X110490000Y-125730000D03*
X110490000Y-128270000D03*
X110490000Y-130810000D03*
X110490000Y-133350000D03*
X110490000Y-135890000D03*
X110490000Y-138430000D03*
X113030000Y-135890000D03*
X123190000Y-92710000D03*
X120650000Y-92710000D03*
X118110000Y-92710000D03*
X115570000Y-92710000D03*
X113030000Y-92710000D03*
D15*
X122679200Y-132130800D03*
D16*
X122679200Y-129590800D03*
X122679200Y-127050800D03*
X122679200Y-124510800D03*
X122679200Y-121970800D03*
D17*
X112928400Y-125460000D03*
D18*
X114928400Y-125460000D03*
X116928400Y-125460000D03*
X116928400Y-123460000D03*
X114928400Y-123460000D03*
X112928400Y-123460000D03*
X116840000Y-137700000D03*
X119380000Y-137700000D03*
D19*
X93340000Y-82550000D03*
D20*
X95880000Y-82550000D03*
D21*
X131360000Y-79935000D03*
X131360000Y-86435000D03*
X135860000Y-86435000D03*
X135860000Y-79935000D03*
D13*
X142240000Y-90805000D03*
D14*
X134620000Y-90805000D03*
D21*
X140625000Y-79935000D03*
X140625000Y-86435000D03*
X145125000Y-79935000D03*
X145125000Y-86435000D03*
D22*
X91440000Y-93990000D03*
D23*
X91440000Y-96530000D03*
X91440000Y-99070000D03*
X91440000Y-101610000D03*
D13*
X102870000Y-88265000D03*
D14*
X95250000Y-88265000D03*
D16*
X101560000Y-98425000D03*
X99060000Y-98425000D03*
X101005000Y-140335000D03*
X103505000Y-140335000D03*
D15*
X132090000Y-146055000D03*
D24*
X132090000Y-148595000D03*
X132090000Y-151135000D03*
X132090000Y-153675000D03*
X132090000Y-156215000D03*
X132090000Y-158755000D03*
X132090000Y-161295000D03*
X132090000Y-163835000D03*
X132090000Y-166375000D03*
X132090000Y-168915000D03*
X139710000Y-168915000D03*
X139710000Y-166375000D03*
X139710000Y-163835000D03*
X139710000Y-161295000D03*
X139710000Y-158755000D03*
X139710000Y-156215000D03*
X139710000Y-153675000D03*
X139710000Y-151135000D03*
X139710000Y-148595000D03*
X139710000Y-146055000D03*
D15*
X98435000Y-145420000D03*
D24*
X98435000Y-147960000D03*
X98435000Y-150500000D03*
X98435000Y-153040000D03*
X98435000Y-155580000D03*
X98435000Y-158120000D03*
X98435000Y-160660000D03*
X98435000Y-163200000D03*
X98435000Y-165740000D03*
X98435000Y-168280000D03*
X106055000Y-168280000D03*
X106055000Y-165740000D03*
X106055000Y-163200000D03*
X106055000Y-160660000D03*
X106055000Y-158120000D03*
X106055000Y-155580000D03*
X106055000Y-153040000D03*
X106055000Y-150500000D03*
X106055000Y-147960000D03*
X106055000Y-145420000D03*
D15*
X96530000Y-102240000D03*
D24*
X96530000Y-104780000D03*
X96530000Y-107320000D03*
X96530000Y-109860000D03*
X96530000Y-112400000D03*
X96530000Y-114940000D03*
X96530000Y-117480000D03*
X96530000Y-120020000D03*
X96530000Y-122560000D03*
X96530000Y-125100000D03*
X104150000Y-125100000D03*
X104150000Y-122560000D03*
X104150000Y-120020000D03*
X104150000Y-117480000D03*
X104150000Y-114940000D03*
X104150000Y-112400000D03*
X104150000Y-109860000D03*
X104150000Y-107320000D03*
X104150000Y-104780000D03*
X104150000Y-102240000D03*
D13*
X142240000Y-95250000D03*
D14*
X134620000Y-95250000D03*
D16*
X134640000Y-139700000D03*
X137140000Y-139700000D03*
D25*
X144665700Y-187960000D03*
X142125700Y-187960000D03*
X139585700Y-187960000D03*
X137045700Y-187960000D03*
X134505700Y-187960000D03*
X131965700Y-187960000D03*
X129425700Y-187960000D03*
X126885700Y-187960000D03*
X124345700Y-187960000D03*
X121805700Y-187960000D03*
X119265700Y-187960000D03*
X116725700Y-187960000D03*
X114185700Y-187960000D03*
X111645700Y-187960000D03*
X109105700Y-187960000D03*
X106565700Y-187960000D03*
X104025700Y-187960000D03*
X101485700Y-187960000D03*
X98945700Y-187960000D03*
X96405700Y-187960000D03*
X93865700Y-187960000D03*
X91325700Y-187960000D03*
D19*
X100960000Y-82550000D03*
D20*
X103500000Y-82550000D03*
M02*
