G04 #@! TF.GenerationSoftware,KiCad,Pcbnew,(6.0.6)*
G04 #@! TF.CreationDate,2022-11-01T12:00:34+01:00*
G04 #@! TF.ProjectId,RTO_cart,52544f5f-6361-4727-942e-6b696361645f,rev?*
G04 #@! TF.SameCoordinates,Original*
G04 #@! TF.FileFunction,Copper,L2,Bot*
G04 #@! TF.FilePolarity,Positive*
%FSLAX46Y46*%
G04 Gerber Fmt 4.6, Leading zero omitted, Abs format (unit mm)*
G04 Created by KiCad (PCBNEW (6.0.6)) date 2022-11-01 12:00:34*
%MOMM*%
%LPD*%
G01*
G04 APERTURE LIST*
G04 #@! TA.AperFunction,ComponentPad*
%ADD10C,1.400000*%
G04 #@! TD*
G04 #@! TA.AperFunction,ComponentPad*
%ADD11O,1.400000X1.400000*%
G04 #@! TD*
G04 #@! TA.AperFunction,ComponentPad*
%ADD12R,1.600000X1.600000*%
G04 #@! TD*
G04 #@! TA.AperFunction,ComponentPad*
%ADD13C,1.600000*%
G04 #@! TD*
G04 #@! TA.AperFunction,ComponentPad*
%ADD14R,1.300000X1.300000*%
G04 #@! TD*
G04 #@! TA.AperFunction,ComponentPad*
%ADD15C,1.300000*%
G04 #@! TD*
G04 #@! TA.AperFunction,ComponentPad*
%ADD16R,1.800000X1.800000*%
G04 #@! TD*
G04 #@! TA.AperFunction,ComponentPad*
%ADD17C,1.800000*%
G04 #@! TD*
G04 #@! TA.AperFunction,ComponentPad*
%ADD18C,2.000000*%
G04 #@! TD*
G04 #@! TA.AperFunction,ComponentPad*
%ADD19R,1.700000X1.700000*%
G04 #@! TD*
G04 #@! TA.AperFunction,ComponentPad*
%ADD20O,1.700000X1.700000*%
G04 #@! TD*
G04 #@! TA.AperFunction,ComponentPad*
%ADD21O,1.600000X1.600000*%
G04 #@! TD*
G04 #@! TA.AperFunction,ConnectorPad*
%ADD22R,1.270000X8.840000*%
G04 #@! TD*
G04 #@! TA.AperFunction,ViaPad*
%ADD23C,0.800000*%
G04 #@! TD*
G04 #@! TA.AperFunction,Conductor*
%ADD24C,0.250000*%
G04 #@! TD*
G04 APERTURE END LIST*
D10*
X102870000Y-91440000D03*
D11*
X95250000Y-91440000D03*
D12*
X125730000Y-138430000D03*
D13*
X125730000Y-135890000D03*
X125730000Y-133350000D03*
X125730000Y-130810000D03*
X125730000Y-128270000D03*
X125730000Y-125730000D03*
X125730000Y-123190000D03*
X125730000Y-120650000D03*
X125730000Y-118110000D03*
X125730000Y-115570000D03*
X125730000Y-113030000D03*
X125730000Y-110490000D03*
X125730000Y-107950000D03*
X125730000Y-105410000D03*
X125730000Y-102870000D03*
X125730000Y-100330000D03*
X125730000Y-97790000D03*
X125730000Y-95250000D03*
X125730000Y-92710000D03*
X125730000Y-90170000D03*
X125730000Y-87630000D03*
X125730000Y-85090000D03*
X125730000Y-82550000D03*
X125730000Y-80010000D03*
X110490000Y-80010000D03*
X110490000Y-82550000D03*
X110490000Y-85090000D03*
X110490000Y-87630000D03*
X110490000Y-90170000D03*
X110490000Y-92710000D03*
X110490000Y-95250000D03*
X110490000Y-97790000D03*
X110490000Y-100330000D03*
X110490000Y-102870000D03*
X110490000Y-105410000D03*
X110490000Y-107950000D03*
X110490000Y-110490000D03*
X110490000Y-113030000D03*
X110490000Y-115570000D03*
X110490000Y-118110000D03*
X110490000Y-120650000D03*
X110490000Y-123190000D03*
X110490000Y-125730000D03*
X110490000Y-128270000D03*
X110490000Y-130810000D03*
X110490000Y-133350000D03*
X110490000Y-135890000D03*
X110490000Y-138430000D03*
X113030000Y-135890000D03*
X123190000Y-92710000D03*
X120650000Y-92710000D03*
X118110000Y-92710000D03*
X115570000Y-92710000D03*
X113030000Y-92710000D03*
D12*
X122679200Y-132130800D03*
D13*
X122679200Y-129590800D03*
X122679200Y-127050800D03*
X122679200Y-124510800D03*
X122679200Y-121970800D03*
D14*
X112928400Y-125460000D03*
D15*
X114928400Y-125460000D03*
X116928400Y-125460000D03*
X116928400Y-123460000D03*
X114928400Y-123460000D03*
X112928400Y-123460000D03*
X116840000Y-137700000D03*
X119380000Y-137700000D03*
D16*
X93340000Y-82550000D03*
D17*
X95880000Y-82550000D03*
D18*
X131360000Y-79935000D03*
X131360000Y-86435000D03*
X135860000Y-86435000D03*
X135860000Y-79935000D03*
D10*
X142240000Y-90805000D03*
D11*
X134620000Y-90805000D03*
D18*
X140625000Y-79935000D03*
X140625000Y-86435000D03*
X145125000Y-79935000D03*
X145125000Y-86435000D03*
D19*
X91440000Y-93990000D03*
D20*
X91440000Y-96530000D03*
X91440000Y-99070000D03*
X91440000Y-101610000D03*
D10*
X102870000Y-88265000D03*
D11*
X95250000Y-88265000D03*
D13*
X101560000Y-98425000D03*
X99060000Y-98425000D03*
X101005000Y-140335000D03*
X103505000Y-140335000D03*
D12*
X132090000Y-146055000D03*
D21*
X132090000Y-148595000D03*
X132090000Y-151135000D03*
X132090000Y-153675000D03*
X132090000Y-156215000D03*
X132090000Y-158755000D03*
X132090000Y-161295000D03*
X132090000Y-163835000D03*
X132090000Y-166375000D03*
X132090000Y-168915000D03*
X139710000Y-168915000D03*
X139710000Y-166375000D03*
X139710000Y-163835000D03*
X139710000Y-161295000D03*
X139710000Y-158755000D03*
X139710000Y-156215000D03*
X139710000Y-153675000D03*
X139710000Y-151135000D03*
X139710000Y-148595000D03*
X139710000Y-146055000D03*
D12*
X98435000Y-145420000D03*
D21*
X98435000Y-147960000D03*
X98435000Y-150500000D03*
X98435000Y-153040000D03*
X98435000Y-155580000D03*
X98435000Y-158120000D03*
X98435000Y-160660000D03*
X98435000Y-163200000D03*
X98435000Y-165740000D03*
X98435000Y-168280000D03*
X106055000Y-168280000D03*
X106055000Y-165740000D03*
X106055000Y-163200000D03*
X106055000Y-160660000D03*
X106055000Y-158120000D03*
X106055000Y-155580000D03*
X106055000Y-153040000D03*
X106055000Y-150500000D03*
X106055000Y-147960000D03*
X106055000Y-145420000D03*
D12*
X96530000Y-102240000D03*
D21*
X96530000Y-104780000D03*
X96530000Y-107320000D03*
X96530000Y-109860000D03*
X96530000Y-112400000D03*
X96530000Y-114940000D03*
X96530000Y-117480000D03*
X96530000Y-120020000D03*
X96530000Y-122560000D03*
X96530000Y-125100000D03*
X104150000Y-125100000D03*
X104150000Y-122560000D03*
X104150000Y-120020000D03*
X104150000Y-117480000D03*
X104150000Y-114940000D03*
X104150000Y-112400000D03*
X104150000Y-109860000D03*
X104150000Y-107320000D03*
X104150000Y-104780000D03*
X104150000Y-102240000D03*
D10*
X142240000Y-95250000D03*
D11*
X134620000Y-95250000D03*
D13*
X134640000Y-139700000D03*
X137140000Y-139700000D03*
D22*
X144665700Y-187960000D03*
X142125700Y-187960000D03*
X139585700Y-187960000D03*
X137045700Y-187960000D03*
X134505700Y-187960000D03*
X131965700Y-187960000D03*
X129425700Y-187960000D03*
X126885700Y-187960000D03*
X124345700Y-187960000D03*
X121805700Y-187960000D03*
X119265700Y-187960000D03*
X116725700Y-187960000D03*
X114185700Y-187960000D03*
X111645700Y-187960000D03*
X109105700Y-187960000D03*
X106565700Y-187960000D03*
X104025700Y-187960000D03*
X101485700Y-187960000D03*
X98945700Y-187960000D03*
X96405700Y-187960000D03*
X93865700Y-187960000D03*
X91325700Y-187960000D03*
D16*
X100960000Y-82550000D03*
D17*
X103500000Y-82550000D03*
D23*
X129441000Y-144883400D03*
X100084500Y-126359400D03*
X96217100Y-177290700D03*
X101398200Y-179824700D03*
X104155600Y-180653500D03*
X104893800Y-172901300D03*
X102260400Y-114143800D03*
X96859600Y-154186400D03*
X96096400Y-151914800D03*
X124853000Y-124603000D03*
X133750300Y-182135200D03*
D24*
X140625000Y-81363800D02*
X140625000Y-79935000D01*
X138089400Y-83899400D02*
X140625000Y-81363800D01*
X140625000Y-86435000D02*
X138089400Y-83899400D01*
X111680600Y-83899400D02*
X110490000Y-85090000D01*
X138089400Y-83899400D02*
X111680600Y-83899400D01*
X111685000Y-86435000D02*
X110490000Y-87630000D01*
X131360000Y-86435000D02*
X111685000Y-86435000D01*
X95250000Y-88265000D02*
X96275100Y-88265000D01*
X100486900Y-92476800D02*
X96275100Y-88265000D01*
X108183200Y-92476800D02*
X100486900Y-92476800D01*
X110490000Y-90170000D02*
X108183200Y-92476800D01*
X97155000Y-82550000D02*
X95880000Y-82550000D01*
X102870000Y-88265000D02*
X97155000Y-82550000D01*
X103915500Y-90394500D02*
X102870000Y-91440000D01*
X103915500Y-82965500D02*
X103915500Y-90394500D01*
X103500000Y-82550000D02*
X103915500Y-82965500D01*
X140230000Y-90805000D02*
X135860000Y-86435000D01*
X142240000Y-90805000D02*
X140230000Y-90805000D01*
X121930000Y-96530000D02*
X125730000Y-100330000D01*
X91440000Y-96530000D02*
X121930000Y-96530000D01*
X91440000Y-93990000D02*
X91440000Y-92814900D01*
X94317500Y-89937400D02*
X91440000Y-92814900D01*
X96336600Y-89937400D02*
X94317500Y-89937400D01*
X100379200Y-93980000D02*
X96336600Y-89937400D01*
X126065900Y-93980000D02*
X100379200Y-93980000D01*
X126875100Y-94789200D02*
X126065900Y-93980000D01*
X126875100Y-96644900D02*
X126875100Y-94789200D01*
X125730000Y-97790000D02*
X126875100Y-96644900D01*
X104150000Y-102240000D02*
X103024900Y-102240000D01*
X91440000Y-99070000D02*
X92615100Y-99070000D01*
X100341800Y-99556900D02*
X103024900Y-102240000D01*
X93102000Y-99556900D02*
X100341800Y-99556900D01*
X92615100Y-99070000D02*
X93102000Y-99556900D01*
X134620000Y-95250000D02*
X133594900Y-95250000D01*
X108361800Y-99153300D02*
X105275100Y-102240000D01*
X122013300Y-99153300D02*
X108361800Y-99153300D01*
X125730000Y-102870000D02*
X122013300Y-99153300D01*
X104150000Y-102240000D02*
X105275100Y-102240000D01*
X126856200Y-101988700D02*
X126856200Y-102870000D01*
X133594900Y-95250000D02*
X126856200Y-101988700D01*
X126856200Y-102870000D02*
X125730000Y-102870000D01*
X115515300Y-128324700D02*
X110490000Y-133350000D01*
X124093500Y-128324700D02*
X115515300Y-128324700D01*
X124093500Y-128224400D02*
X124093500Y-128324700D01*
X125317900Y-127000000D02*
X124093500Y-128224400D01*
X126057100Y-127000000D02*
X125317900Y-127000000D01*
X126856200Y-126200900D02*
X126057100Y-127000000D01*
X126856200Y-102870000D02*
X126856200Y-126200900D01*
X139710000Y-140649500D02*
X139710000Y-146055000D01*
X128600500Y-129540000D02*
X139710000Y-140649500D01*
X125308800Y-129540000D02*
X128600500Y-129540000D01*
X124093500Y-128324700D02*
X125308800Y-129540000D01*
X129441000Y-148486000D02*
X129441000Y-144883400D01*
X132090000Y-151135000D02*
X129441000Y-148486000D01*
X109725100Y-107950000D02*
X110490000Y-107950000D01*
X105275100Y-112400000D02*
X109725100Y-107950000D01*
X104150000Y-112400000D02*
X105275100Y-112400000D01*
X109725100Y-110490000D02*
X110490000Y-110490000D01*
X105275100Y-114940000D02*
X109725100Y-110490000D01*
X104150000Y-114940000D02*
X105275100Y-114940000D01*
X107310000Y-103510000D02*
X110490000Y-100330000D01*
X103793700Y-103510000D02*
X107310000Y-103510000D01*
X103024600Y-104279100D02*
X103793700Y-103510000D01*
X103024600Y-118050800D02*
X103024600Y-104279100D01*
X103868700Y-118894900D02*
X103024600Y-118050800D01*
X104150000Y-118894900D02*
X103868700Y-118894900D01*
X104150000Y-120020000D02*
X104150000Y-118894900D01*
X104625100Y-121434900D02*
X110490000Y-115570000D01*
X104150000Y-121434900D02*
X104625100Y-121434900D01*
X104150000Y-122560000D02*
X104150000Y-121434900D01*
X111636900Y-114176900D02*
X110490000Y-113030000D01*
X111636900Y-121116500D02*
X111636900Y-114176900D01*
X110833400Y-121920000D02*
X111636900Y-121116500D01*
X108455100Y-121920000D02*
X110833400Y-121920000D01*
X105275100Y-125100000D02*
X108455100Y-121920000D01*
X104150000Y-125100000D02*
X105275100Y-125100000D01*
X106235700Y-126359400D02*
X100084500Y-126359400D01*
X108135100Y-124460000D02*
X106235700Y-126359400D01*
X119614300Y-124460000D02*
X108135100Y-124460000D01*
X120884300Y-123190000D02*
X119614300Y-124460000D01*
X125730000Y-123190000D02*
X120884300Y-123190000D01*
X100084500Y-116822800D02*
X100084500Y-126359400D01*
X96931700Y-113670000D02*
X100084500Y-116822800D01*
X96208300Y-113670000D02*
X96931700Y-113670000D01*
X95361900Y-112823600D02*
X96208300Y-113670000D01*
X95361900Y-104251900D02*
X95361900Y-112823600D01*
X96248700Y-103365100D02*
X95361900Y-104251900D01*
X96530000Y-103365100D02*
X96248700Y-103365100D01*
X96530000Y-102240000D02*
X96530000Y-103365100D01*
X139710000Y-153675000D02*
X138584900Y-153675000D01*
X93865700Y-187960000D02*
X93865700Y-183214900D01*
X93865700Y-147235400D02*
X93865700Y-183214900D01*
X97287500Y-143813600D02*
X93865700Y-147235400D01*
X121652000Y-143813600D02*
X97287500Y-143813600D01*
X130388300Y-152549900D02*
X121652000Y-143813600D01*
X137459800Y-152549900D02*
X130388300Y-152549900D01*
X138584900Y-153675000D02*
X137459800Y-152549900D01*
X137314900Y-154945000D02*
X138584900Y-156215000D01*
X129640400Y-154945000D02*
X137314900Y-154945000D01*
X118959100Y-144263700D02*
X129640400Y-154945000D01*
X97474000Y-144263700D02*
X118959100Y-144263700D01*
X94548900Y-147188800D02*
X97474000Y-144263700D01*
X94548900Y-181358100D02*
X94548900Y-147188800D01*
X96405700Y-183214900D02*
X94548900Y-181358100D01*
X96405700Y-187960000D02*
X96405700Y-183214900D01*
X139710000Y-156215000D02*
X138584900Y-156215000D01*
X98945700Y-187960000D02*
X98945700Y-183214900D01*
X139710000Y-151135000D02*
X139710000Y-152260100D01*
X139943100Y-152260100D02*
X139710000Y-152260100D01*
X140874500Y-153191500D02*
X139943100Y-152260100D01*
X140874500Y-156643000D02*
X140874500Y-153191500D01*
X140123800Y-157393700D02*
X140874500Y-156643000D01*
X129697600Y-157393700D02*
X140123800Y-157393700D01*
X119138000Y-146834100D02*
X129697600Y-157393700D01*
X97917600Y-146834100D02*
X119138000Y-146834100D01*
X95003300Y-149748400D02*
X97917600Y-146834100D01*
X95003300Y-179272500D02*
X95003300Y-149748400D01*
X98945700Y-183214900D02*
X95003300Y-179272500D01*
X98435000Y-165740000D02*
X98435000Y-166865100D01*
X98201800Y-166865100D02*
X98435000Y-166865100D01*
X95491900Y-169575000D02*
X98201800Y-166865100D01*
X95491900Y-177701100D02*
X95491900Y-169575000D01*
X101005700Y-183214900D02*
X95491900Y-177701100D01*
X101485700Y-183214900D02*
X101005700Y-183214900D01*
X101485700Y-187960000D02*
X101485700Y-183214900D01*
X104025700Y-187960000D02*
X104025700Y-183214900D01*
X102141300Y-183214900D02*
X96217100Y-177290700D01*
X104025700Y-183214900D02*
X102141300Y-183214900D01*
X106565700Y-187960000D02*
X106565700Y-183214900D01*
X104788400Y-183214900D02*
X101398200Y-179824700D01*
X106565700Y-183214900D02*
X104788400Y-183214900D01*
X98668100Y-164325100D02*
X98435000Y-164325100D01*
X99849800Y-165506800D02*
X98668100Y-164325100D01*
X99849800Y-176980000D02*
X99849800Y-165506800D01*
X103430400Y-180560600D02*
X99849800Y-176980000D01*
X103430400Y-181021200D02*
X103430400Y-180560600D01*
X104743600Y-182334400D02*
X103430400Y-181021200D01*
X108225200Y-182334400D02*
X104743600Y-182334400D01*
X109105700Y-183214900D02*
X108225200Y-182334400D01*
X109105700Y-187960000D02*
X109105700Y-183214900D01*
X98435000Y-163200000D02*
X98435000Y-164325100D01*
X111645700Y-187960000D02*
X111645700Y-183214900D01*
X109084300Y-180653500D02*
X104155600Y-180653500D01*
X111645700Y-183214900D02*
X109084300Y-180653500D01*
X114185700Y-187960000D02*
X114185700Y-183214900D01*
X98435000Y-160660000D02*
X98435000Y-161785100D01*
X113469200Y-183214900D02*
X114185700Y-183214900D01*
X102419500Y-172165200D02*
X113469200Y-183214900D01*
X102419500Y-165536500D02*
X102419500Y-172165200D01*
X98668100Y-161785100D02*
X102419500Y-165536500D01*
X98435000Y-161785100D02*
X98668100Y-161785100D01*
X98668100Y-159245100D02*
X98435000Y-159245100D01*
X99624800Y-160201800D02*
X98668100Y-159245100D01*
X99624800Y-162105000D02*
X99624800Y-160201800D01*
X103453200Y-165933400D02*
X99624800Y-162105000D01*
X103453200Y-172501600D02*
X103453200Y-165933400D01*
X104809900Y-173858300D02*
X103453200Y-172501600D01*
X107369100Y-173858300D02*
X104809900Y-173858300D01*
X116725700Y-183214900D02*
X107369100Y-173858300D01*
X116725700Y-187960000D02*
X116725700Y-183214900D01*
X98435000Y-158120000D02*
X98435000Y-159245100D01*
X96530000Y-112400000D02*
X97655100Y-112400000D01*
X119265700Y-187960000D02*
X119265700Y-183214900D01*
X108952100Y-172901300D02*
X104893800Y-172901300D01*
X119265700Y-183214900D02*
X108952100Y-172901300D01*
X99398900Y-114143800D02*
X102260400Y-114143800D01*
X97655100Y-112400000D02*
X99398900Y-114143800D01*
X98435000Y-155580000D02*
X98435000Y-156705100D01*
X98668100Y-156705100D02*
X98435000Y-156705100D01*
X100299900Y-158336900D02*
X98668100Y-156705100D01*
X100299900Y-161624200D02*
X100299900Y-158336900D01*
X105685700Y-167010000D02*
X100299900Y-161624200D01*
X106441600Y-167010000D02*
X105685700Y-167010000D01*
X121805700Y-182374100D02*
X106441600Y-167010000D01*
X121805700Y-187960000D02*
X121805700Y-182374100D01*
X124345700Y-179893300D02*
X124345700Y-187960000D01*
X106382400Y-161930000D02*
X124345700Y-179893300D01*
X105656100Y-161930000D02*
X106382400Y-161930000D01*
X101350100Y-157624000D02*
X105656100Y-161930000D01*
X101350100Y-156826900D02*
X101350100Y-157624000D01*
X98709600Y-154186400D02*
X101350100Y-156826900D01*
X96859600Y-154186400D02*
X98709600Y-154186400D01*
X98435000Y-153040000D02*
X99560100Y-153040000D01*
X126885700Y-179872100D02*
X126885700Y-187960000D01*
X106403600Y-159390000D02*
X126885700Y-179872100D01*
X105676900Y-159390000D02*
X106403600Y-159390000D01*
X99560100Y-153273200D02*
X105676900Y-159390000D01*
X99560100Y-153040000D02*
X99560100Y-153273200D01*
X129425700Y-179869500D02*
X129425700Y-187960000D01*
X106406200Y-156850000D02*
X129425700Y-179869500D01*
X104045000Y-156850000D02*
X106406200Y-156850000D01*
X99109800Y-151914800D02*
X104045000Y-156850000D01*
X96096400Y-151914800D02*
X99109800Y-151914800D01*
X98435000Y-150500000D02*
X99560100Y-150500000D01*
X131965700Y-179851100D02*
X131965700Y-187960000D01*
X106424600Y-154310000D02*
X131965700Y-179851100D01*
X103370100Y-154310000D02*
X106424600Y-154310000D01*
X99560100Y-150500000D02*
X103370100Y-154310000D01*
X134505700Y-182890600D02*
X134505700Y-187960000D01*
X133750300Y-182135200D02*
X134505700Y-182890600D01*
X123530400Y-125925600D02*
X124853000Y-124603000D01*
X122004400Y-125925600D02*
X123530400Y-125925600D01*
X120835800Y-127094200D02*
X122004400Y-125925600D01*
X99781600Y-127094200D02*
X120835800Y-127094200D01*
X97655100Y-124967700D02*
X99781600Y-127094200D01*
X97655100Y-121988800D02*
X97655100Y-124967700D01*
X96811400Y-121145100D02*
X97655100Y-121988800D01*
X96530000Y-121145100D02*
X96811400Y-121145100D01*
X96530000Y-120020000D02*
X96530000Y-121145100D01*
X103370100Y-151770000D02*
X99560100Y-147960000D01*
X106406800Y-151770000D02*
X103370100Y-151770000D01*
X137045700Y-182408900D02*
X106406800Y-151770000D01*
X137045700Y-187960000D02*
X137045700Y-182408900D01*
X98435000Y-147960000D02*
X99560100Y-147960000D01*
X96530000Y-122560000D02*
X96530000Y-123685100D01*
X96296800Y-123685100D02*
X96530000Y-123685100D01*
X95380500Y-124601400D02*
X96296800Y-123685100D01*
X95380500Y-126903600D02*
X95380500Y-124601400D01*
X102255000Y-133778100D02*
X95380500Y-126903600D01*
X102255000Y-140692300D02*
X102255000Y-133778100D01*
X103044200Y-141481500D02*
X102255000Y-140692300D01*
X104426600Y-141481500D02*
X103044200Y-141481500D01*
X108617500Y-137290600D02*
X104426600Y-141481500D01*
X111253900Y-137290600D02*
X108617500Y-137290600D01*
X113550800Y-139587500D02*
X111253900Y-137290600D01*
X127170200Y-139587500D02*
X113550800Y-139587500D01*
X128215200Y-138542500D02*
X127170200Y-139587500D01*
X135075200Y-138542500D02*
X128215200Y-138542500D01*
X135784300Y-139251600D02*
X135075200Y-138542500D01*
X135784300Y-140194000D02*
X135784300Y-139251600D01*
X130940200Y-145038100D02*
X135784300Y-140194000D01*
X130940200Y-149041500D02*
X130940200Y-145038100D01*
X131689800Y-149791100D02*
X130940200Y-149041500D01*
X139979000Y-149791100D02*
X131689800Y-149791100D01*
X141354900Y-151167000D02*
X139979000Y-149791100D01*
X141354900Y-158764300D02*
X141354900Y-151167000D01*
X140094200Y-160025000D02*
X141354900Y-158764300D01*
X139353100Y-160025000D02*
X140094200Y-160025000D01*
X138291300Y-161086800D02*
X139353100Y-160025000D01*
X138291300Y-161816100D02*
X138291300Y-161086800D01*
X132317600Y-167789800D02*
X138291300Y-161816100D01*
X131623800Y-167789800D02*
X132317600Y-167789800D01*
X130932300Y-168481300D02*
X131623800Y-167789800D01*
X130932300Y-169557200D02*
X130932300Y-168481300D01*
X139585700Y-178210600D02*
X130932300Y-169557200D01*
X139585700Y-187960000D02*
X139585700Y-178210600D01*
X94565100Y-82090500D02*
X94565100Y-82550000D01*
X95330700Y-81324900D02*
X94565100Y-82090500D01*
X98509800Y-81324900D02*
X95330700Y-81324900D01*
X99734900Y-82550000D02*
X98509800Y-81324900D01*
X100960000Y-82550000D02*
X99734900Y-82550000D01*
X93340000Y-82550000D02*
X94565100Y-82550000D01*
X144665700Y-182615800D02*
X132090000Y-170040100D01*
X144665700Y-187960000D02*
X144665700Y-182615800D01*
X132090000Y-168915000D02*
X132090000Y-170040100D01*
X132090000Y-146055000D02*
X132090000Y-144929900D01*
X108580000Y-104780000D02*
X110490000Y-102870000D01*
X104150000Y-104780000D02*
X108580000Y-104780000D01*
X136044900Y-146055000D02*
X132090000Y-146055000D01*
X138584900Y-148595000D02*
X136044900Y-146055000D01*
X139710000Y-148595000D02*
X138584900Y-148595000D01*
X137140000Y-139879900D02*
X132090000Y-144929900D01*
X137140000Y-139700000D02*
X137140000Y-139879900D01*
X91074700Y-100434900D02*
X91440000Y-100434900D01*
X90237600Y-99597800D02*
X91074700Y-100434900D01*
X90237600Y-98581900D02*
X90237600Y-99597800D01*
X90941400Y-97878100D02*
X90237600Y-98581900D01*
X98513100Y-97878100D02*
X90941400Y-97878100D01*
X99060000Y-98425000D02*
X98513100Y-97878100D01*
X91440000Y-101610000D02*
X91440000Y-100434900D01*
X124347500Y-138687400D02*
X124604900Y-138430000D01*
X113287400Y-138687400D02*
X124347500Y-138687400D01*
X110490000Y-135890000D02*
X113287400Y-138687400D01*
X125730000Y-138430000D02*
X124604900Y-138430000D01*
X127192700Y-138092400D02*
X126855100Y-138430000D01*
X135532400Y-138092400D02*
X127192700Y-138092400D01*
X137140000Y-139700000D02*
X135532400Y-138092400D01*
X125730000Y-138430000D02*
X126855100Y-138430000D01*
X103505000Y-139704800D02*
X103505000Y-140335000D01*
X107319900Y-135889900D02*
X103505000Y-139704800D01*
X96530000Y-125100000D02*
X107319900Y-135889900D01*
X110490000Y-135889900D02*
X110490000Y-135890000D01*
X107319900Y-135889900D02*
X110490000Y-135889900D01*
X134255800Y-140084200D02*
X134640000Y-139700000D01*
X112144200Y-140084200D02*
X134255800Y-140084200D01*
X110490000Y-138430000D02*
X112144200Y-140084200D01*
X106988400Y-141931600D02*
X110490000Y-138430000D01*
X102601600Y-141931600D02*
X106988400Y-141931600D01*
X101005000Y-140335000D02*
X102601600Y-141931600D01*
X91325700Y-149138800D02*
X91325700Y-187960000D01*
X100129500Y-140335000D02*
X91325700Y-149138800D01*
X101005000Y-140335000D02*
X100129500Y-140335000D01*
M02*
