G04 #@! TF.GenerationSoftware,KiCad,Pcbnew,(6.0.6)*
G04 #@! TF.CreationDate,2022-11-01T12:00:34+01:00*
G04 #@! TF.ProjectId,RTO_cart,52544f5f-6361-4727-942e-6b696361645f,rev?*
G04 #@! TF.SameCoordinates,Original*
G04 #@! TF.FileFunction,Copper,L1,Top*
G04 #@! TF.FilePolarity,Positive*
%FSLAX46Y46*%
G04 Gerber Fmt 4.6, Leading zero omitted, Abs format (unit mm)*
G04 Created by KiCad (PCBNEW (6.0.6)) date 2022-11-01 12:00:34*
%MOMM*%
%LPD*%
G01*
G04 APERTURE LIST*
G04 #@! TA.AperFunction,ComponentPad*
%ADD10C,1.400000*%
G04 #@! TD*
G04 #@! TA.AperFunction,ComponentPad*
%ADD11O,1.400000X1.400000*%
G04 #@! TD*
G04 #@! TA.AperFunction,ComponentPad*
%ADD12R,1.600000X1.600000*%
G04 #@! TD*
G04 #@! TA.AperFunction,ComponentPad*
%ADD13C,1.600000*%
G04 #@! TD*
G04 #@! TA.AperFunction,ComponentPad*
%ADD14R,1.300000X1.300000*%
G04 #@! TD*
G04 #@! TA.AperFunction,ComponentPad*
%ADD15C,1.300000*%
G04 #@! TD*
G04 #@! TA.AperFunction,ComponentPad*
%ADD16R,1.800000X1.800000*%
G04 #@! TD*
G04 #@! TA.AperFunction,ComponentPad*
%ADD17C,1.800000*%
G04 #@! TD*
G04 #@! TA.AperFunction,ComponentPad*
%ADD18C,2.000000*%
G04 #@! TD*
G04 #@! TA.AperFunction,ComponentPad*
%ADD19R,1.700000X1.700000*%
G04 #@! TD*
G04 #@! TA.AperFunction,ComponentPad*
%ADD20O,1.700000X1.700000*%
G04 #@! TD*
G04 #@! TA.AperFunction,ComponentPad*
%ADD21O,1.600000X1.600000*%
G04 #@! TD*
G04 #@! TA.AperFunction,ConnectorPad*
%ADD22R,1.270000X8.840000*%
G04 #@! TD*
G04 #@! TA.AperFunction,ViaPad*
%ADD23C,0.800000*%
G04 #@! TD*
G04 #@! TA.AperFunction,Conductor*
%ADD24C,0.250000*%
G04 #@! TD*
G04 APERTURE END LIST*
D10*
X102870000Y-91440000D03*
D11*
X95250000Y-91440000D03*
D12*
X125730000Y-138430000D03*
D13*
X125730000Y-135890000D03*
X125730000Y-133350000D03*
X125730000Y-130810000D03*
X125730000Y-128270000D03*
X125730000Y-125730000D03*
X125730000Y-123190000D03*
X125730000Y-120650000D03*
X125730000Y-118110000D03*
X125730000Y-115570000D03*
X125730000Y-113030000D03*
X125730000Y-110490000D03*
X125730000Y-107950000D03*
X125730000Y-105410000D03*
X125730000Y-102870000D03*
X125730000Y-100330000D03*
X125730000Y-97790000D03*
X125730000Y-95250000D03*
X125730000Y-92710000D03*
X125730000Y-90170000D03*
X125730000Y-87630000D03*
X125730000Y-85090000D03*
X125730000Y-82550000D03*
X125730000Y-80010000D03*
X110490000Y-80010000D03*
X110490000Y-82550000D03*
X110490000Y-85090000D03*
X110490000Y-87630000D03*
X110490000Y-90170000D03*
X110490000Y-92710000D03*
X110490000Y-95250000D03*
X110490000Y-97790000D03*
X110490000Y-100330000D03*
X110490000Y-102870000D03*
X110490000Y-105410000D03*
X110490000Y-107950000D03*
X110490000Y-110490000D03*
X110490000Y-113030000D03*
X110490000Y-115570000D03*
X110490000Y-118110000D03*
X110490000Y-120650000D03*
X110490000Y-123190000D03*
X110490000Y-125730000D03*
X110490000Y-128270000D03*
X110490000Y-130810000D03*
X110490000Y-133350000D03*
X110490000Y-135890000D03*
X110490000Y-138430000D03*
X113030000Y-135890000D03*
X123190000Y-92710000D03*
X120650000Y-92710000D03*
X118110000Y-92710000D03*
X115570000Y-92710000D03*
X113030000Y-92710000D03*
D12*
X122679200Y-132130800D03*
D13*
X122679200Y-129590800D03*
X122679200Y-127050800D03*
X122679200Y-124510800D03*
X122679200Y-121970800D03*
D14*
X112928400Y-125460000D03*
D15*
X114928400Y-125460000D03*
X116928400Y-125460000D03*
X116928400Y-123460000D03*
X114928400Y-123460000D03*
X112928400Y-123460000D03*
X116840000Y-137700000D03*
X119380000Y-137700000D03*
D16*
X93340000Y-82550000D03*
D17*
X95880000Y-82550000D03*
D18*
X131360000Y-79935000D03*
X131360000Y-86435000D03*
X135860000Y-86435000D03*
X135860000Y-79935000D03*
D10*
X142240000Y-90805000D03*
D11*
X134620000Y-90805000D03*
D18*
X140625000Y-79935000D03*
X140625000Y-86435000D03*
X145125000Y-79935000D03*
X145125000Y-86435000D03*
D19*
X91440000Y-93990000D03*
D20*
X91440000Y-96530000D03*
X91440000Y-99070000D03*
X91440000Y-101610000D03*
D10*
X102870000Y-88265000D03*
D11*
X95250000Y-88265000D03*
D13*
X101560000Y-98425000D03*
X99060000Y-98425000D03*
X101005000Y-140335000D03*
X103505000Y-140335000D03*
D12*
X132090000Y-146055000D03*
D21*
X132090000Y-148595000D03*
X132090000Y-151135000D03*
X132090000Y-153675000D03*
X132090000Y-156215000D03*
X132090000Y-158755000D03*
X132090000Y-161295000D03*
X132090000Y-163835000D03*
X132090000Y-166375000D03*
X132090000Y-168915000D03*
X139710000Y-168915000D03*
X139710000Y-166375000D03*
X139710000Y-163835000D03*
X139710000Y-161295000D03*
X139710000Y-158755000D03*
X139710000Y-156215000D03*
X139710000Y-153675000D03*
X139710000Y-151135000D03*
X139710000Y-148595000D03*
X139710000Y-146055000D03*
D12*
X98435000Y-145420000D03*
D21*
X98435000Y-147960000D03*
X98435000Y-150500000D03*
X98435000Y-153040000D03*
X98435000Y-155580000D03*
X98435000Y-158120000D03*
X98435000Y-160660000D03*
X98435000Y-163200000D03*
X98435000Y-165740000D03*
X98435000Y-168280000D03*
X106055000Y-168280000D03*
X106055000Y-165740000D03*
X106055000Y-163200000D03*
X106055000Y-160660000D03*
X106055000Y-158120000D03*
X106055000Y-155580000D03*
X106055000Y-153040000D03*
X106055000Y-150500000D03*
X106055000Y-147960000D03*
X106055000Y-145420000D03*
D12*
X96530000Y-102240000D03*
D21*
X96530000Y-104780000D03*
X96530000Y-107320000D03*
X96530000Y-109860000D03*
X96530000Y-112400000D03*
X96530000Y-114940000D03*
X96530000Y-117480000D03*
X96530000Y-120020000D03*
X96530000Y-122560000D03*
X96530000Y-125100000D03*
X104150000Y-125100000D03*
X104150000Y-122560000D03*
X104150000Y-120020000D03*
X104150000Y-117480000D03*
X104150000Y-114940000D03*
X104150000Y-112400000D03*
X104150000Y-109860000D03*
X104150000Y-107320000D03*
X104150000Y-104780000D03*
X104150000Y-102240000D03*
D10*
X142240000Y-95250000D03*
D11*
X134620000Y-95250000D03*
D13*
X134640000Y-139700000D03*
X137140000Y-139700000D03*
D22*
X144665700Y-187960000D03*
X142125700Y-187960000D03*
X139585700Y-187960000D03*
X137045700Y-187960000D03*
X134505700Y-187960000D03*
X131965700Y-187960000D03*
X129425700Y-187960000D03*
X126885700Y-187960000D03*
X124345700Y-187960000D03*
X121805700Y-187960000D03*
X119265700Y-187960000D03*
X116725700Y-187960000D03*
X114185700Y-187960000D03*
X111645700Y-187960000D03*
X109105700Y-187960000D03*
X106565700Y-187960000D03*
X104025700Y-187960000D03*
X101485700Y-187960000D03*
X98945700Y-187960000D03*
X96405700Y-187960000D03*
X93865700Y-187960000D03*
X91325700Y-187960000D03*
D16*
X100960000Y-82550000D03*
D17*
X103500000Y-82550000D03*
D23*
X129441000Y-144883400D03*
X100084500Y-126359400D03*
X96217100Y-177290700D03*
X101398200Y-179824700D03*
X104155600Y-180653500D03*
X104893800Y-172901300D03*
X102260400Y-114143800D03*
X96859600Y-154186400D03*
X96096400Y-151914800D03*
X124853000Y-124603000D03*
X133750300Y-182135200D03*
D24*
X131360000Y-86435000D02*
X131360000Y-79935000D01*
X135860000Y-79935000D02*
X135860000Y-86435000D01*
X145125000Y-86435000D02*
X145125000Y-79935000D01*
X145125000Y-92365000D02*
X145125000Y-86435000D01*
X142240000Y-95250000D02*
X145125000Y-92365000D01*
X134620000Y-95250000D02*
X134620000Y-90805000D01*
X106055000Y-137785000D02*
X110490000Y-133350000D01*
X106055000Y-145420000D02*
X106055000Y-137785000D01*
X95250000Y-94452100D02*
X95250000Y-91440000D01*
X91807200Y-97894900D02*
X95250000Y-94452100D01*
X91440000Y-97894900D02*
X91807200Y-97894900D01*
X91440000Y-99070000D02*
X91440000Y-97894900D01*
X124560900Y-126899100D02*
X125730000Y-125730000D01*
X124560900Y-145302100D02*
X124560900Y-126899100D01*
X131808700Y-152549900D02*
X124560900Y-145302100D01*
X132090000Y-152549900D02*
X131808700Y-152549900D01*
X132090000Y-153675000D02*
X132090000Y-152549900D01*
X129441000Y-131981000D02*
X129441000Y-144883400D01*
X125730000Y-128270000D02*
X129441000Y-131981000D01*
X127593700Y-132673700D02*
X125730000Y-130810000D01*
X127593700Y-144098700D02*
X127593700Y-132673700D01*
X132090000Y-148595000D02*
X127593700Y-144098700D01*
X111626300Y-129406300D02*
X110490000Y-128270000D01*
X111626300Y-144084900D02*
X111626300Y-129406300D01*
X106336300Y-149374900D02*
X111626300Y-144084900D01*
X106055000Y-149374900D02*
X106336300Y-149374900D01*
X106055000Y-150500000D02*
X106055000Y-149374900D01*
X106055000Y-153040000D02*
X106055000Y-151914900D01*
X105593100Y-135706900D02*
X110490000Y-130810000D01*
X105593100Y-141608000D02*
X105593100Y-135706900D01*
X104917900Y-142283200D02*
X105593100Y-141608000D01*
X104917900Y-151011000D02*
X104917900Y-142283200D01*
X105821800Y-151914900D02*
X104917900Y-151011000D01*
X106055000Y-151914900D02*
X105821800Y-151914900D01*
X111904800Y-124604800D02*
X110490000Y-123190000D01*
X111904800Y-127876700D02*
X111904800Y-124604800D01*
X114197600Y-130169500D02*
X111904800Y-127876700D01*
X114197600Y-146593600D02*
X114197600Y-130169500D01*
X106336300Y-154454900D02*
X114197600Y-146593600D01*
X106055000Y-154454900D02*
X106336300Y-154454900D01*
X106055000Y-155580000D02*
X106055000Y-154454900D01*
X106055000Y-158120000D02*
X106055000Y-156994900D01*
X105143000Y-131077000D02*
X110490000Y-125730000D01*
X105143000Y-141421500D02*
X105143000Y-131077000D01*
X104448500Y-142116000D02*
X105143000Y-141421500D01*
X104448500Y-155621600D02*
X104448500Y-142116000D01*
X105821800Y-156994900D02*
X104448500Y-155621600D01*
X106055000Y-156994900D02*
X105821800Y-156994900D01*
X113928500Y-96148500D02*
X110490000Y-92710000D01*
X113928500Y-127776600D02*
X113928500Y-96148500D01*
X114662700Y-128510800D02*
X113928500Y-127776600D01*
X114662700Y-151208500D02*
X114662700Y-128510800D01*
X106336300Y-159534900D02*
X114662700Y-151208500D01*
X106055000Y-159534900D02*
X106336300Y-159534900D01*
X106055000Y-160660000D02*
X106055000Y-159534900D01*
X105821800Y-162074900D02*
X106055000Y-162074900D01*
X103977300Y-160230400D02*
X105821800Y-162074900D01*
X103977300Y-141632400D02*
X103977300Y-160230400D01*
X104692900Y-140916800D02*
X103977300Y-141632400D01*
X104692900Y-127315100D02*
X104692900Y-140916800D01*
X110088000Y-121920000D02*
X104692900Y-127315100D01*
X110811300Y-121920000D02*
X110088000Y-121920000D01*
X111623500Y-121107800D02*
X110811300Y-121920000D01*
X111623500Y-96383500D02*
X111623500Y-121107800D01*
X110490000Y-95250000D02*
X111623500Y-96383500D01*
X106055000Y-163200000D02*
X106055000Y-162074900D01*
X106288100Y-164614900D02*
X106055000Y-164614900D01*
X118404800Y-152498200D02*
X106288100Y-164614900D01*
X118404800Y-102575200D02*
X118404800Y-152498200D01*
X125730000Y-95250000D02*
X118404800Y-102575200D01*
X106055000Y-165740000D02*
X106055000Y-164614900D01*
X106055000Y-168280000D02*
X106055000Y-167154900D01*
X106336300Y-167154900D02*
X106055000Y-167154900D01*
X124032800Y-149458400D02*
X106336300Y-167154900D01*
X124032800Y-113070700D02*
X124032800Y-149458400D01*
X125343500Y-111760000D02*
X124032800Y-113070700D01*
X126099300Y-111760000D02*
X125343500Y-111760000D01*
X126883400Y-110975900D02*
X126099300Y-111760000D01*
X126883400Y-93863400D02*
X126883400Y-110975900D01*
X125730000Y-92710000D02*
X126883400Y-93863400D01*
X103916800Y-108445100D02*
X104150000Y-108445100D01*
X102983100Y-109378800D02*
X103916800Y-108445100D01*
X102983100Y-112881500D02*
X102983100Y-109378800D01*
X103771600Y-113670000D02*
X102983100Y-112881500D01*
X104518600Y-113670000D02*
X103771600Y-113670000D01*
X105312300Y-114463700D02*
X104518600Y-113670000D01*
X105312300Y-115472300D02*
X105312300Y-114463700D01*
X110490000Y-120650000D02*
X105312300Y-115472300D01*
X104150000Y-107320000D02*
X104150000Y-108445100D01*
X105275100Y-112895100D02*
X110490000Y-118110000D01*
X105275100Y-111828800D02*
X105275100Y-112895100D01*
X104431400Y-110985100D02*
X105275100Y-111828800D01*
X104150000Y-110985100D02*
X104431400Y-110985100D01*
X104150000Y-109860000D02*
X104150000Y-110985100D01*
X109075200Y-99204800D02*
X110490000Y-97790000D01*
X109075200Y-101446100D02*
X109075200Y-99204800D01*
X104471300Y-106050000D02*
X109075200Y-101446100D01*
X103762100Y-106050000D02*
X104471300Y-106050000D01*
X102503600Y-107308500D02*
X103762100Y-106050000D01*
X102503600Y-113200000D02*
X102503600Y-107308500D01*
X103024900Y-113721300D02*
X102503600Y-113200000D01*
X103024900Y-115511200D02*
X103024900Y-113721300D01*
X103868600Y-116354900D02*
X103024900Y-115511200D01*
X104150000Y-116354900D02*
X103868600Y-116354900D01*
X104150000Y-117480000D02*
X104150000Y-116354900D01*
X98435000Y-145420000D02*
X98435000Y-144294900D01*
X100084500Y-135737400D02*
X100084500Y-126359400D01*
X98435000Y-137386900D02*
X100084500Y-135737400D01*
X98435000Y-144294900D02*
X98435000Y-137386900D01*
X98945700Y-187960000D02*
X101485700Y-187960000D01*
X96405700Y-183214900D02*
X104025700Y-183214900D01*
X96405700Y-187960000D02*
X96405700Y-183214900D01*
X104025700Y-187960000D02*
X104025700Y-183214900D01*
X95358600Y-176432200D02*
X96217100Y-177290700D01*
X95358600Y-137548800D02*
X95358600Y-176432200D01*
X98009000Y-134898400D02*
X95358600Y-137548800D01*
X98009000Y-122444800D02*
X98009000Y-134898400D01*
X96853900Y-121289700D02*
X98009000Y-122444800D01*
X96160700Y-121289700D02*
X96853900Y-121289700D01*
X94916500Y-120045500D02*
X96160700Y-121289700D01*
X94916500Y-106393500D02*
X94916500Y-120045500D01*
X96530000Y-104780000D02*
X94916500Y-106393500D01*
X106115600Y-182764800D02*
X106565700Y-183214900D01*
X94315800Y-182764800D02*
X106115600Y-182764800D01*
X93865700Y-183214900D02*
X94315800Y-182764800D01*
X106565700Y-187960000D02*
X106565700Y-183214900D01*
X93865700Y-187960000D02*
X93865700Y-183214900D01*
X96530000Y-107320000D02*
X96530000Y-108445100D01*
X96763100Y-108445100D02*
X96530000Y-108445100D01*
X99359300Y-111041300D02*
X96763100Y-108445100D01*
X99359300Y-135826000D02*
X99359300Y-111041300D01*
X97309800Y-137875500D02*
X99359300Y-135826000D01*
X97309800Y-153611100D02*
X97309800Y-137875500D01*
X97610300Y-153911600D02*
X97309800Y-153611100D01*
X97610300Y-154512400D02*
X97610300Y-153911600D01*
X97309800Y-154812900D02*
X97610300Y-154512400D01*
X97309800Y-163708900D02*
X97309800Y-154812900D01*
X98070900Y-164470000D02*
X97309800Y-163708900D01*
X98832200Y-164470000D02*
X98070900Y-164470000D01*
X101398200Y-167036000D02*
X98832200Y-164470000D01*
X101398200Y-179824700D02*
X101398200Y-167036000D01*
X95366700Y-108696700D02*
X96530000Y-109860000D01*
X95366700Y-106864000D02*
X95366700Y-108696700D01*
X96042400Y-106188300D02*
X95366700Y-106864000D01*
X96999300Y-106188300D02*
X96042400Y-106188300D01*
X100809600Y-109998600D02*
X96999300Y-106188300D01*
X100809600Y-135648900D02*
X100809600Y-109998600D01*
X99866900Y-136591600D02*
X100809600Y-135648900D01*
X99866900Y-158507200D02*
X99866900Y-136591600D01*
X104155600Y-162795900D02*
X99866900Y-158507200D01*
X104155600Y-180653500D02*
X104155600Y-162795900D01*
X102260400Y-159932300D02*
X102260400Y-114143800D01*
X104893800Y-162565700D02*
X102260400Y-159932300D01*
X104893800Y-172901300D02*
X104893800Y-162565700D01*
X96530000Y-114940000D02*
X96530000Y-116065100D01*
X96706400Y-116065100D02*
X96530000Y-116065100D01*
X98909200Y-118267900D02*
X96706400Y-116065100D01*
X98909200Y-135639500D02*
X98909200Y-118267900D01*
X96859600Y-137689100D02*
X98909200Y-135639500D01*
X96859600Y-154186400D02*
X96859600Y-137689100D01*
X96530000Y-117480000D02*
X96530000Y-118605100D01*
X96706400Y-118605100D02*
X96530000Y-118605100D01*
X98459100Y-120357800D02*
X96706400Y-118605100D01*
X98459100Y-135453000D02*
X98459100Y-120357800D01*
X96096400Y-137815700D02*
X98459100Y-135453000D01*
X96096400Y-151914800D02*
X96096400Y-137815700D01*
X133750300Y-142717800D02*
X133750300Y-182135200D01*
X133440100Y-142407600D02*
X133750300Y-142717800D01*
X133440100Y-131761500D02*
X133440100Y-142407600D01*
X126281600Y-124603000D02*
X133440100Y-131761500D01*
X124853000Y-124603000D02*
X126281600Y-124603000D01*
X131965700Y-187960000D02*
X131965700Y-183327400D01*
X132090000Y-169477500D02*
X132090000Y-170040100D01*
X132090000Y-169477500D02*
X132090000Y-168915000D01*
X100960000Y-82550000D02*
X100960000Y-83775100D01*
X104150000Y-104780000D02*
X103024900Y-104780000D01*
X100960000Y-97288700D02*
X100960000Y-83775100D01*
X100196300Y-97288700D02*
X100960000Y-97288700D01*
X99060000Y-98425000D02*
X100196300Y-97288700D01*
X103024900Y-98260900D02*
X103024900Y-104780000D01*
X102052700Y-97288700D02*
X103024900Y-98260900D01*
X100960000Y-97288700D02*
X102052700Y-97288700D01*
X96296800Y-123974900D02*
X96530000Y-123974900D01*
X91440000Y-119118100D02*
X96296800Y-123974900D01*
X91440000Y-101610000D02*
X91440000Y-119118100D01*
X96530000Y-125100000D02*
X96530000Y-123974900D01*
X106288100Y-146834900D02*
X106055000Y-146834900D01*
X107469800Y-145653200D02*
X106288100Y-146834900D01*
X107469800Y-138910200D02*
X107469800Y-145653200D01*
X110490000Y-135890000D02*
X107469800Y-138910200D01*
X106055000Y-147960000D02*
X106055000Y-146834900D01*
X93182500Y-183214900D02*
X98435000Y-177962400D01*
X91325700Y-183214900D02*
X93182500Y-183214900D01*
X102064100Y-181591500D02*
X98435000Y-177962400D01*
X110022300Y-181591500D02*
X102064100Y-181591500D01*
X111645700Y-183214900D02*
X110022300Y-181591500D01*
X111645700Y-183327400D02*
X111645700Y-183214900D01*
X98435000Y-177962400D02*
X98435000Y-168280000D01*
X91325700Y-187960000D02*
X91325700Y-183214900D01*
X115025800Y-183214900D02*
X114185700Y-183214900D01*
X116725700Y-184914800D02*
X115025800Y-183214900D01*
X116725700Y-186773700D02*
X116725700Y-184914800D01*
X111645700Y-185643700D02*
X114185700Y-185643700D01*
X114185700Y-187960000D02*
X114185700Y-185643700D01*
X114185700Y-185643700D02*
X114185700Y-183214900D01*
X111645700Y-187960000D02*
X111645700Y-185643700D01*
X111645700Y-185643700D02*
X111645700Y-183327400D01*
X121805700Y-187960000D02*
X121805700Y-183214900D01*
X131965700Y-183214900D02*
X121805700Y-183214900D01*
X131965700Y-183327400D02*
X131965700Y-183214900D01*
X131965700Y-170164400D02*
X132090000Y-170040100D01*
X131965700Y-183214900D02*
X131965700Y-170164400D01*
X116725700Y-187960000D02*
X116725700Y-187366800D01*
X116725700Y-187366800D02*
X116725700Y-186773700D01*
X119265700Y-187960000D02*
X119265700Y-183327400D01*
X119378200Y-183214900D02*
X121805700Y-183214900D01*
X119265700Y-183327400D02*
X119378200Y-183214900D01*
X116725700Y-185867400D02*
X119265700Y-183327400D01*
X116725700Y-186773700D02*
X116725700Y-185867400D01*
X132323100Y-167789900D02*
X132090000Y-167789900D01*
X133231300Y-166881700D02*
X132323100Y-167789900D01*
X133231300Y-148040100D02*
X133231300Y-166881700D01*
X132371300Y-147180100D02*
X133231300Y-148040100D01*
X132090000Y-147180100D02*
X132371300Y-147180100D01*
X132090000Y-146055000D02*
X132090000Y-147180100D01*
X132090000Y-168915000D02*
X132090000Y-167789900D01*
X101259700Y-98725300D02*
X101560000Y-98425000D01*
X101259700Y-140080300D02*
X101259700Y-98725300D01*
X101005000Y-140335000D02*
X101259700Y-140080300D01*
M02*
