M48
; DRILL file {KiCad (6.0.6)} date Tue Nov  1 12:00:37 2022
; FORMAT={-:-/ absolute / metric / decimal}
; #@! TF.CreationDate,2022-11-01T12:00:37+01:00
; #@! TF.GenerationSoftware,Kicad,Pcbnew,(6.0.6)
; #@! TF.FileFunction,Plated,1,2,PTH
FMAT,2
METRIC
; #@! TA.AperFunction,Plated,PTH,ViaDrill
T1C0.400
; #@! TA.AperFunction,Plated,PTH,ComponentDrill
T2C0.700
; #@! TA.AperFunction,Plated,PTH,ComponentDrill
T3C0.800
; #@! TA.AperFunction,Plated,PTH,ComponentDrill
T4C0.900
; #@! TA.AperFunction,Plated,PTH,ComponentDrill
T5C1.000
; #@! TA.AperFunction,Plated,PTH,ComponentDrill
T6C1.100
%
G90
G05
T1
X96.096Y-151.915
X96.217Y-177.291
X96.86Y-154.186
X100.084Y-126.359
X101.398Y-179.825
X102.26Y-114.144
X104.156Y-180.653
X104.894Y-172.901
X124.853Y-124.603
X129.441Y-144.883
X133.75Y-182.135
T2
X95.25Y-88.265
X95.25Y-91.44
X102.87Y-88.265
X102.87Y-91.44
X134.62Y-90.805
X134.62Y-95.25
X142.24Y-90.805
X142.24Y-95.25
T3
X96.53Y-102.24
X96.53Y-104.78
X96.53Y-107.32
X96.53Y-109.86
X96.53Y-112.4
X96.53Y-114.94
X96.53Y-117.48
X96.53Y-120.02
X96.53Y-122.56
X96.53Y-125.1
X98.435Y-145.42
X98.435Y-147.96
X98.435Y-150.5
X98.435Y-153.04
X98.435Y-155.58
X98.435Y-158.12
X98.435Y-160.66
X98.435Y-163.2
X98.435Y-165.74
X98.435Y-168.28
X99.06Y-98.425
X101.005Y-140.335
X101.56Y-98.425
X103.505Y-140.335
X104.15Y-102.24
X104.15Y-104.78
X104.15Y-107.32
X104.15Y-109.86
X104.15Y-112.4
X104.15Y-114.94
X104.15Y-117.48
X104.15Y-120.02
X104.15Y-122.56
X104.15Y-125.1
X106.055Y-145.42
X106.055Y-147.96
X106.055Y-150.5
X106.055Y-153.04
X106.055Y-155.58
X106.055Y-158.12
X106.055Y-160.66
X106.055Y-163.2
X106.055Y-165.74
X106.055Y-168.28
X112.928Y-123.46
X112.928Y-125.46
X114.928Y-123.46
X114.928Y-125.46
X116.84Y-137.7
X116.928Y-123.46
X116.928Y-125.46
X119.38Y-137.7
X132.09Y-146.055
X132.09Y-148.595
X132.09Y-151.135
X132.09Y-153.675
X132.09Y-156.215
X132.09Y-158.755
X132.09Y-161.295
X132.09Y-163.835
X132.09Y-166.375
X132.09Y-168.915
X134.64Y-139.7
X137.14Y-139.7
X139.71Y-146.055
X139.71Y-148.595
X139.71Y-151.135
X139.71Y-153.675
X139.71Y-156.215
X139.71Y-158.755
X139.71Y-161.295
X139.71Y-163.835
X139.71Y-166.375
X139.71Y-168.915
T4
X93.34Y-82.55
X95.88Y-82.55
X100.96Y-82.55
X103.5Y-82.55
T5
X91.44Y-93.99
X91.44Y-96.53
X91.44Y-99.07
X91.44Y-101.61
T6
X110.49Y-80.01
X110.49Y-82.55
X110.49Y-85.09
X110.49Y-87.63
X110.49Y-90.17
X110.49Y-92.71
X110.49Y-95.25
X110.49Y-97.79
X110.49Y-100.33
X110.49Y-102.87
X110.49Y-105.41
X110.49Y-107.95
X110.49Y-110.49
X110.49Y-113.03
X110.49Y-115.57
X110.49Y-118.11
X110.49Y-120.65
X110.49Y-123.19
X110.49Y-125.73
X110.49Y-128.27
X110.49Y-130.81
X110.49Y-133.35
X110.49Y-135.89
X110.49Y-138.43
X113.03Y-92.71
X113.03Y-135.89
X115.57Y-92.71
X118.11Y-92.71
X120.65Y-92.71
X122.679Y-121.971
X122.679Y-124.511
X122.679Y-127.051
X122.679Y-129.591
X122.679Y-132.131
X123.19Y-92.71
X125.73Y-80.01
X125.73Y-82.55
X125.73Y-85.09
X125.73Y-87.63
X125.73Y-90.17
X125.73Y-92.71
X125.73Y-95.25
X125.73Y-97.79
X125.73Y-100.33
X125.73Y-102.87
X125.73Y-105.41
X125.73Y-107.95
X125.73Y-110.49
X125.73Y-113.03
X125.73Y-115.57
X125.73Y-118.11
X125.73Y-120.65
X125.73Y-123.19
X125.73Y-125.73
X125.73Y-128.27
X125.73Y-130.81
X125.73Y-133.35
X125.73Y-135.89
X125.73Y-138.43
X131.36Y-79.935
X131.36Y-86.435
X135.86Y-79.935
X135.86Y-86.435
X140.625Y-79.935
X140.625Y-86.435
X145.125Y-79.935
X145.125Y-86.435
T0
M30
