%FSLAX45Y45*%
G04 Gerber Fmt 4.5, Leading zero omitted, Abs format (unit mm)*
G04 Created by KiCad (PCBNEW (6.0.6)) date 2022-11-01 12:00:37*
%MOMM*%
%LPD*%
G01*
G04 APERTURE LIST*
%TA.AperFunction,Profile*%
%ADD10C,0.100000*%
%TD*%
%ADD11C,0.200000*%
%ADD12C,0.040000*%
%ADD13C,0.070000*%
%ADD14C,0.080000*%
%ADD15C,0.090000*%
%ADD16C,0.100000*%
%ADD17C,0.110000*%
G04 APERTURE END LIST*
D10*
X14709140Y-18354000D02*
X14709140Y-7800000D01*
X9763696Y-13367000D02*
G75*
G03*
X9763696Y-13367000I-268830J0D01*
G01*
X8890000Y-7800000D02*
X14709140Y-7800000D01*
X14373104Y-13367000D02*
G75*
G03*
X14373104Y-13367000I-268830J0D01*
G01*
X8890000Y-18354000D02*
X8890000Y-7800000D01*
D11*
D12*
X9589640Y-15171480D02*
X9629640Y-15211480D01*
X9629640Y-15171480D02*
X9589640Y-15211480D01*
X9601710Y-17709070D02*
X9641710Y-17749070D01*
X9641710Y-17709070D02*
X9601710Y-17749070D01*
X9665960Y-15398640D02*
X9705960Y-15438640D01*
X9705960Y-15398640D02*
X9665960Y-15438640D01*
X9988450Y-12615940D02*
X10028450Y-12655940D01*
X10028450Y-12615940D02*
X9988450Y-12655940D01*
X10119820Y-17962470D02*
X10159820Y-18002470D01*
X10159820Y-17962470D02*
X10119820Y-18002470D01*
X10206040Y-11394380D02*
X10246040Y-11434380D01*
X10246040Y-11394380D02*
X10206040Y-11434380D01*
X10395560Y-18045350D02*
X10435560Y-18085350D01*
X10435560Y-18045350D02*
X10395560Y-18085350D01*
X10469380Y-17270130D02*
X10509380Y-17310130D01*
X10509380Y-17270130D02*
X10469380Y-17310130D01*
X12465300Y-12440300D02*
X12505300Y-12480300D01*
X12505300Y-12440300D02*
X12465300Y-12480300D01*
X12924100Y-14468340D02*
X12964100Y-14508340D01*
X12964100Y-14468340D02*
X12924100Y-14508340D01*
X13355030Y-18193520D02*
X13395030Y-18233520D01*
X13395030Y-18193520D02*
X13355030Y-18233520D01*
D13*
X9560000Y-8826500D02*
G75*
G03*
X9560000Y-8826500I-35000J0D01*
G01*
X9560000Y-9144000D02*
G75*
G03*
X9560000Y-9144000I-35000J0D01*
G01*
X10322000Y-8826500D02*
G75*
G03*
X10322000Y-8826500I-35000J0D01*
G01*
X10322000Y-9144000D02*
G75*
G03*
X10322000Y-9144000I-35000J0D01*
G01*
X13497000Y-9080500D02*
G75*
G03*
X13497000Y-9080500I-35000J0D01*
G01*
X13497000Y-9525000D02*
G75*
G03*
X13497000Y-9525000I-35000J0D01*
G01*
X14259000Y-9080500D02*
G75*
G03*
X14259000Y-9080500I-35000J0D01*
G01*
X14259000Y-9525000D02*
G75*
G03*
X14259000Y-9525000I-35000J0D01*
G01*
D14*
X9653000Y-10184000D02*
X9653000Y-10264000D01*
X9613000Y-10224000D02*
X9693000Y-10224000D01*
X9653000Y-10438000D02*
X9653000Y-10518000D01*
X9613000Y-10478000D02*
X9693000Y-10478000D01*
X9653000Y-10692000D02*
X9653000Y-10772000D01*
X9613000Y-10732000D02*
X9693000Y-10732000D01*
X9653000Y-10946000D02*
X9653000Y-11026000D01*
X9613000Y-10986000D02*
X9693000Y-10986000D01*
X9653000Y-11200000D02*
X9653000Y-11280000D01*
X9613000Y-11240000D02*
X9693000Y-11240000D01*
X9653000Y-11454000D02*
X9653000Y-11534000D01*
X9613000Y-11494000D02*
X9693000Y-11494000D01*
X9653000Y-11708000D02*
X9653000Y-11788000D01*
X9613000Y-11748000D02*
X9693000Y-11748000D01*
X9653000Y-11962000D02*
X9653000Y-12042000D01*
X9613000Y-12002000D02*
X9693000Y-12002000D01*
X9653000Y-12216000D02*
X9653000Y-12296000D01*
X9613000Y-12256000D02*
X9693000Y-12256000D01*
X9653000Y-12470000D02*
X9653000Y-12550000D01*
X9613000Y-12510000D02*
X9693000Y-12510000D01*
X9843500Y-14502000D02*
X9843500Y-14582000D01*
X9803500Y-14542000D02*
X9883500Y-14542000D01*
X9843500Y-14756000D02*
X9843500Y-14836000D01*
X9803500Y-14796000D02*
X9883500Y-14796000D01*
X9843500Y-15010000D02*
X9843500Y-15090000D01*
X9803500Y-15050000D02*
X9883500Y-15050000D01*
X9843500Y-15264000D02*
X9843500Y-15344000D01*
X9803500Y-15304000D02*
X9883500Y-15304000D01*
X9843500Y-15518000D02*
X9843500Y-15598000D01*
X9803500Y-15558000D02*
X9883500Y-15558000D01*
X9843500Y-15772000D02*
X9843500Y-15852000D01*
X9803500Y-15812000D02*
X9883500Y-15812000D01*
X9843500Y-16026000D02*
X9843500Y-16106000D01*
X9803500Y-16066000D02*
X9883500Y-16066000D01*
X9843500Y-16280000D02*
X9843500Y-16360000D01*
X9803500Y-16320000D02*
X9883500Y-16320000D01*
X9843500Y-16534000D02*
X9843500Y-16614000D01*
X9803500Y-16574000D02*
X9883500Y-16574000D01*
X9843500Y-16788000D02*
X9843500Y-16868000D01*
X9803500Y-16828000D02*
X9883500Y-16828000D01*
X9906000Y-9802500D02*
X9906000Y-9882500D01*
X9866000Y-9842500D02*
X9946000Y-9842500D01*
X10100500Y-13993500D02*
X10100500Y-14073500D01*
X10060500Y-14033500D02*
X10140500Y-14033500D01*
X10156000Y-9802500D02*
X10156000Y-9882500D01*
X10116000Y-9842500D02*
X10196000Y-9842500D01*
X10350500Y-13993500D02*
X10350500Y-14073500D01*
X10310500Y-14033500D02*
X10390500Y-14033500D01*
X10415000Y-10184000D02*
X10415000Y-10264000D01*
X10375000Y-10224000D02*
X10455000Y-10224000D01*
X10415000Y-10438000D02*
X10415000Y-10518000D01*
X10375000Y-10478000D02*
X10455000Y-10478000D01*
X10415000Y-10692000D02*
X10415000Y-10772000D01*
X10375000Y-10732000D02*
X10455000Y-10732000D01*
X10415000Y-10946000D02*
X10415000Y-11026000D01*
X10375000Y-10986000D02*
X10455000Y-10986000D01*
X10415000Y-11200000D02*
X10415000Y-11280000D01*
X10375000Y-11240000D02*
X10455000Y-11240000D01*
X10415000Y-11454000D02*
X10415000Y-11534000D01*
X10375000Y-11494000D02*
X10455000Y-11494000D01*
X10415000Y-11708000D02*
X10415000Y-11788000D01*
X10375000Y-11748000D02*
X10455000Y-11748000D01*
X10415000Y-11962000D02*
X10415000Y-12042000D01*
X10375000Y-12002000D02*
X10455000Y-12002000D01*
X10415000Y-12216000D02*
X10415000Y-12296000D01*
X10375000Y-12256000D02*
X10455000Y-12256000D01*
X10415000Y-12470000D02*
X10415000Y-12550000D01*
X10375000Y-12510000D02*
X10455000Y-12510000D01*
X10605500Y-14502000D02*
X10605500Y-14582000D01*
X10565500Y-14542000D02*
X10645500Y-14542000D01*
X10605500Y-14756000D02*
X10605500Y-14836000D01*
X10565500Y-14796000D02*
X10645500Y-14796000D01*
X10605500Y-15010000D02*
X10605500Y-15090000D01*
X10565500Y-15050000D02*
X10645500Y-15050000D01*
X10605500Y-15264000D02*
X10605500Y-15344000D01*
X10565500Y-15304000D02*
X10645500Y-15304000D01*
X10605500Y-15518000D02*
X10605500Y-15598000D01*
X10565500Y-15558000D02*
X10645500Y-15558000D01*
X10605500Y-15772000D02*
X10605500Y-15852000D01*
X10565500Y-15812000D02*
X10645500Y-15812000D01*
X10605500Y-16026000D02*
X10605500Y-16106000D01*
X10565500Y-16066000D02*
X10645500Y-16066000D01*
X10605500Y-16280000D02*
X10605500Y-16360000D01*
X10565500Y-16320000D02*
X10645500Y-16320000D01*
X10605500Y-16534000D02*
X10605500Y-16614000D01*
X10565500Y-16574000D02*
X10645500Y-16574000D01*
X10605500Y-16788000D02*
X10605500Y-16868000D01*
X10565500Y-16828000D02*
X10645500Y-16828000D01*
X11292840Y-12306000D02*
X11292840Y-12386000D01*
X11252840Y-12346000D02*
X11332840Y-12346000D01*
X11292840Y-12506000D02*
X11292840Y-12586000D01*
X11252840Y-12546000D02*
X11332840Y-12546000D01*
X11492840Y-12306000D02*
X11492840Y-12386000D01*
X11452840Y-12346000D02*
X11532840Y-12346000D01*
X11492840Y-12506000D02*
X11492840Y-12586000D01*
X11452840Y-12546000D02*
X11532840Y-12546000D01*
X11684000Y-13730000D02*
X11684000Y-13810000D01*
X11644000Y-13770000D02*
X11724000Y-13770000D01*
X11692840Y-12306000D02*
X11692840Y-12386000D01*
X11652840Y-12346000D02*
X11732840Y-12346000D01*
X11692840Y-12506000D02*
X11692840Y-12586000D01*
X11652840Y-12546000D02*
X11732840Y-12546000D01*
X11938000Y-13730000D02*
X11938000Y-13810000D01*
X11898000Y-13770000D02*
X11978000Y-13770000D01*
X13209000Y-14565500D02*
X13209000Y-14645500D01*
X13169000Y-14605500D02*
X13249000Y-14605500D01*
X13209000Y-14819500D02*
X13209000Y-14899500D01*
X13169000Y-14859500D02*
X13249000Y-14859500D01*
X13209000Y-15073500D02*
X13209000Y-15153500D01*
X13169000Y-15113500D02*
X13249000Y-15113500D01*
X13209000Y-15327500D02*
X13209000Y-15407500D01*
X13169000Y-15367500D02*
X13249000Y-15367500D01*
X13209000Y-15581500D02*
X13209000Y-15661500D01*
X13169000Y-15621500D02*
X13249000Y-15621500D01*
X13209000Y-15835500D02*
X13209000Y-15915500D01*
X13169000Y-15875500D02*
X13249000Y-15875500D01*
X13209000Y-16089500D02*
X13209000Y-16169500D01*
X13169000Y-16129500D02*
X13249000Y-16129500D01*
X13209000Y-16343500D02*
X13209000Y-16423500D01*
X13169000Y-16383500D02*
X13249000Y-16383500D01*
X13209000Y-16597500D02*
X13209000Y-16677500D01*
X13169000Y-16637500D02*
X13249000Y-16637500D01*
X13209000Y-16851500D02*
X13209000Y-16931500D01*
X13169000Y-16891500D02*
X13249000Y-16891500D01*
X13464000Y-13930000D02*
X13464000Y-14010000D01*
X13424000Y-13970000D02*
X13504000Y-13970000D01*
X13714000Y-13930000D02*
X13714000Y-14010000D01*
X13674000Y-13970000D02*
X13754000Y-13970000D01*
X13971000Y-14565500D02*
X13971000Y-14645500D01*
X13931000Y-14605500D02*
X14011000Y-14605500D01*
X13971000Y-14819500D02*
X13971000Y-14899500D01*
X13931000Y-14859500D02*
X14011000Y-14859500D01*
X13971000Y-15073500D02*
X13971000Y-15153500D01*
X13931000Y-15113500D02*
X14011000Y-15113500D01*
X13971000Y-15327500D02*
X13971000Y-15407500D01*
X13931000Y-15367500D02*
X14011000Y-15367500D01*
X13971000Y-15581500D02*
X13971000Y-15661500D01*
X13931000Y-15621500D02*
X14011000Y-15621500D01*
X13971000Y-15835500D02*
X13971000Y-15915500D01*
X13931000Y-15875500D02*
X14011000Y-15875500D01*
X13971000Y-16089500D02*
X13971000Y-16169500D01*
X13931000Y-16129500D02*
X14011000Y-16129500D01*
X13971000Y-16343500D02*
X13971000Y-16423500D01*
X13931000Y-16383500D02*
X14011000Y-16383500D01*
X13971000Y-16597500D02*
X13971000Y-16677500D01*
X13931000Y-16637500D02*
X14011000Y-16637500D01*
X13971000Y-16851500D02*
X13971000Y-16931500D01*
X13931000Y-16891500D02*
X14011000Y-16891500D01*
D15*
X9365820Y-8286820D02*
X9365820Y-8223180D01*
X9302180Y-8223180D01*
X9302180Y-8286820D01*
X9365820Y-8286820D01*
X9619820Y-8286820D02*
X9619820Y-8223180D01*
X9556180Y-8223180D01*
X9556180Y-8286820D01*
X9619820Y-8286820D01*
X10127820Y-8286820D02*
X10127820Y-8223180D01*
X10064180Y-8223180D01*
X10064180Y-8286820D01*
X10127820Y-8286820D01*
X10381820Y-8286820D02*
X10381820Y-8223180D01*
X10318180Y-8223180D01*
X10318180Y-8286820D01*
X10381820Y-8286820D01*
D16*
X9144000Y-9449000D02*
X9194000Y-9399000D01*
X9144000Y-9349000D01*
X9094000Y-9399000D01*
X9144000Y-9449000D01*
X9144000Y-9703000D02*
X9194000Y-9653000D01*
X9144000Y-9603000D01*
X9094000Y-9653000D01*
X9144000Y-9703000D01*
X9144000Y-9957000D02*
X9194000Y-9907000D01*
X9144000Y-9857000D01*
X9094000Y-9907000D01*
X9144000Y-9957000D01*
X9144000Y-10211000D02*
X9194000Y-10161000D01*
X9144000Y-10111000D01*
X9094000Y-10161000D01*
X9144000Y-10211000D01*
D17*
X10994000Y-7946000D02*
X11104000Y-8056000D01*
X11104000Y-7946000D02*
X10994000Y-8056000D01*
X11104000Y-8001000D02*
G75*
G03*
X11104000Y-8001000I-55000J0D01*
G01*
X10994000Y-8200000D02*
X11104000Y-8310000D01*
X11104000Y-8200000D02*
X10994000Y-8310000D01*
X11104000Y-8255000D02*
G75*
G03*
X11104000Y-8255000I-55000J0D01*
G01*
X10994000Y-8454000D02*
X11104000Y-8564000D01*
X11104000Y-8454000D02*
X10994000Y-8564000D01*
X11104000Y-8509000D02*
G75*
G03*
X11104000Y-8509000I-55000J0D01*
G01*
X10994000Y-8708000D02*
X11104000Y-8818000D01*
X11104000Y-8708000D02*
X10994000Y-8818000D01*
X11104000Y-8763000D02*
G75*
G03*
X11104000Y-8763000I-55000J0D01*
G01*
X10994000Y-8962000D02*
X11104000Y-9072000D01*
X11104000Y-8962000D02*
X10994000Y-9072000D01*
X11104000Y-9017000D02*
G75*
G03*
X11104000Y-9017000I-55000J0D01*
G01*
X10994000Y-9216000D02*
X11104000Y-9326000D01*
X11104000Y-9216000D02*
X10994000Y-9326000D01*
X11104000Y-9271000D02*
G75*
G03*
X11104000Y-9271000I-55000J0D01*
G01*
X10994000Y-9470000D02*
X11104000Y-9580000D01*
X11104000Y-9470000D02*
X10994000Y-9580000D01*
X11104000Y-9525000D02*
G75*
G03*
X11104000Y-9525000I-55000J0D01*
G01*
X10994000Y-9724000D02*
X11104000Y-9834000D01*
X11104000Y-9724000D02*
X10994000Y-9834000D01*
X11104000Y-9779000D02*
G75*
G03*
X11104000Y-9779000I-55000J0D01*
G01*
X10994000Y-9978000D02*
X11104000Y-10088000D01*
X11104000Y-9978000D02*
X10994000Y-10088000D01*
X11104000Y-10033000D02*
G75*
G03*
X11104000Y-10033000I-55000J0D01*
G01*
X10994000Y-10232000D02*
X11104000Y-10342000D01*
X11104000Y-10232000D02*
X10994000Y-10342000D01*
X11104000Y-10287000D02*
G75*
G03*
X11104000Y-10287000I-55000J0D01*
G01*
X10994000Y-10486000D02*
X11104000Y-10596000D01*
X11104000Y-10486000D02*
X10994000Y-10596000D01*
X11104000Y-10541000D02*
G75*
G03*
X11104000Y-10541000I-55000J0D01*
G01*
X10994000Y-10740000D02*
X11104000Y-10850000D01*
X11104000Y-10740000D02*
X10994000Y-10850000D01*
X11104000Y-10795000D02*
G75*
G03*
X11104000Y-10795000I-55000J0D01*
G01*
X10994000Y-10994000D02*
X11104000Y-11104000D01*
X11104000Y-10994000D02*
X10994000Y-11104000D01*
X11104000Y-11049000D02*
G75*
G03*
X11104000Y-11049000I-55000J0D01*
G01*
X10994000Y-11248000D02*
X11104000Y-11358000D01*
X11104000Y-11248000D02*
X10994000Y-11358000D01*
X11104000Y-11303000D02*
G75*
G03*
X11104000Y-11303000I-55000J0D01*
G01*
X10994000Y-11502000D02*
X11104000Y-11612000D01*
X11104000Y-11502000D02*
X10994000Y-11612000D01*
X11104000Y-11557000D02*
G75*
G03*
X11104000Y-11557000I-55000J0D01*
G01*
X10994000Y-11756000D02*
X11104000Y-11866000D01*
X11104000Y-11756000D02*
X10994000Y-11866000D01*
X11104000Y-11811000D02*
G75*
G03*
X11104000Y-11811000I-55000J0D01*
G01*
X10994000Y-12010000D02*
X11104000Y-12120000D01*
X11104000Y-12010000D02*
X10994000Y-12120000D01*
X11104000Y-12065000D02*
G75*
G03*
X11104000Y-12065000I-55000J0D01*
G01*
X10994000Y-12264000D02*
X11104000Y-12374000D01*
X11104000Y-12264000D02*
X10994000Y-12374000D01*
X11104000Y-12319000D02*
G75*
G03*
X11104000Y-12319000I-55000J0D01*
G01*
X10994000Y-12518000D02*
X11104000Y-12628000D01*
X11104000Y-12518000D02*
X10994000Y-12628000D01*
X11104000Y-12573000D02*
G75*
G03*
X11104000Y-12573000I-55000J0D01*
G01*
X10994000Y-12772000D02*
X11104000Y-12882000D01*
X11104000Y-12772000D02*
X10994000Y-12882000D01*
X11104000Y-12827000D02*
G75*
G03*
X11104000Y-12827000I-55000J0D01*
G01*
X10994000Y-13026000D02*
X11104000Y-13136000D01*
X11104000Y-13026000D02*
X10994000Y-13136000D01*
X11104000Y-13081000D02*
G75*
G03*
X11104000Y-13081000I-55000J0D01*
G01*
X10994000Y-13280000D02*
X11104000Y-13390000D01*
X11104000Y-13280000D02*
X10994000Y-13390000D01*
X11104000Y-13335000D02*
G75*
G03*
X11104000Y-13335000I-55000J0D01*
G01*
X10994000Y-13534000D02*
X11104000Y-13644000D01*
X11104000Y-13534000D02*
X10994000Y-13644000D01*
X11104000Y-13589000D02*
G75*
G03*
X11104000Y-13589000I-55000J0D01*
G01*
X10994000Y-13788000D02*
X11104000Y-13898000D01*
X11104000Y-13788000D02*
X10994000Y-13898000D01*
X11104000Y-13843000D02*
G75*
G03*
X11104000Y-13843000I-55000J0D01*
G01*
X11248000Y-9216000D02*
X11358000Y-9326000D01*
X11358000Y-9216000D02*
X11248000Y-9326000D01*
X11358000Y-9271000D02*
G75*
G03*
X11358000Y-9271000I-55000J0D01*
G01*
X11248000Y-13534000D02*
X11358000Y-13644000D01*
X11358000Y-13534000D02*
X11248000Y-13644000D01*
X11358000Y-13589000D02*
G75*
G03*
X11358000Y-13589000I-55000J0D01*
G01*
X11502000Y-9216000D02*
X11612000Y-9326000D01*
X11612000Y-9216000D02*
X11502000Y-9326000D01*
X11612000Y-9271000D02*
G75*
G03*
X11612000Y-9271000I-55000J0D01*
G01*
X11756000Y-9216000D02*
X11866000Y-9326000D01*
X11866000Y-9216000D02*
X11756000Y-9326000D01*
X11866000Y-9271000D02*
G75*
G03*
X11866000Y-9271000I-55000J0D01*
G01*
X12010000Y-9216000D02*
X12120000Y-9326000D01*
X12120000Y-9216000D02*
X12010000Y-9326000D01*
X12120000Y-9271000D02*
G75*
G03*
X12120000Y-9271000I-55000J0D01*
G01*
X12212920Y-12142080D02*
X12322920Y-12252080D01*
X12322920Y-12142080D02*
X12212920Y-12252080D01*
X12322920Y-12197080D02*
G75*
G03*
X12322920Y-12197080I-55000J0D01*
G01*
X12212920Y-12396080D02*
X12322920Y-12506080D01*
X12322920Y-12396080D02*
X12212920Y-12506080D01*
X12322920Y-12451080D02*
G75*
G03*
X12322920Y-12451080I-55000J0D01*
G01*
X12212920Y-12650080D02*
X12322920Y-12760080D01*
X12322920Y-12650080D02*
X12212920Y-12760080D01*
X12322920Y-12705080D02*
G75*
G03*
X12322920Y-12705080I-55000J0D01*
G01*
X12212920Y-12904080D02*
X12322920Y-13014080D01*
X12322920Y-12904080D02*
X12212920Y-13014080D01*
X12322920Y-12959080D02*
G75*
G03*
X12322920Y-12959080I-55000J0D01*
G01*
X12212920Y-13158080D02*
X12322920Y-13268080D01*
X12322920Y-13158080D02*
X12212920Y-13268080D01*
X12322920Y-13213080D02*
G75*
G03*
X12322920Y-13213080I-55000J0D01*
G01*
X12264000Y-9216000D02*
X12374000Y-9326000D01*
X12374000Y-9216000D02*
X12264000Y-9326000D01*
X12374000Y-9271000D02*
G75*
G03*
X12374000Y-9271000I-55000J0D01*
G01*
X12518000Y-7946000D02*
X12628000Y-8056000D01*
X12628000Y-7946000D02*
X12518000Y-8056000D01*
X12628000Y-8001000D02*
G75*
G03*
X12628000Y-8001000I-55000J0D01*
G01*
X12518000Y-8200000D02*
X12628000Y-8310000D01*
X12628000Y-8200000D02*
X12518000Y-8310000D01*
X12628000Y-8255000D02*
G75*
G03*
X12628000Y-8255000I-55000J0D01*
G01*
X12518000Y-8454000D02*
X12628000Y-8564000D01*
X12628000Y-8454000D02*
X12518000Y-8564000D01*
X12628000Y-8509000D02*
G75*
G03*
X12628000Y-8509000I-55000J0D01*
G01*
X12518000Y-8708000D02*
X12628000Y-8818000D01*
X12628000Y-8708000D02*
X12518000Y-8818000D01*
X12628000Y-8763000D02*
G75*
G03*
X12628000Y-8763000I-55000J0D01*
G01*
X12518000Y-8962000D02*
X12628000Y-9072000D01*
X12628000Y-8962000D02*
X12518000Y-9072000D01*
X12628000Y-9017000D02*
G75*
G03*
X12628000Y-9017000I-55000J0D01*
G01*
X12518000Y-9216000D02*
X12628000Y-9326000D01*
X12628000Y-9216000D02*
X12518000Y-9326000D01*
X12628000Y-9271000D02*
G75*
G03*
X12628000Y-9271000I-55000J0D01*
G01*
X12518000Y-9470000D02*
X12628000Y-9580000D01*
X12628000Y-9470000D02*
X12518000Y-9580000D01*
X12628000Y-9525000D02*
G75*
G03*
X12628000Y-9525000I-55000J0D01*
G01*
X12518000Y-9724000D02*
X12628000Y-9834000D01*
X12628000Y-9724000D02*
X12518000Y-9834000D01*
X12628000Y-9779000D02*
G75*
G03*
X12628000Y-9779000I-55000J0D01*
G01*
X12518000Y-9978000D02*
X12628000Y-10088000D01*
X12628000Y-9978000D02*
X12518000Y-10088000D01*
X12628000Y-10033000D02*
G75*
G03*
X12628000Y-10033000I-55000J0D01*
G01*
X12518000Y-10232000D02*
X12628000Y-10342000D01*
X12628000Y-10232000D02*
X12518000Y-10342000D01*
X12628000Y-10287000D02*
G75*
G03*
X12628000Y-10287000I-55000J0D01*
G01*
X12518000Y-10486000D02*
X12628000Y-10596000D01*
X12628000Y-10486000D02*
X12518000Y-10596000D01*
X12628000Y-10541000D02*
G75*
G03*
X12628000Y-10541000I-55000J0D01*
G01*
X12518000Y-10740000D02*
X12628000Y-10850000D01*
X12628000Y-10740000D02*
X12518000Y-10850000D01*
X12628000Y-10795000D02*
G75*
G03*
X12628000Y-10795000I-55000J0D01*
G01*
X12518000Y-10994000D02*
X12628000Y-11104000D01*
X12628000Y-10994000D02*
X12518000Y-11104000D01*
X12628000Y-11049000D02*
G75*
G03*
X12628000Y-11049000I-55000J0D01*
G01*
X12518000Y-11248000D02*
X12628000Y-11358000D01*
X12628000Y-11248000D02*
X12518000Y-11358000D01*
X12628000Y-11303000D02*
G75*
G03*
X12628000Y-11303000I-55000J0D01*
G01*
X12518000Y-11502000D02*
X12628000Y-11612000D01*
X12628000Y-11502000D02*
X12518000Y-11612000D01*
X12628000Y-11557000D02*
G75*
G03*
X12628000Y-11557000I-55000J0D01*
G01*
X12518000Y-11756000D02*
X12628000Y-11866000D01*
X12628000Y-11756000D02*
X12518000Y-11866000D01*
X12628000Y-11811000D02*
G75*
G03*
X12628000Y-11811000I-55000J0D01*
G01*
X12518000Y-12010000D02*
X12628000Y-12120000D01*
X12628000Y-12010000D02*
X12518000Y-12120000D01*
X12628000Y-12065000D02*
G75*
G03*
X12628000Y-12065000I-55000J0D01*
G01*
X12518000Y-12264000D02*
X12628000Y-12374000D01*
X12628000Y-12264000D02*
X12518000Y-12374000D01*
X12628000Y-12319000D02*
G75*
G03*
X12628000Y-12319000I-55000J0D01*
G01*
X12518000Y-12518000D02*
X12628000Y-12628000D01*
X12628000Y-12518000D02*
X12518000Y-12628000D01*
X12628000Y-12573000D02*
G75*
G03*
X12628000Y-12573000I-55000J0D01*
G01*
X12518000Y-12772000D02*
X12628000Y-12882000D01*
X12628000Y-12772000D02*
X12518000Y-12882000D01*
X12628000Y-12827000D02*
G75*
G03*
X12628000Y-12827000I-55000J0D01*
G01*
X12518000Y-13026000D02*
X12628000Y-13136000D01*
X12628000Y-13026000D02*
X12518000Y-13136000D01*
X12628000Y-13081000D02*
G75*
G03*
X12628000Y-13081000I-55000J0D01*
G01*
X12518000Y-13280000D02*
X12628000Y-13390000D01*
X12628000Y-13280000D02*
X12518000Y-13390000D01*
X12628000Y-13335000D02*
G75*
G03*
X12628000Y-13335000I-55000J0D01*
G01*
X12518000Y-13534000D02*
X12628000Y-13644000D01*
X12628000Y-13534000D02*
X12518000Y-13644000D01*
X12628000Y-13589000D02*
G75*
G03*
X12628000Y-13589000I-55000J0D01*
G01*
X12518000Y-13788000D02*
X12628000Y-13898000D01*
X12628000Y-13788000D02*
X12518000Y-13898000D01*
X12628000Y-13843000D02*
G75*
G03*
X12628000Y-13843000I-55000J0D01*
G01*
X13081000Y-7938500D02*
X13191000Y-8048500D01*
X13191000Y-7938500D02*
X13081000Y-8048500D01*
X13191000Y-7993500D02*
G75*
G03*
X13191000Y-7993500I-55000J0D01*
G01*
X13081000Y-8588500D02*
X13191000Y-8698500D01*
X13191000Y-8588500D02*
X13081000Y-8698500D01*
X13191000Y-8643500D02*
G75*
G03*
X13191000Y-8643500I-55000J0D01*
G01*
X13531000Y-7938500D02*
X13641000Y-8048500D01*
X13641000Y-7938500D02*
X13531000Y-8048500D01*
X13641000Y-7993500D02*
G75*
G03*
X13641000Y-7993500I-55000J0D01*
G01*
X13531000Y-8588500D02*
X13641000Y-8698500D01*
X13641000Y-8588500D02*
X13531000Y-8698500D01*
X13641000Y-8643500D02*
G75*
G03*
X13641000Y-8643500I-55000J0D01*
G01*
X14007500Y-7938500D02*
X14117500Y-8048500D01*
X14117500Y-7938500D02*
X14007500Y-8048500D01*
X14117500Y-7993500D02*
G75*
G03*
X14117500Y-7993500I-55000J0D01*
G01*
X14007500Y-8588500D02*
X14117500Y-8698500D01*
X14117500Y-8588500D02*
X14007500Y-8698500D01*
X14117500Y-8643500D02*
G75*
G03*
X14117500Y-8643500I-55000J0D01*
G01*
X14457500Y-7938500D02*
X14567500Y-8048500D01*
X14567500Y-7938500D02*
X14457500Y-8048500D01*
X14567500Y-7993500D02*
G75*
G03*
X14567500Y-7993500I-55000J0D01*
G01*
X14457500Y-8588500D02*
X14567500Y-8698500D01*
X14567500Y-8588500D02*
X14457500Y-8698500D01*
X14567500Y-8643500D02*
G75*
G03*
X14567500Y-8643500I-55000J0D01*
G01*
D11*
X9141619Y-19554476D02*
X9141619Y-19354476D01*
X9189238Y-19354476D01*
X9217810Y-19364000D01*
X9236857Y-19383048D01*
X9246381Y-19402095D01*
X9255905Y-19440190D01*
X9255905Y-19468762D01*
X9246381Y-19506857D01*
X9236857Y-19525905D01*
X9217810Y-19544952D01*
X9189238Y-19554476D01*
X9141619Y-19554476D01*
X9341619Y-19554476D02*
X9341619Y-19421143D01*
X9341619Y-19459238D02*
X9351143Y-19440190D01*
X9360667Y-19430667D01*
X9379714Y-19421143D01*
X9398762Y-19421143D01*
X9465429Y-19554476D02*
X9465429Y-19421143D01*
X9465429Y-19354476D02*
X9455905Y-19364000D01*
X9465429Y-19373524D01*
X9474952Y-19364000D01*
X9465429Y-19354476D01*
X9465429Y-19373524D01*
X9589238Y-19554476D02*
X9570190Y-19544952D01*
X9560667Y-19525905D01*
X9560667Y-19354476D01*
X9694000Y-19554476D02*
X9674952Y-19544952D01*
X9665429Y-19525905D01*
X9665429Y-19354476D01*
X9922571Y-19554476D02*
X9922571Y-19354476D01*
X9989238Y-19497333D01*
X10055905Y-19354476D01*
X10055905Y-19554476D01*
X10236857Y-19554476D02*
X10236857Y-19449714D01*
X10227333Y-19430667D01*
X10208286Y-19421143D01*
X10170190Y-19421143D01*
X10151143Y-19430667D01*
X10236857Y-19544952D02*
X10217810Y-19554476D01*
X10170190Y-19554476D01*
X10151143Y-19544952D01*
X10141619Y-19525905D01*
X10141619Y-19506857D01*
X10151143Y-19487810D01*
X10170190Y-19478286D01*
X10217810Y-19478286D01*
X10236857Y-19468762D01*
X10332095Y-19421143D02*
X10332095Y-19621143D01*
X10332095Y-19430667D02*
X10351143Y-19421143D01*
X10389238Y-19421143D01*
X10408286Y-19430667D01*
X10417810Y-19440190D01*
X10427333Y-19459238D01*
X10427333Y-19516381D01*
X10417810Y-19535429D01*
X10408286Y-19544952D01*
X10389238Y-19554476D01*
X10351143Y-19554476D01*
X10332095Y-19544952D01*
X10513048Y-19535429D02*
X10522571Y-19544952D01*
X10513048Y-19554476D01*
X10503524Y-19544952D01*
X10513048Y-19535429D01*
X10513048Y-19554476D01*
X10513048Y-19430667D02*
X10522571Y-19440190D01*
X10513048Y-19449714D01*
X10503524Y-19440190D01*
X10513048Y-19430667D01*
X10513048Y-19449714D01*
D12*
X8844000Y-19864000D02*
X8884000Y-19904000D01*
X8884000Y-19864000D02*
X8844000Y-19904000D01*
D11*
X9179714Y-19774476D02*
X9198762Y-19774476D01*
X9217810Y-19784000D01*
X9227333Y-19793524D01*
X9236857Y-19812571D01*
X9246381Y-19850667D01*
X9246381Y-19898286D01*
X9236857Y-19936381D01*
X9227333Y-19955429D01*
X9217810Y-19964952D01*
X9198762Y-19974476D01*
X9179714Y-19974476D01*
X9160667Y-19964952D01*
X9151143Y-19955429D01*
X9141619Y-19936381D01*
X9132095Y-19898286D01*
X9132095Y-19850667D01*
X9141619Y-19812571D01*
X9151143Y-19793524D01*
X9160667Y-19784000D01*
X9179714Y-19774476D01*
X9332095Y-19955429D02*
X9341619Y-19964952D01*
X9332095Y-19974476D01*
X9322571Y-19964952D01*
X9332095Y-19955429D01*
X9332095Y-19974476D01*
X9513048Y-19841143D02*
X9513048Y-19974476D01*
X9465429Y-19764952D02*
X9417810Y-19907810D01*
X9541619Y-19907810D01*
X9655905Y-19774476D02*
X9674952Y-19774476D01*
X9694000Y-19784000D01*
X9703524Y-19793524D01*
X9713048Y-19812571D01*
X9722571Y-19850667D01*
X9722571Y-19898286D01*
X9713048Y-19936381D01*
X9703524Y-19955429D01*
X9694000Y-19964952D01*
X9674952Y-19974476D01*
X9655905Y-19974476D01*
X9636857Y-19964952D01*
X9627333Y-19955429D01*
X9617810Y-19936381D01*
X9608286Y-19898286D01*
X9608286Y-19850667D01*
X9617810Y-19812571D01*
X9627333Y-19793524D01*
X9636857Y-19784000D01*
X9655905Y-19774476D01*
X9846381Y-19774476D02*
X9865429Y-19774476D01*
X9884476Y-19784000D01*
X9894000Y-19793524D01*
X9903524Y-19812571D01*
X9913048Y-19850667D01*
X9913048Y-19898286D01*
X9903524Y-19936381D01*
X9894000Y-19955429D01*
X9884476Y-19964952D01*
X9865429Y-19974476D01*
X9846381Y-19974476D01*
X9827333Y-19964952D01*
X9817810Y-19955429D01*
X9808286Y-19936381D01*
X9798762Y-19898286D01*
X9798762Y-19850667D01*
X9808286Y-19812571D01*
X9817810Y-19793524D01*
X9827333Y-19784000D01*
X9846381Y-19774476D01*
X9998762Y-19974476D02*
X9998762Y-19841143D01*
X9998762Y-19860190D02*
X10008286Y-19850667D01*
X10027333Y-19841143D01*
X10055905Y-19841143D01*
X10074952Y-19850667D01*
X10084476Y-19869714D01*
X10084476Y-19974476D01*
X10084476Y-19869714D02*
X10094000Y-19850667D01*
X10113048Y-19841143D01*
X10141619Y-19841143D01*
X10160667Y-19850667D01*
X10170190Y-19869714D01*
X10170190Y-19974476D01*
X10265429Y-19974476D02*
X10265429Y-19841143D01*
X10265429Y-19860190D02*
X10274952Y-19850667D01*
X10294000Y-19841143D01*
X10322571Y-19841143D01*
X10341619Y-19850667D01*
X10351143Y-19869714D01*
X10351143Y-19974476D01*
X10351143Y-19869714D02*
X10360667Y-19850667D01*
X10379714Y-19841143D01*
X10408286Y-19841143D01*
X10427333Y-19850667D01*
X10436857Y-19869714D01*
X10436857Y-19974476D01*
X10827333Y-19764952D02*
X10655905Y-20022095D01*
X11084476Y-19774476D02*
X11103524Y-19774476D01*
X11122571Y-19784000D01*
X11132095Y-19793524D01*
X11141619Y-19812571D01*
X11151143Y-19850667D01*
X11151143Y-19898286D01*
X11141619Y-19936381D01*
X11132095Y-19955429D01*
X11122571Y-19964952D01*
X11103524Y-19974476D01*
X11084476Y-19974476D01*
X11065429Y-19964952D01*
X11055905Y-19955429D01*
X11046381Y-19936381D01*
X11036857Y-19898286D01*
X11036857Y-19850667D01*
X11046381Y-19812571D01*
X11055905Y-19793524D01*
X11065429Y-19784000D01*
X11084476Y-19774476D01*
X11236857Y-19955429D02*
X11246381Y-19964952D01*
X11236857Y-19974476D01*
X11227333Y-19964952D01*
X11236857Y-19955429D01*
X11236857Y-19974476D01*
X11370190Y-19774476D02*
X11389238Y-19774476D01*
X11408286Y-19784000D01*
X11417809Y-19793524D01*
X11427333Y-19812571D01*
X11436857Y-19850667D01*
X11436857Y-19898286D01*
X11427333Y-19936381D01*
X11417809Y-19955429D01*
X11408286Y-19964952D01*
X11389238Y-19974476D01*
X11370190Y-19974476D01*
X11351143Y-19964952D01*
X11341619Y-19955429D01*
X11332095Y-19936381D01*
X11322571Y-19898286D01*
X11322571Y-19850667D01*
X11332095Y-19812571D01*
X11341619Y-19793524D01*
X11351143Y-19784000D01*
X11370190Y-19774476D01*
X11627333Y-19974476D02*
X11513048Y-19974476D01*
X11570190Y-19974476D02*
X11570190Y-19774476D01*
X11551143Y-19803048D01*
X11532095Y-19822095D01*
X11513048Y-19831619D01*
X11808286Y-19774476D02*
X11713048Y-19774476D01*
X11703524Y-19869714D01*
X11713048Y-19860190D01*
X11732095Y-19850667D01*
X11779714Y-19850667D01*
X11798762Y-19860190D01*
X11808286Y-19869714D01*
X11817809Y-19888762D01*
X11817809Y-19936381D01*
X11808286Y-19955429D01*
X11798762Y-19964952D01*
X11779714Y-19974476D01*
X11732095Y-19974476D01*
X11713048Y-19964952D01*
X11703524Y-19955429D01*
X11884476Y-19774476D02*
X12017809Y-19774476D01*
X11932095Y-19974476D01*
X12084476Y-19774476D02*
X12084476Y-19812571D01*
X12160667Y-19774476D02*
X12160667Y-19812571D01*
X12455905Y-20050667D02*
X12446381Y-20041143D01*
X12427333Y-20012571D01*
X12417809Y-19993524D01*
X12408286Y-19964952D01*
X12398762Y-19917333D01*
X12398762Y-19879238D01*
X12408286Y-19831619D01*
X12417809Y-19803048D01*
X12427333Y-19784000D01*
X12446381Y-19755429D01*
X12455905Y-19745905D01*
X12636857Y-19974476D02*
X12522571Y-19974476D01*
X12579714Y-19974476D02*
X12579714Y-19774476D01*
X12560667Y-19803048D01*
X12541619Y-19822095D01*
X12522571Y-19831619D01*
X12827333Y-19974476D02*
X12713048Y-19974476D01*
X12770190Y-19974476D02*
X12770190Y-19774476D01*
X12751143Y-19803048D01*
X12732095Y-19822095D01*
X12713048Y-19831619D01*
X13065428Y-19974476D02*
X13065428Y-19774476D01*
X13151143Y-19974476D02*
X13151143Y-19869714D01*
X13141619Y-19850667D01*
X13122571Y-19841143D01*
X13094000Y-19841143D01*
X13074952Y-19850667D01*
X13065428Y-19860190D01*
X13274952Y-19974476D02*
X13255905Y-19964952D01*
X13246381Y-19955429D01*
X13236857Y-19936381D01*
X13236857Y-19879238D01*
X13246381Y-19860190D01*
X13255905Y-19850667D01*
X13274952Y-19841143D01*
X13303524Y-19841143D01*
X13322571Y-19850667D01*
X13332095Y-19860190D01*
X13341619Y-19879238D01*
X13341619Y-19936381D01*
X13332095Y-19955429D01*
X13322571Y-19964952D01*
X13303524Y-19974476D01*
X13274952Y-19974476D01*
X13455905Y-19974476D02*
X13436857Y-19964952D01*
X13427333Y-19945905D01*
X13427333Y-19774476D01*
X13608286Y-19964952D02*
X13589238Y-19974476D01*
X13551143Y-19974476D01*
X13532095Y-19964952D01*
X13522571Y-19945905D01*
X13522571Y-19869714D01*
X13532095Y-19850667D01*
X13551143Y-19841143D01*
X13589238Y-19841143D01*
X13608286Y-19850667D01*
X13617809Y-19869714D01*
X13617809Y-19888762D01*
X13522571Y-19907810D01*
X13694000Y-19964952D02*
X13713048Y-19974476D01*
X13751143Y-19974476D01*
X13770190Y-19964952D01*
X13779714Y-19945905D01*
X13779714Y-19936381D01*
X13770190Y-19917333D01*
X13751143Y-19907810D01*
X13722571Y-19907810D01*
X13703524Y-19898286D01*
X13694000Y-19879238D01*
X13694000Y-19869714D01*
X13703524Y-19850667D01*
X13722571Y-19841143D01*
X13751143Y-19841143D01*
X13770190Y-19850667D01*
X13846381Y-20050667D02*
X13855905Y-20041143D01*
X13874952Y-20012571D01*
X13884476Y-19993524D01*
X13894000Y-19964952D01*
X13903524Y-19917333D01*
X13903524Y-19879238D01*
X13894000Y-19831619D01*
X13884476Y-19803048D01*
X13874952Y-19784000D01*
X13855905Y-19755429D01*
X13846381Y-19745905D01*
D13*
X8884000Y-20148000D02*
G75*
G03*
X8884000Y-20148000I-35000J0D01*
G01*
D11*
X9179714Y-20038476D02*
X9198762Y-20038476D01*
X9217810Y-20048000D01*
X9227333Y-20057524D01*
X9236857Y-20076571D01*
X9246381Y-20114667D01*
X9246381Y-20162286D01*
X9236857Y-20200381D01*
X9227333Y-20219429D01*
X9217810Y-20228952D01*
X9198762Y-20238476D01*
X9179714Y-20238476D01*
X9160667Y-20228952D01*
X9151143Y-20219429D01*
X9141619Y-20200381D01*
X9132095Y-20162286D01*
X9132095Y-20114667D01*
X9141619Y-20076571D01*
X9151143Y-20057524D01*
X9160667Y-20048000D01*
X9179714Y-20038476D01*
X9332095Y-20219429D02*
X9341619Y-20228952D01*
X9332095Y-20238476D01*
X9322571Y-20228952D01*
X9332095Y-20219429D01*
X9332095Y-20238476D01*
X9408286Y-20038476D02*
X9541619Y-20038476D01*
X9455905Y-20238476D01*
X9655905Y-20038476D02*
X9674952Y-20038476D01*
X9694000Y-20048000D01*
X9703524Y-20057524D01*
X9713048Y-20076571D01*
X9722571Y-20114667D01*
X9722571Y-20162286D01*
X9713048Y-20200381D01*
X9703524Y-20219429D01*
X9694000Y-20228952D01*
X9674952Y-20238476D01*
X9655905Y-20238476D01*
X9636857Y-20228952D01*
X9627333Y-20219429D01*
X9617810Y-20200381D01*
X9608286Y-20162286D01*
X9608286Y-20114667D01*
X9617810Y-20076571D01*
X9627333Y-20057524D01*
X9636857Y-20048000D01*
X9655905Y-20038476D01*
X9846381Y-20038476D02*
X9865429Y-20038476D01*
X9884476Y-20048000D01*
X9894000Y-20057524D01*
X9903524Y-20076571D01*
X9913048Y-20114667D01*
X9913048Y-20162286D01*
X9903524Y-20200381D01*
X9894000Y-20219429D01*
X9884476Y-20228952D01*
X9865429Y-20238476D01*
X9846381Y-20238476D01*
X9827333Y-20228952D01*
X9817810Y-20219429D01*
X9808286Y-20200381D01*
X9798762Y-20162286D01*
X9798762Y-20114667D01*
X9808286Y-20076571D01*
X9817810Y-20057524D01*
X9827333Y-20048000D01*
X9846381Y-20038476D01*
X9998762Y-20238476D02*
X9998762Y-20105143D01*
X9998762Y-20124190D02*
X10008286Y-20114667D01*
X10027333Y-20105143D01*
X10055905Y-20105143D01*
X10074952Y-20114667D01*
X10084476Y-20133714D01*
X10084476Y-20238476D01*
X10084476Y-20133714D02*
X10094000Y-20114667D01*
X10113048Y-20105143D01*
X10141619Y-20105143D01*
X10160667Y-20114667D01*
X10170190Y-20133714D01*
X10170190Y-20238476D01*
X10265429Y-20238476D02*
X10265429Y-20105143D01*
X10265429Y-20124190D02*
X10274952Y-20114667D01*
X10294000Y-20105143D01*
X10322571Y-20105143D01*
X10341619Y-20114667D01*
X10351143Y-20133714D01*
X10351143Y-20238476D01*
X10351143Y-20133714D02*
X10360667Y-20114667D01*
X10379714Y-20105143D01*
X10408286Y-20105143D01*
X10427333Y-20114667D01*
X10436857Y-20133714D01*
X10436857Y-20238476D01*
X10827333Y-20028952D02*
X10655905Y-20286095D01*
X11084476Y-20038476D02*
X11103524Y-20038476D01*
X11122571Y-20048000D01*
X11132095Y-20057524D01*
X11141619Y-20076571D01*
X11151143Y-20114667D01*
X11151143Y-20162286D01*
X11141619Y-20200381D01*
X11132095Y-20219429D01*
X11122571Y-20228952D01*
X11103524Y-20238476D01*
X11084476Y-20238476D01*
X11065429Y-20228952D01*
X11055905Y-20219429D01*
X11046381Y-20200381D01*
X11036857Y-20162286D01*
X11036857Y-20114667D01*
X11046381Y-20076571D01*
X11055905Y-20057524D01*
X11065429Y-20048000D01*
X11084476Y-20038476D01*
X11236857Y-20219429D02*
X11246381Y-20228952D01*
X11236857Y-20238476D01*
X11227333Y-20228952D01*
X11236857Y-20219429D01*
X11236857Y-20238476D01*
X11370190Y-20038476D02*
X11389238Y-20038476D01*
X11408286Y-20048000D01*
X11417809Y-20057524D01*
X11427333Y-20076571D01*
X11436857Y-20114667D01*
X11436857Y-20162286D01*
X11427333Y-20200381D01*
X11417809Y-20219429D01*
X11408286Y-20228952D01*
X11389238Y-20238476D01*
X11370190Y-20238476D01*
X11351143Y-20228952D01*
X11341619Y-20219429D01*
X11332095Y-20200381D01*
X11322571Y-20162286D01*
X11322571Y-20114667D01*
X11332095Y-20076571D01*
X11341619Y-20057524D01*
X11351143Y-20048000D01*
X11370190Y-20038476D01*
X11513048Y-20057524D02*
X11522571Y-20048000D01*
X11541619Y-20038476D01*
X11589238Y-20038476D01*
X11608286Y-20048000D01*
X11617809Y-20057524D01*
X11627333Y-20076571D01*
X11627333Y-20095619D01*
X11617809Y-20124190D01*
X11503524Y-20238476D01*
X11627333Y-20238476D01*
X11694000Y-20038476D02*
X11827333Y-20038476D01*
X11741619Y-20238476D01*
X11989238Y-20038476D02*
X11951143Y-20038476D01*
X11932095Y-20048000D01*
X11922571Y-20057524D01*
X11903524Y-20086095D01*
X11894000Y-20124190D01*
X11894000Y-20200381D01*
X11903524Y-20219429D01*
X11913048Y-20228952D01*
X11932095Y-20238476D01*
X11970190Y-20238476D01*
X11989238Y-20228952D01*
X11998762Y-20219429D01*
X12008286Y-20200381D01*
X12008286Y-20152762D01*
X11998762Y-20133714D01*
X11989238Y-20124190D01*
X11970190Y-20114667D01*
X11932095Y-20114667D01*
X11913048Y-20124190D01*
X11903524Y-20133714D01*
X11894000Y-20152762D01*
X12084476Y-20038476D02*
X12084476Y-20076571D01*
X12160667Y-20038476D02*
X12160667Y-20076571D01*
X12455905Y-20314667D02*
X12446381Y-20305143D01*
X12427333Y-20276571D01*
X12417809Y-20257524D01*
X12408286Y-20228952D01*
X12398762Y-20181333D01*
X12398762Y-20143238D01*
X12408286Y-20095619D01*
X12417809Y-20067048D01*
X12427333Y-20048000D01*
X12446381Y-20019429D01*
X12455905Y-20009905D01*
X12560667Y-20124190D02*
X12541619Y-20114667D01*
X12532095Y-20105143D01*
X12522571Y-20086095D01*
X12522571Y-20076571D01*
X12532095Y-20057524D01*
X12541619Y-20048000D01*
X12560667Y-20038476D01*
X12598762Y-20038476D01*
X12617809Y-20048000D01*
X12627333Y-20057524D01*
X12636857Y-20076571D01*
X12636857Y-20086095D01*
X12627333Y-20105143D01*
X12617809Y-20114667D01*
X12598762Y-20124190D01*
X12560667Y-20124190D01*
X12541619Y-20133714D01*
X12532095Y-20143238D01*
X12522571Y-20162286D01*
X12522571Y-20200381D01*
X12532095Y-20219429D01*
X12541619Y-20228952D01*
X12560667Y-20238476D01*
X12598762Y-20238476D01*
X12617809Y-20228952D01*
X12627333Y-20219429D01*
X12636857Y-20200381D01*
X12636857Y-20162286D01*
X12627333Y-20143238D01*
X12617809Y-20133714D01*
X12598762Y-20124190D01*
X12874952Y-20238476D02*
X12874952Y-20038476D01*
X12960667Y-20238476D02*
X12960667Y-20133714D01*
X12951143Y-20114667D01*
X12932095Y-20105143D01*
X12903524Y-20105143D01*
X12884476Y-20114667D01*
X12874952Y-20124190D01*
X13084476Y-20238476D02*
X13065428Y-20228952D01*
X13055905Y-20219429D01*
X13046381Y-20200381D01*
X13046381Y-20143238D01*
X13055905Y-20124190D01*
X13065428Y-20114667D01*
X13084476Y-20105143D01*
X13113048Y-20105143D01*
X13132095Y-20114667D01*
X13141619Y-20124190D01*
X13151143Y-20143238D01*
X13151143Y-20200381D01*
X13141619Y-20219429D01*
X13132095Y-20228952D01*
X13113048Y-20238476D01*
X13084476Y-20238476D01*
X13265428Y-20238476D02*
X13246381Y-20228952D01*
X13236857Y-20209905D01*
X13236857Y-20038476D01*
X13417809Y-20228952D02*
X13398762Y-20238476D01*
X13360667Y-20238476D01*
X13341619Y-20228952D01*
X13332095Y-20209905D01*
X13332095Y-20133714D01*
X13341619Y-20114667D01*
X13360667Y-20105143D01*
X13398762Y-20105143D01*
X13417809Y-20114667D01*
X13427333Y-20133714D01*
X13427333Y-20152762D01*
X13332095Y-20171810D01*
X13503524Y-20228952D02*
X13522571Y-20238476D01*
X13560667Y-20238476D01*
X13579714Y-20228952D01*
X13589238Y-20209905D01*
X13589238Y-20200381D01*
X13579714Y-20181333D01*
X13560667Y-20171810D01*
X13532095Y-20171810D01*
X13513048Y-20162286D01*
X13503524Y-20143238D01*
X13503524Y-20133714D01*
X13513048Y-20114667D01*
X13532095Y-20105143D01*
X13560667Y-20105143D01*
X13579714Y-20114667D01*
X13655905Y-20314667D02*
X13665428Y-20305143D01*
X13684476Y-20276571D01*
X13694000Y-20257524D01*
X13703524Y-20228952D01*
X13713048Y-20181333D01*
X13713048Y-20143238D01*
X13703524Y-20095619D01*
X13694000Y-20067048D01*
X13684476Y-20048000D01*
X13665428Y-20019429D01*
X13655905Y-20009905D01*
D14*
X8844000Y-20372000D02*
X8844000Y-20452000D01*
X8804000Y-20412000D02*
X8884000Y-20412000D01*
D11*
X9179714Y-20302476D02*
X9198762Y-20302476D01*
X9217810Y-20312000D01*
X9227333Y-20321524D01*
X9236857Y-20340571D01*
X9246381Y-20378667D01*
X9246381Y-20426286D01*
X9236857Y-20464381D01*
X9227333Y-20483429D01*
X9217810Y-20492952D01*
X9198762Y-20502476D01*
X9179714Y-20502476D01*
X9160667Y-20492952D01*
X9151143Y-20483429D01*
X9141619Y-20464381D01*
X9132095Y-20426286D01*
X9132095Y-20378667D01*
X9141619Y-20340571D01*
X9151143Y-20321524D01*
X9160667Y-20312000D01*
X9179714Y-20302476D01*
X9332095Y-20483429D02*
X9341619Y-20492952D01*
X9332095Y-20502476D01*
X9322571Y-20492952D01*
X9332095Y-20483429D01*
X9332095Y-20502476D01*
X9455905Y-20388190D02*
X9436857Y-20378667D01*
X9427333Y-20369143D01*
X9417810Y-20350095D01*
X9417810Y-20340571D01*
X9427333Y-20321524D01*
X9436857Y-20312000D01*
X9455905Y-20302476D01*
X9494000Y-20302476D01*
X9513048Y-20312000D01*
X9522571Y-20321524D01*
X9532095Y-20340571D01*
X9532095Y-20350095D01*
X9522571Y-20369143D01*
X9513048Y-20378667D01*
X9494000Y-20388190D01*
X9455905Y-20388190D01*
X9436857Y-20397714D01*
X9427333Y-20407238D01*
X9417810Y-20426286D01*
X9417810Y-20464381D01*
X9427333Y-20483429D01*
X9436857Y-20492952D01*
X9455905Y-20502476D01*
X9494000Y-20502476D01*
X9513048Y-20492952D01*
X9522571Y-20483429D01*
X9532095Y-20464381D01*
X9532095Y-20426286D01*
X9522571Y-20407238D01*
X9513048Y-20397714D01*
X9494000Y-20388190D01*
X9655905Y-20302476D02*
X9674952Y-20302476D01*
X9694000Y-20312000D01*
X9703524Y-20321524D01*
X9713048Y-20340571D01*
X9722571Y-20378667D01*
X9722571Y-20426286D01*
X9713048Y-20464381D01*
X9703524Y-20483429D01*
X9694000Y-20492952D01*
X9674952Y-20502476D01*
X9655905Y-20502476D01*
X9636857Y-20492952D01*
X9627333Y-20483429D01*
X9617810Y-20464381D01*
X9608286Y-20426286D01*
X9608286Y-20378667D01*
X9617810Y-20340571D01*
X9627333Y-20321524D01*
X9636857Y-20312000D01*
X9655905Y-20302476D01*
X9846381Y-20302476D02*
X9865429Y-20302476D01*
X9884476Y-20312000D01*
X9894000Y-20321524D01*
X9903524Y-20340571D01*
X9913048Y-20378667D01*
X9913048Y-20426286D01*
X9903524Y-20464381D01*
X9894000Y-20483429D01*
X9884476Y-20492952D01*
X9865429Y-20502476D01*
X9846381Y-20502476D01*
X9827333Y-20492952D01*
X9817810Y-20483429D01*
X9808286Y-20464381D01*
X9798762Y-20426286D01*
X9798762Y-20378667D01*
X9808286Y-20340571D01*
X9817810Y-20321524D01*
X9827333Y-20312000D01*
X9846381Y-20302476D01*
X9998762Y-20502476D02*
X9998762Y-20369143D01*
X9998762Y-20388190D02*
X10008286Y-20378667D01*
X10027333Y-20369143D01*
X10055905Y-20369143D01*
X10074952Y-20378667D01*
X10084476Y-20397714D01*
X10084476Y-20502476D01*
X10084476Y-20397714D02*
X10094000Y-20378667D01*
X10113048Y-20369143D01*
X10141619Y-20369143D01*
X10160667Y-20378667D01*
X10170190Y-20397714D01*
X10170190Y-20502476D01*
X10265429Y-20502476D02*
X10265429Y-20369143D01*
X10265429Y-20388190D02*
X10274952Y-20378667D01*
X10294000Y-20369143D01*
X10322571Y-20369143D01*
X10341619Y-20378667D01*
X10351143Y-20397714D01*
X10351143Y-20502476D01*
X10351143Y-20397714D02*
X10360667Y-20378667D01*
X10379714Y-20369143D01*
X10408286Y-20369143D01*
X10427333Y-20378667D01*
X10436857Y-20397714D01*
X10436857Y-20502476D01*
X10827333Y-20292952D02*
X10655905Y-20550095D01*
X11084476Y-20302476D02*
X11103524Y-20302476D01*
X11122571Y-20312000D01*
X11132095Y-20321524D01*
X11141619Y-20340571D01*
X11151143Y-20378667D01*
X11151143Y-20426286D01*
X11141619Y-20464381D01*
X11132095Y-20483429D01*
X11122571Y-20492952D01*
X11103524Y-20502476D01*
X11084476Y-20502476D01*
X11065429Y-20492952D01*
X11055905Y-20483429D01*
X11046381Y-20464381D01*
X11036857Y-20426286D01*
X11036857Y-20378667D01*
X11046381Y-20340571D01*
X11055905Y-20321524D01*
X11065429Y-20312000D01*
X11084476Y-20302476D01*
X11236857Y-20483429D02*
X11246381Y-20492952D01*
X11236857Y-20502476D01*
X11227333Y-20492952D01*
X11236857Y-20483429D01*
X11236857Y-20502476D01*
X11370190Y-20302476D02*
X11389238Y-20302476D01*
X11408286Y-20312000D01*
X11417809Y-20321524D01*
X11427333Y-20340571D01*
X11436857Y-20378667D01*
X11436857Y-20426286D01*
X11427333Y-20464381D01*
X11417809Y-20483429D01*
X11408286Y-20492952D01*
X11389238Y-20502476D01*
X11370190Y-20502476D01*
X11351143Y-20492952D01*
X11341619Y-20483429D01*
X11332095Y-20464381D01*
X11322571Y-20426286D01*
X11322571Y-20378667D01*
X11332095Y-20340571D01*
X11341619Y-20321524D01*
X11351143Y-20312000D01*
X11370190Y-20302476D01*
X11503524Y-20302476D02*
X11627333Y-20302476D01*
X11560667Y-20378667D01*
X11589238Y-20378667D01*
X11608286Y-20388190D01*
X11617809Y-20397714D01*
X11627333Y-20416762D01*
X11627333Y-20464381D01*
X11617809Y-20483429D01*
X11608286Y-20492952D01*
X11589238Y-20502476D01*
X11532095Y-20502476D01*
X11513048Y-20492952D01*
X11503524Y-20483429D01*
X11817809Y-20502476D02*
X11703524Y-20502476D01*
X11760667Y-20502476D02*
X11760667Y-20302476D01*
X11741619Y-20331048D01*
X11722571Y-20350095D01*
X11703524Y-20359619D01*
X11998762Y-20302476D02*
X11903524Y-20302476D01*
X11894000Y-20397714D01*
X11903524Y-20388190D01*
X11922571Y-20378667D01*
X11970190Y-20378667D01*
X11989238Y-20388190D01*
X11998762Y-20397714D01*
X12008286Y-20416762D01*
X12008286Y-20464381D01*
X11998762Y-20483429D01*
X11989238Y-20492952D01*
X11970190Y-20502476D01*
X11922571Y-20502476D01*
X11903524Y-20492952D01*
X11894000Y-20483429D01*
X12084476Y-20302476D02*
X12084476Y-20340571D01*
X12160667Y-20302476D02*
X12160667Y-20340571D01*
X12455905Y-20578667D02*
X12446381Y-20569143D01*
X12427333Y-20540571D01*
X12417809Y-20521524D01*
X12408286Y-20492952D01*
X12398762Y-20445333D01*
X12398762Y-20407238D01*
X12408286Y-20359619D01*
X12417809Y-20331048D01*
X12427333Y-20312000D01*
X12446381Y-20283429D01*
X12455905Y-20273905D01*
X12513048Y-20302476D02*
X12646381Y-20302476D01*
X12560667Y-20502476D01*
X12808286Y-20369143D02*
X12808286Y-20502476D01*
X12760667Y-20292952D02*
X12713048Y-20435810D01*
X12836857Y-20435810D01*
X13065428Y-20502476D02*
X13065428Y-20302476D01*
X13151143Y-20502476D02*
X13151143Y-20397714D01*
X13141619Y-20378667D01*
X13122571Y-20369143D01*
X13094000Y-20369143D01*
X13074952Y-20378667D01*
X13065428Y-20388190D01*
X13274952Y-20502476D02*
X13255905Y-20492952D01*
X13246381Y-20483429D01*
X13236857Y-20464381D01*
X13236857Y-20407238D01*
X13246381Y-20388190D01*
X13255905Y-20378667D01*
X13274952Y-20369143D01*
X13303524Y-20369143D01*
X13322571Y-20378667D01*
X13332095Y-20388190D01*
X13341619Y-20407238D01*
X13341619Y-20464381D01*
X13332095Y-20483429D01*
X13322571Y-20492952D01*
X13303524Y-20502476D01*
X13274952Y-20502476D01*
X13455905Y-20502476D02*
X13436857Y-20492952D01*
X13427333Y-20473905D01*
X13427333Y-20302476D01*
X13608286Y-20492952D02*
X13589238Y-20502476D01*
X13551143Y-20502476D01*
X13532095Y-20492952D01*
X13522571Y-20473905D01*
X13522571Y-20397714D01*
X13532095Y-20378667D01*
X13551143Y-20369143D01*
X13589238Y-20369143D01*
X13608286Y-20378667D01*
X13617809Y-20397714D01*
X13617809Y-20416762D01*
X13522571Y-20435810D01*
X13694000Y-20492952D02*
X13713048Y-20502476D01*
X13751143Y-20502476D01*
X13770190Y-20492952D01*
X13779714Y-20473905D01*
X13779714Y-20464381D01*
X13770190Y-20445333D01*
X13751143Y-20435810D01*
X13722571Y-20435810D01*
X13703524Y-20426286D01*
X13694000Y-20407238D01*
X13694000Y-20397714D01*
X13703524Y-20378667D01*
X13722571Y-20369143D01*
X13751143Y-20369143D01*
X13770190Y-20378667D01*
X13846381Y-20578667D02*
X13855905Y-20569143D01*
X13874952Y-20540571D01*
X13884476Y-20521524D01*
X13894000Y-20492952D01*
X13903524Y-20445333D01*
X13903524Y-20407238D01*
X13894000Y-20359619D01*
X13884476Y-20331048D01*
X13874952Y-20312000D01*
X13855905Y-20283429D01*
X13846381Y-20273905D01*
D15*
X8870820Y-20707820D02*
X8870820Y-20644180D01*
X8807180Y-20644180D01*
X8807180Y-20707820D01*
X8870820Y-20707820D01*
D11*
X9179714Y-20566476D02*
X9198762Y-20566476D01*
X9217810Y-20576000D01*
X9227333Y-20585524D01*
X9236857Y-20604571D01*
X9246381Y-20642667D01*
X9246381Y-20690286D01*
X9236857Y-20728381D01*
X9227333Y-20747429D01*
X9217810Y-20756952D01*
X9198762Y-20766476D01*
X9179714Y-20766476D01*
X9160667Y-20756952D01*
X9151143Y-20747429D01*
X9141619Y-20728381D01*
X9132095Y-20690286D01*
X9132095Y-20642667D01*
X9141619Y-20604571D01*
X9151143Y-20585524D01*
X9160667Y-20576000D01*
X9179714Y-20566476D01*
X9332095Y-20747429D02*
X9341619Y-20756952D01*
X9332095Y-20766476D01*
X9322571Y-20756952D01*
X9332095Y-20747429D01*
X9332095Y-20766476D01*
X9436857Y-20766476D02*
X9474952Y-20766476D01*
X9494000Y-20756952D01*
X9503524Y-20747429D01*
X9522571Y-20718857D01*
X9532095Y-20680762D01*
X9532095Y-20604571D01*
X9522571Y-20585524D01*
X9513048Y-20576000D01*
X9494000Y-20566476D01*
X9455905Y-20566476D01*
X9436857Y-20576000D01*
X9427333Y-20585524D01*
X9417810Y-20604571D01*
X9417810Y-20652190D01*
X9427333Y-20671238D01*
X9436857Y-20680762D01*
X9455905Y-20690286D01*
X9494000Y-20690286D01*
X9513048Y-20680762D01*
X9522571Y-20671238D01*
X9532095Y-20652190D01*
X9655905Y-20566476D02*
X9674952Y-20566476D01*
X9694000Y-20576000D01*
X9703524Y-20585524D01*
X9713048Y-20604571D01*
X9722571Y-20642667D01*
X9722571Y-20690286D01*
X9713048Y-20728381D01*
X9703524Y-20747429D01*
X9694000Y-20756952D01*
X9674952Y-20766476D01*
X9655905Y-20766476D01*
X9636857Y-20756952D01*
X9627333Y-20747429D01*
X9617810Y-20728381D01*
X9608286Y-20690286D01*
X9608286Y-20642667D01*
X9617810Y-20604571D01*
X9627333Y-20585524D01*
X9636857Y-20576000D01*
X9655905Y-20566476D01*
X9846381Y-20566476D02*
X9865429Y-20566476D01*
X9884476Y-20576000D01*
X9894000Y-20585524D01*
X9903524Y-20604571D01*
X9913048Y-20642667D01*
X9913048Y-20690286D01*
X9903524Y-20728381D01*
X9894000Y-20747429D01*
X9884476Y-20756952D01*
X9865429Y-20766476D01*
X9846381Y-20766476D01*
X9827333Y-20756952D01*
X9817810Y-20747429D01*
X9808286Y-20728381D01*
X9798762Y-20690286D01*
X9798762Y-20642667D01*
X9808286Y-20604571D01*
X9817810Y-20585524D01*
X9827333Y-20576000D01*
X9846381Y-20566476D01*
X9998762Y-20766476D02*
X9998762Y-20633143D01*
X9998762Y-20652190D02*
X10008286Y-20642667D01*
X10027333Y-20633143D01*
X10055905Y-20633143D01*
X10074952Y-20642667D01*
X10084476Y-20661714D01*
X10084476Y-20766476D01*
X10084476Y-20661714D02*
X10094000Y-20642667D01*
X10113048Y-20633143D01*
X10141619Y-20633143D01*
X10160667Y-20642667D01*
X10170190Y-20661714D01*
X10170190Y-20766476D01*
X10265429Y-20766476D02*
X10265429Y-20633143D01*
X10265429Y-20652190D02*
X10274952Y-20642667D01*
X10294000Y-20633143D01*
X10322571Y-20633143D01*
X10341619Y-20642667D01*
X10351143Y-20661714D01*
X10351143Y-20766476D01*
X10351143Y-20661714D02*
X10360667Y-20642667D01*
X10379714Y-20633143D01*
X10408286Y-20633143D01*
X10427333Y-20642667D01*
X10436857Y-20661714D01*
X10436857Y-20766476D01*
X10827333Y-20556952D02*
X10655905Y-20814095D01*
X11084476Y-20566476D02*
X11103524Y-20566476D01*
X11122571Y-20576000D01*
X11132095Y-20585524D01*
X11141619Y-20604571D01*
X11151143Y-20642667D01*
X11151143Y-20690286D01*
X11141619Y-20728381D01*
X11132095Y-20747429D01*
X11122571Y-20756952D01*
X11103524Y-20766476D01*
X11084476Y-20766476D01*
X11065429Y-20756952D01*
X11055905Y-20747429D01*
X11046381Y-20728381D01*
X11036857Y-20690286D01*
X11036857Y-20642667D01*
X11046381Y-20604571D01*
X11055905Y-20585524D01*
X11065429Y-20576000D01*
X11084476Y-20566476D01*
X11236857Y-20747429D02*
X11246381Y-20756952D01*
X11236857Y-20766476D01*
X11227333Y-20756952D01*
X11236857Y-20747429D01*
X11236857Y-20766476D01*
X11370190Y-20566476D02*
X11389238Y-20566476D01*
X11408286Y-20576000D01*
X11417809Y-20585524D01*
X11427333Y-20604571D01*
X11436857Y-20642667D01*
X11436857Y-20690286D01*
X11427333Y-20728381D01*
X11417809Y-20747429D01*
X11408286Y-20756952D01*
X11389238Y-20766476D01*
X11370190Y-20766476D01*
X11351143Y-20756952D01*
X11341619Y-20747429D01*
X11332095Y-20728381D01*
X11322571Y-20690286D01*
X11322571Y-20642667D01*
X11332095Y-20604571D01*
X11341619Y-20585524D01*
X11351143Y-20576000D01*
X11370190Y-20566476D01*
X11503524Y-20566476D02*
X11627333Y-20566476D01*
X11560667Y-20642667D01*
X11589238Y-20642667D01*
X11608286Y-20652190D01*
X11617809Y-20661714D01*
X11627333Y-20680762D01*
X11627333Y-20728381D01*
X11617809Y-20747429D01*
X11608286Y-20756952D01*
X11589238Y-20766476D01*
X11532095Y-20766476D01*
X11513048Y-20756952D01*
X11503524Y-20747429D01*
X11808286Y-20566476D02*
X11713048Y-20566476D01*
X11703524Y-20661714D01*
X11713048Y-20652190D01*
X11732095Y-20642667D01*
X11779714Y-20642667D01*
X11798762Y-20652190D01*
X11808286Y-20661714D01*
X11817809Y-20680762D01*
X11817809Y-20728381D01*
X11808286Y-20747429D01*
X11798762Y-20756952D01*
X11779714Y-20766476D01*
X11732095Y-20766476D01*
X11713048Y-20756952D01*
X11703524Y-20747429D01*
X11989238Y-20633143D02*
X11989238Y-20766476D01*
X11941619Y-20556952D02*
X11894000Y-20699810D01*
X12017809Y-20699810D01*
X12084476Y-20566476D02*
X12084476Y-20604571D01*
X12160667Y-20566476D02*
X12160667Y-20604571D01*
X12455905Y-20842667D02*
X12446381Y-20833143D01*
X12427333Y-20804571D01*
X12417809Y-20785524D01*
X12408286Y-20756952D01*
X12398762Y-20709333D01*
X12398762Y-20671238D01*
X12408286Y-20623619D01*
X12417809Y-20595048D01*
X12427333Y-20576000D01*
X12446381Y-20547429D01*
X12455905Y-20537905D01*
X12617809Y-20633143D02*
X12617809Y-20766476D01*
X12570190Y-20556952D02*
X12522571Y-20699810D01*
X12646381Y-20699810D01*
X12874952Y-20766476D02*
X12874952Y-20566476D01*
X12960667Y-20766476D02*
X12960667Y-20661714D01*
X12951143Y-20642667D01*
X12932095Y-20633143D01*
X12903524Y-20633143D01*
X12884476Y-20642667D01*
X12874952Y-20652190D01*
X13084476Y-20766476D02*
X13065428Y-20756952D01*
X13055905Y-20747429D01*
X13046381Y-20728381D01*
X13046381Y-20671238D01*
X13055905Y-20652190D01*
X13065428Y-20642667D01*
X13084476Y-20633143D01*
X13113048Y-20633143D01*
X13132095Y-20642667D01*
X13141619Y-20652190D01*
X13151143Y-20671238D01*
X13151143Y-20728381D01*
X13141619Y-20747429D01*
X13132095Y-20756952D01*
X13113048Y-20766476D01*
X13084476Y-20766476D01*
X13265428Y-20766476D02*
X13246381Y-20756952D01*
X13236857Y-20737905D01*
X13236857Y-20566476D01*
X13417809Y-20756952D02*
X13398762Y-20766476D01*
X13360667Y-20766476D01*
X13341619Y-20756952D01*
X13332095Y-20737905D01*
X13332095Y-20661714D01*
X13341619Y-20642667D01*
X13360667Y-20633143D01*
X13398762Y-20633143D01*
X13417809Y-20642667D01*
X13427333Y-20661714D01*
X13427333Y-20680762D01*
X13332095Y-20699810D01*
X13503524Y-20756952D02*
X13522571Y-20766476D01*
X13560667Y-20766476D01*
X13579714Y-20756952D01*
X13589238Y-20737905D01*
X13589238Y-20728381D01*
X13579714Y-20709333D01*
X13560667Y-20699810D01*
X13532095Y-20699810D01*
X13513048Y-20690286D01*
X13503524Y-20671238D01*
X13503524Y-20661714D01*
X13513048Y-20642667D01*
X13532095Y-20633143D01*
X13560667Y-20633143D01*
X13579714Y-20642667D01*
X13655905Y-20842667D02*
X13665428Y-20833143D01*
X13684476Y-20804571D01*
X13694000Y-20785524D01*
X13703524Y-20756952D01*
X13713048Y-20709333D01*
X13713048Y-20671238D01*
X13703524Y-20623619D01*
X13694000Y-20595048D01*
X13684476Y-20576000D01*
X13665428Y-20547429D01*
X13655905Y-20537905D01*
D16*
X8834000Y-20990000D02*
X8884000Y-20940000D01*
X8834000Y-20890000D01*
X8784000Y-20940000D01*
X8834000Y-20990000D01*
D11*
X9246381Y-21030476D02*
X9132095Y-21030476D01*
X9189238Y-21030476D02*
X9189238Y-20830476D01*
X9170190Y-20859048D01*
X9151143Y-20878095D01*
X9132095Y-20887619D01*
X9332095Y-21011429D02*
X9341619Y-21020952D01*
X9332095Y-21030476D01*
X9322571Y-21020952D01*
X9332095Y-21011429D01*
X9332095Y-21030476D01*
X9465429Y-20830476D02*
X9484476Y-20830476D01*
X9503524Y-20840000D01*
X9513048Y-20849524D01*
X9522571Y-20868571D01*
X9532095Y-20906667D01*
X9532095Y-20954286D01*
X9522571Y-20992381D01*
X9513048Y-21011429D01*
X9503524Y-21020952D01*
X9484476Y-21030476D01*
X9465429Y-21030476D01*
X9446381Y-21020952D01*
X9436857Y-21011429D01*
X9427333Y-20992381D01*
X9417810Y-20954286D01*
X9417810Y-20906667D01*
X9427333Y-20868571D01*
X9436857Y-20849524D01*
X9446381Y-20840000D01*
X9465429Y-20830476D01*
X9655905Y-20830476D02*
X9674952Y-20830476D01*
X9694000Y-20840000D01*
X9703524Y-20849524D01*
X9713048Y-20868571D01*
X9722571Y-20906667D01*
X9722571Y-20954286D01*
X9713048Y-20992381D01*
X9703524Y-21011429D01*
X9694000Y-21020952D01*
X9674952Y-21030476D01*
X9655905Y-21030476D01*
X9636857Y-21020952D01*
X9627333Y-21011429D01*
X9617810Y-20992381D01*
X9608286Y-20954286D01*
X9608286Y-20906667D01*
X9617810Y-20868571D01*
X9627333Y-20849524D01*
X9636857Y-20840000D01*
X9655905Y-20830476D01*
X9846381Y-20830476D02*
X9865429Y-20830476D01*
X9884476Y-20840000D01*
X9894000Y-20849524D01*
X9903524Y-20868571D01*
X9913048Y-20906667D01*
X9913048Y-20954286D01*
X9903524Y-20992381D01*
X9894000Y-21011429D01*
X9884476Y-21020952D01*
X9865429Y-21030476D01*
X9846381Y-21030476D01*
X9827333Y-21020952D01*
X9817810Y-21011429D01*
X9808286Y-20992381D01*
X9798762Y-20954286D01*
X9798762Y-20906667D01*
X9808286Y-20868571D01*
X9817810Y-20849524D01*
X9827333Y-20840000D01*
X9846381Y-20830476D01*
X9998762Y-21030476D02*
X9998762Y-20897143D01*
X9998762Y-20916190D02*
X10008286Y-20906667D01*
X10027333Y-20897143D01*
X10055905Y-20897143D01*
X10074952Y-20906667D01*
X10084476Y-20925714D01*
X10084476Y-21030476D01*
X10084476Y-20925714D02*
X10094000Y-20906667D01*
X10113048Y-20897143D01*
X10141619Y-20897143D01*
X10160667Y-20906667D01*
X10170190Y-20925714D01*
X10170190Y-21030476D01*
X10265429Y-21030476D02*
X10265429Y-20897143D01*
X10265429Y-20916190D02*
X10274952Y-20906667D01*
X10294000Y-20897143D01*
X10322571Y-20897143D01*
X10341619Y-20906667D01*
X10351143Y-20925714D01*
X10351143Y-21030476D01*
X10351143Y-20925714D02*
X10360667Y-20906667D01*
X10379714Y-20897143D01*
X10408286Y-20897143D01*
X10427333Y-20906667D01*
X10436857Y-20925714D01*
X10436857Y-21030476D01*
X10827333Y-20820952D02*
X10655905Y-21078095D01*
X11084476Y-20830476D02*
X11103524Y-20830476D01*
X11122571Y-20840000D01*
X11132095Y-20849524D01*
X11141619Y-20868571D01*
X11151143Y-20906667D01*
X11151143Y-20954286D01*
X11141619Y-20992381D01*
X11132095Y-21011429D01*
X11122571Y-21020952D01*
X11103524Y-21030476D01*
X11084476Y-21030476D01*
X11065429Y-21020952D01*
X11055905Y-21011429D01*
X11046381Y-20992381D01*
X11036857Y-20954286D01*
X11036857Y-20906667D01*
X11046381Y-20868571D01*
X11055905Y-20849524D01*
X11065429Y-20840000D01*
X11084476Y-20830476D01*
X11236857Y-21011429D02*
X11246381Y-21020952D01*
X11236857Y-21030476D01*
X11227333Y-21020952D01*
X11236857Y-21011429D01*
X11236857Y-21030476D01*
X11370190Y-20830476D02*
X11389238Y-20830476D01*
X11408286Y-20840000D01*
X11417809Y-20849524D01*
X11427333Y-20868571D01*
X11436857Y-20906667D01*
X11436857Y-20954286D01*
X11427333Y-20992381D01*
X11417809Y-21011429D01*
X11408286Y-21020952D01*
X11389238Y-21030476D01*
X11370190Y-21030476D01*
X11351143Y-21020952D01*
X11341619Y-21011429D01*
X11332095Y-20992381D01*
X11322571Y-20954286D01*
X11322571Y-20906667D01*
X11332095Y-20868571D01*
X11341619Y-20849524D01*
X11351143Y-20840000D01*
X11370190Y-20830476D01*
X11503524Y-20830476D02*
X11627333Y-20830476D01*
X11560667Y-20906667D01*
X11589238Y-20906667D01*
X11608286Y-20916190D01*
X11617809Y-20925714D01*
X11627333Y-20944762D01*
X11627333Y-20992381D01*
X11617809Y-21011429D01*
X11608286Y-21020952D01*
X11589238Y-21030476D01*
X11532095Y-21030476D01*
X11513048Y-21020952D01*
X11503524Y-21011429D01*
X11722571Y-21030476D02*
X11760667Y-21030476D01*
X11779714Y-21020952D01*
X11789238Y-21011429D01*
X11808286Y-20982857D01*
X11817809Y-20944762D01*
X11817809Y-20868571D01*
X11808286Y-20849524D01*
X11798762Y-20840000D01*
X11779714Y-20830476D01*
X11741619Y-20830476D01*
X11722571Y-20840000D01*
X11713048Y-20849524D01*
X11703524Y-20868571D01*
X11703524Y-20916190D01*
X11713048Y-20935238D01*
X11722571Y-20944762D01*
X11741619Y-20954286D01*
X11779714Y-20954286D01*
X11798762Y-20944762D01*
X11808286Y-20935238D01*
X11817809Y-20916190D01*
X11989238Y-20897143D02*
X11989238Y-21030476D01*
X11941619Y-20820952D02*
X11894000Y-20963810D01*
X12017809Y-20963810D01*
X12084476Y-20830476D02*
X12084476Y-20868571D01*
X12160667Y-20830476D02*
X12160667Y-20868571D01*
X12455905Y-21106667D02*
X12446381Y-21097143D01*
X12427333Y-21068571D01*
X12417809Y-21049524D01*
X12408286Y-21020952D01*
X12398762Y-20973333D01*
X12398762Y-20935238D01*
X12408286Y-20887619D01*
X12417809Y-20859048D01*
X12427333Y-20840000D01*
X12446381Y-20811429D01*
X12455905Y-20801905D01*
X12617809Y-20897143D02*
X12617809Y-21030476D01*
X12570190Y-20820952D02*
X12522571Y-20963810D01*
X12646381Y-20963810D01*
X12874952Y-21030476D02*
X12874952Y-20830476D01*
X12960667Y-21030476D02*
X12960667Y-20925714D01*
X12951143Y-20906667D01*
X12932095Y-20897143D01*
X12903524Y-20897143D01*
X12884476Y-20906667D01*
X12874952Y-20916190D01*
X13084476Y-21030476D02*
X13065428Y-21020952D01*
X13055905Y-21011429D01*
X13046381Y-20992381D01*
X13046381Y-20935238D01*
X13055905Y-20916190D01*
X13065428Y-20906667D01*
X13084476Y-20897143D01*
X13113048Y-20897143D01*
X13132095Y-20906667D01*
X13141619Y-20916190D01*
X13151143Y-20935238D01*
X13151143Y-20992381D01*
X13141619Y-21011429D01*
X13132095Y-21020952D01*
X13113048Y-21030476D01*
X13084476Y-21030476D01*
X13265428Y-21030476D02*
X13246381Y-21020952D01*
X13236857Y-21001905D01*
X13236857Y-20830476D01*
X13417809Y-21020952D02*
X13398762Y-21030476D01*
X13360667Y-21030476D01*
X13341619Y-21020952D01*
X13332095Y-21001905D01*
X13332095Y-20925714D01*
X13341619Y-20906667D01*
X13360667Y-20897143D01*
X13398762Y-20897143D01*
X13417809Y-20906667D01*
X13427333Y-20925714D01*
X13427333Y-20944762D01*
X13332095Y-20963810D01*
X13503524Y-21020952D02*
X13522571Y-21030476D01*
X13560667Y-21030476D01*
X13579714Y-21020952D01*
X13589238Y-21001905D01*
X13589238Y-20992381D01*
X13579714Y-20973333D01*
X13560667Y-20963810D01*
X13532095Y-20963810D01*
X13513048Y-20954286D01*
X13503524Y-20935238D01*
X13503524Y-20925714D01*
X13513048Y-20906667D01*
X13532095Y-20897143D01*
X13560667Y-20897143D01*
X13579714Y-20906667D01*
X13655905Y-21106667D02*
X13665428Y-21097143D01*
X13684476Y-21068571D01*
X13694000Y-21049524D01*
X13703524Y-21020952D01*
X13713048Y-20973333D01*
X13713048Y-20935238D01*
X13703524Y-20887619D01*
X13694000Y-20859048D01*
X13684476Y-20840000D01*
X13665428Y-20811429D01*
X13655905Y-20801905D01*
D17*
X8774000Y-21149000D02*
X8884000Y-21259000D01*
X8884000Y-21149000D02*
X8774000Y-21259000D01*
X8884000Y-21204000D02*
G75*
G03*
X8884000Y-21204000I-55000J0D01*
G01*
D11*
X9246381Y-21294476D02*
X9132095Y-21294476D01*
X9189238Y-21294476D02*
X9189238Y-21094476D01*
X9170190Y-21123048D01*
X9151143Y-21142095D01*
X9132095Y-21151619D01*
X9332095Y-21275429D02*
X9341619Y-21284952D01*
X9332095Y-21294476D01*
X9322571Y-21284952D01*
X9332095Y-21275429D01*
X9332095Y-21294476D01*
X9532095Y-21294476D02*
X9417810Y-21294476D01*
X9474952Y-21294476D02*
X9474952Y-21094476D01*
X9455905Y-21123048D01*
X9436857Y-21142095D01*
X9417810Y-21151619D01*
X9655905Y-21094476D02*
X9674952Y-21094476D01*
X9694000Y-21104000D01*
X9703524Y-21113524D01*
X9713048Y-21132571D01*
X9722571Y-21170667D01*
X9722571Y-21218286D01*
X9713048Y-21256381D01*
X9703524Y-21275429D01*
X9694000Y-21284952D01*
X9674952Y-21294476D01*
X9655905Y-21294476D01*
X9636857Y-21284952D01*
X9627333Y-21275429D01*
X9617810Y-21256381D01*
X9608286Y-21218286D01*
X9608286Y-21170667D01*
X9617810Y-21132571D01*
X9627333Y-21113524D01*
X9636857Y-21104000D01*
X9655905Y-21094476D01*
X9846381Y-21094476D02*
X9865429Y-21094476D01*
X9884476Y-21104000D01*
X9894000Y-21113524D01*
X9903524Y-21132571D01*
X9913048Y-21170667D01*
X9913048Y-21218286D01*
X9903524Y-21256381D01*
X9894000Y-21275429D01*
X9884476Y-21284952D01*
X9865429Y-21294476D01*
X9846381Y-21294476D01*
X9827333Y-21284952D01*
X9817810Y-21275429D01*
X9808286Y-21256381D01*
X9798762Y-21218286D01*
X9798762Y-21170667D01*
X9808286Y-21132571D01*
X9817810Y-21113524D01*
X9827333Y-21104000D01*
X9846381Y-21094476D01*
X9998762Y-21294476D02*
X9998762Y-21161143D01*
X9998762Y-21180190D02*
X10008286Y-21170667D01*
X10027333Y-21161143D01*
X10055905Y-21161143D01*
X10074952Y-21170667D01*
X10084476Y-21189714D01*
X10084476Y-21294476D01*
X10084476Y-21189714D02*
X10094000Y-21170667D01*
X10113048Y-21161143D01*
X10141619Y-21161143D01*
X10160667Y-21170667D01*
X10170190Y-21189714D01*
X10170190Y-21294476D01*
X10265429Y-21294476D02*
X10265429Y-21161143D01*
X10265429Y-21180190D02*
X10274952Y-21170667D01*
X10294000Y-21161143D01*
X10322571Y-21161143D01*
X10341619Y-21170667D01*
X10351143Y-21189714D01*
X10351143Y-21294476D01*
X10351143Y-21189714D02*
X10360667Y-21170667D01*
X10379714Y-21161143D01*
X10408286Y-21161143D01*
X10427333Y-21170667D01*
X10436857Y-21189714D01*
X10436857Y-21294476D01*
X10827333Y-21084952D02*
X10655905Y-21342095D01*
X11084476Y-21094476D02*
X11103524Y-21094476D01*
X11122571Y-21104000D01*
X11132095Y-21113524D01*
X11141619Y-21132571D01*
X11151143Y-21170667D01*
X11151143Y-21218286D01*
X11141619Y-21256381D01*
X11132095Y-21275429D01*
X11122571Y-21284952D01*
X11103524Y-21294476D01*
X11084476Y-21294476D01*
X11065429Y-21284952D01*
X11055905Y-21275429D01*
X11046381Y-21256381D01*
X11036857Y-21218286D01*
X11036857Y-21170667D01*
X11046381Y-21132571D01*
X11055905Y-21113524D01*
X11065429Y-21104000D01*
X11084476Y-21094476D01*
X11236857Y-21275429D02*
X11246381Y-21284952D01*
X11236857Y-21294476D01*
X11227333Y-21284952D01*
X11236857Y-21275429D01*
X11236857Y-21294476D01*
X11370190Y-21094476D02*
X11389238Y-21094476D01*
X11408286Y-21104000D01*
X11417809Y-21113524D01*
X11427333Y-21132571D01*
X11436857Y-21170667D01*
X11436857Y-21218286D01*
X11427333Y-21256381D01*
X11417809Y-21275429D01*
X11408286Y-21284952D01*
X11389238Y-21294476D01*
X11370190Y-21294476D01*
X11351143Y-21284952D01*
X11341619Y-21275429D01*
X11332095Y-21256381D01*
X11322571Y-21218286D01*
X11322571Y-21170667D01*
X11332095Y-21132571D01*
X11341619Y-21113524D01*
X11351143Y-21104000D01*
X11370190Y-21094476D01*
X11608286Y-21161143D02*
X11608286Y-21294476D01*
X11560667Y-21084952D02*
X11513048Y-21227810D01*
X11636857Y-21227810D01*
X11694000Y-21094476D02*
X11817809Y-21094476D01*
X11751143Y-21170667D01*
X11779714Y-21170667D01*
X11798762Y-21180190D01*
X11808286Y-21189714D01*
X11817809Y-21208762D01*
X11817809Y-21256381D01*
X11808286Y-21275429D01*
X11798762Y-21284952D01*
X11779714Y-21294476D01*
X11722571Y-21294476D01*
X11703524Y-21284952D01*
X11694000Y-21275429D01*
X11884476Y-21094476D02*
X12008286Y-21094476D01*
X11941619Y-21170667D01*
X11970190Y-21170667D01*
X11989238Y-21180190D01*
X11998762Y-21189714D01*
X12008286Y-21208762D01*
X12008286Y-21256381D01*
X11998762Y-21275429D01*
X11989238Y-21284952D01*
X11970190Y-21294476D01*
X11913048Y-21294476D01*
X11894000Y-21284952D01*
X11884476Y-21275429D01*
X12084476Y-21094476D02*
X12084476Y-21132571D01*
X12160667Y-21094476D02*
X12160667Y-21132571D01*
X12455905Y-21370667D02*
X12446381Y-21361143D01*
X12427333Y-21332571D01*
X12417809Y-21313524D01*
X12408286Y-21284952D01*
X12398762Y-21237333D01*
X12398762Y-21199238D01*
X12408286Y-21151619D01*
X12417809Y-21123048D01*
X12427333Y-21104000D01*
X12446381Y-21075429D01*
X12455905Y-21065905D01*
X12617809Y-21094476D02*
X12579714Y-21094476D01*
X12560667Y-21104000D01*
X12551143Y-21113524D01*
X12532095Y-21142095D01*
X12522571Y-21180190D01*
X12522571Y-21256381D01*
X12532095Y-21275429D01*
X12541619Y-21284952D01*
X12560667Y-21294476D01*
X12598762Y-21294476D01*
X12617809Y-21284952D01*
X12627333Y-21275429D01*
X12636857Y-21256381D01*
X12636857Y-21208762D01*
X12627333Y-21189714D01*
X12617809Y-21180190D01*
X12598762Y-21170667D01*
X12560667Y-21170667D01*
X12541619Y-21180190D01*
X12532095Y-21189714D01*
X12522571Y-21208762D01*
X12703524Y-21094476D02*
X12836857Y-21094476D01*
X12751143Y-21294476D01*
X13065428Y-21294476D02*
X13065428Y-21094476D01*
X13151143Y-21294476D02*
X13151143Y-21189714D01*
X13141619Y-21170667D01*
X13122571Y-21161143D01*
X13094000Y-21161143D01*
X13074952Y-21170667D01*
X13065428Y-21180190D01*
X13274952Y-21294476D02*
X13255905Y-21284952D01*
X13246381Y-21275429D01*
X13236857Y-21256381D01*
X13236857Y-21199238D01*
X13246381Y-21180190D01*
X13255905Y-21170667D01*
X13274952Y-21161143D01*
X13303524Y-21161143D01*
X13322571Y-21170667D01*
X13332095Y-21180190D01*
X13341619Y-21199238D01*
X13341619Y-21256381D01*
X13332095Y-21275429D01*
X13322571Y-21284952D01*
X13303524Y-21294476D01*
X13274952Y-21294476D01*
X13455905Y-21294476D02*
X13436857Y-21284952D01*
X13427333Y-21265905D01*
X13427333Y-21094476D01*
X13608286Y-21284952D02*
X13589238Y-21294476D01*
X13551143Y-21294476D01*
X13532095Y-21284952D01*
X13522571Y-21265905D01*
X13522571Y-21189714D01*
X13532095Y-21170667D01*
X13551143Y-21161143D01*
X13589238Y-21161143D01*
X13608286Y-21170667D01*
X13617809Y-21189714D01*
X13617809Y-21208762D01*
X13522571Y-21227810D01*
X13694000Y-21284952D02*
X13713048Y-21294476D01*
X13751143Y-21294476D01*
X13770190Y-21284952D01*
X13779714Y-21265905D01*
X13779714Y-21256381D01*
X13770190Y-21237333D01*
X13751143Y-21227810D01*
X13722571Y-21227810D01*
X13703524Y-21218286D01*
X13694000Y-21199238D01*
X13694000Y-21189714D01*
X13703524Y-21170667D01*
X13722571Y-21161143D01*
X13751143Y-21161143D01*
X13770190Y-21170667D01*
X13846381Y-21370667D02*
X13855905Y-21361143D01*
X13874952Y-21332571D01*
X13884476Y-21313524D01*
X13894000Y-21284952D01*
X13903524Y-21237333D01*
X13903524Y-21199238D01*
X13894000Y-21151619D01*
X13884476Y-21123048D01*
X13874952Y-21104000D01*
X13855905Y-21075429D01*
X13846381Y-21065905D01*
M02*
