G04 #@! TF.GenerationSoftware,KiCad,Pcbnew,(6.0.6)*
G04 #@! TF.CreationDate,2022-11-01T12:00:34+01:00*
G04 #@! TF.ProjectId,RTO_cart,52544f5f-6361-4727-942e-6b696361645f,rev?*
G04 #@! TF.SameCoordinates,Original*
G04 #@! TF.FileFunction,Soldermask,Top*
G04 #@! TF.FilePolarity,Negative*
%FSLAX46Y46*%
G04 Gerber Fmt 4.6, Leading zero omitted, Abs format (unit mm)*
G04 Created by KiCad (PCBNEW (6.0.6)) date 2022-11-01 12:00:34*
%MOMM*%
%LPD*%
G01*
G04 APERTURE LIST*
%ADD10C,1.400000*%
%ADD11O,1.400000X1.400000*%
%ADD12R,1.600000X1.600000*%
%ADD13C,1.600000*%
%ADD14R,1.300000X1.300000*%
%ADD15C,1.300000*%
%ADD16R,1.800000X1.800000*%
%ADD17C,1.800000*%
%ADD18C,2.000000*%
%ADD19R,1.700000X1.700000*%
%ADD20O,1.700000X1.700000*%
%ADD21O,1.600000X1.600000*%
%ADD22R,1.270000X8.840000*%
G04 APERTURE END LIST*
D10*
X102870000Y-91440000D03*
D11*
X95250000Y-91440000D03*
D12*
X125730000Y-138430000D03*
D13*
X125730000Y-135890000D03*
X125730000Y-133350000D03*
X125730000Y-130810000D03*
X125730000Y-128270000D03*
X125730000Y-125730000D03*
X125730000Y-123190000D03*
X125730000Y-120650000D03*
X125730000Y-118110000D03*
X125730000Y-115570000D03*
X125730000Y-113030000D03*
X125730000Y-110490000D03*
X125730000Y-107950000D03*
X125730000Y-105410000D03*
X125730000Y-102870000D03*
X125730000Y-100330000D03*
X125730000Y-97790000D03*
X125730000Y-95250000D03*
X125730000Y-92710000D03*
X125730000Y-90170000D03*
X125730000Y-87630000D03*
X125730000Y-85090000D03*
X125730000Y-82550000D03*
X125730000Y-80010000D03*
X110490000Y-80010000D03*
X110490000Y-82550000D03*
X110490000Y-85090000D03*
X110490000Y-87630000D03*
X110490000Y-90170000D03*
X110490000Y-92710000D03*
X110490000Y-95250000D03*
X110490000Y-97790000D03*
X110490000Y-100330000D03*
X110490000Y-102870000D03*
X110490000Y-105410000D03*
X110490000Y-107950000D03*
X110490000Y-110490000D03*
X110490000Y-113030000D03*
X110490000Y-115570000D03*
X110490000Y-118110000D03*
X110490000Y-120650000D03*
X110490000Y-123190000D03*
X110490000Y-125730000D03*
X110490000Y-128270000D03*
X110490000Y-130810000D03*
X110490000Y-133350000D03*
X110490000Y-135890000D03*
X110490000Y-138430000D03*
X113030000Y-135890000D03*
X123190000Y-92710000D03*
X120650000Y-92710000D03*
X118110000Y-92710000D03*
X115570000Y-92710000D03*
X113030000Y-92710000D03*
D12*
X122679200Y-132130800D03*
D13*
X122679200Y-129590800D03*
X122679200Y-127050800D03*
X122679200Y-124510800D03*
X122679200Y-121970800D03*
D14*
X112928400Y-125460000D03*
D15*
X114928400Y-125460000D03*
X116928400Y-125460000D03*
X116928400Y-123460000D03*
X114928400Y-123460000D03*
X112928400Y-123460000D03*
X116840000Y-137700000D03*
X119380000Y-137700000D03*
D16*
X93340000Y-82550000D03*
D17*
X95880000Y-82550000D03*
D18*
X131360000Y-79935000D03*
X131360000Y-86435000D03*
X135860000Y-86435000D03*
X135860000Y-79935000D03*
D10*
X142240000Y-90805000D03*
D11*
X134620000Y-90805000D03*
D18*
X140625000Y-79935000D03*
X140625000Y-86435000D03*
X145125000Y-79935000D03*
X145125000Y-86435000D03*
D19*
X91440000Y-93990000D03*
D20*
X91440000Y-96530000D03*
X91440000Y-99070000D03*
X91440000Y-101610000D03*
D10*
X102870000Y-88265000D03*
D11*
X95250000Y-88265000D03*
D13*
X101560000Y-98425000D03*
X99060000Y-98425000D03*
X101005000Y-140335000D03*
X103505000Y-140335000D03*
D12*
X132090000Y-146055000D03*
D21*
X132090000Y-148595000D03*
X132090000Y-151135000D03*
X132090000Y-153675000D03*
X132090000Y-156215000D03*
X132090000Y-158755000D03*
X132090000Y-161295000D03*
X132090000Y-163835000D03*
X132090000Y-166375000D03*
X132090000Y-168915000D03*
X139710000Y-168915000D03*
X139710000Y-166375000D03*
X139710000Y-163835000D03*
X139710000Y-161295000D03*
X139710000Y-158755000D03*
X139710000Y-156215000D03*
X139710000Y-153675000D03*
X139710000Y-151135000D03*
X139710000Y-148595000D03*
X139710000Y-146055000D03*
D12*
X98435000Y-145420000D03*
D21*
X98435000Y-147960000D03*
X98435000Y-150500000D03*
X98435000Y-153040000D03*
X98435000Y-155580000D03*
X98435000Y-158120000D03*
X98435000Y-160660000D03*
X98435000Y-163200000D03*
X98435000Y-165740000D03*
X98435000Y-168280000D03*
X106055000Y-168280000D03*
X106055000Y-165740000D03*
X106055000Y-163200000D03*
X106055000Y-160660000D03*
X106055000Y-158120000D03*
X106055000Y-155580000D03*
X106055000Y-153040000D03*
X106055000Y-150500000D03*
X106055000Y-147960000D03*
X106055000Y-145420000D03*
D12*
X96530000Y-102240000D03*
D21*
X96530000Y-104780000D03*
X96530000Y-107320000D03*
X96530000Y-109860000D03*
X96530000Y-112400000D03*
X96530000Y-114940000D03*
X96530000Y-117480000D03*
X96530000Y-120020000D03*
X96530000Y-122560000D03*
X96530000Y-125100000D03*
X104150000Y-125100000D03*
X104150000Y-122560000D03*
X104150000Y-120020000D03*
X104150000Y-117480000D03*
X104150000Y-114940000D03*
X104150000Y-112400000D03*
X104150000Y-109860000D03*
X104150000Y-107320000D03*
X104150000Y-104780000D03*
X104150000Y-102240000D03*
D10*
X142240000Y-95250000D03*
D11*
X134620000Y-95250000D03*
D13*
X134640000Y-139700000D03*
X137140000Y-139700000D03*
D22*
X144665700Y-187960000D03*
X142125700Y-187960000D03*
X139585700Y-187960000D03*
X137045700Y-187960000D03*
X134505700Y-187960000D03*
X131965700Y-187960000D03*
X129425700Y-187960000D03*
X126885700Y-187960000D03*
X124345700Y-187960000D03*
X121805700Y-187960000D03*
X119265700Y-187960000D03*
X116725700Y-187960000D03*
X114185700Y-187960000D03*
X111645700Y-187960000D03*
X109105700Y-187960000D03*
X106565700Y-187960000D03*
X104025700Y-187960000D03*
X101485700Y-187960000D03*
X98945700Y-187960000D03*
X96405700Y-187960000D03*
X93865700Y-187960000D03*
X91325700Y-187960000D03*
D16*
X100960000Y-82550000D03*
D17*
X103500000Y-82550000D03*
M02*
